<?xml version="1.0" encoding="iso-8859-1"?>
<!-- Generator: Adobe Illustrator 19.0.0, SVG Export Plug-In . SVG Version: 6.00 Build 0)  -->
<svg version="1.1" id="Capa_1" xmlns="http://www.w3.org/2000/svg" xmlns:xlink="http://www.w3.org/1999/xlink" x="0px" y="0px"
	 viewBox="0 0 60 60" style="enable-background:new 0 0 60 60;" xml:space="preserve">
<g>
	<path d="M55.501,0H4.499C2.018,0,0,2.018,0,4.499v40.003C0,46.982,2.018,49,4.499,49h17.855c0.142,1.752-0.618,3.481-2.023,4.472
		l-1.799,1.269c-0.112,0.077-0.207,0.171-0.285,0.275C17.547,55.095,17,55.683,17,56.403C17,58.387,18.613,60,20.597,60h18.807
		C41.387,60,43,58.387,43,56.403c0-0.721-0.548-1.309-1.248-1.388c-0.076-0.102-0.168-0.194-0.277-0.271l-1.804-1.271
		c-1.408-0.992-2.169-2.724-2.025-4.474h17.855C57.982,49,60,46.982,60,44.501V4.499C60,2.018,57.982,0,55.501,0z M58,39H2V4.499
		C2,3.121,3.121,2,4.499,2h51.003C56.879,2,58,3.121,58,4.499V39z"/>
	<path d="M21.962,27h-2.924C17.914,27,17,27.914,17,29.038v2.924C17,33.086,17.914,34,19.038,34h2.924
		C23.086,34,24,33.086,24,31.962v-2.924C24,27.914,23.086,27,21.962,27z"/>
	<path d="M30.962,27h-2.924C26.914,27,26,27.914,26,29.038v2.924C26,33.086,26.914,34,28.038,34h2.924
		C32.086,34,33,33.086,33,31.962v-2.924C33,27.914,32.086,27,30.962,27z"/>
	<path d="M39.962,27h-2.924C35.914,27,35,27.914,35,29.038v2.924C35,33.086,35.914,34,37.038,34h2.924
		C41.086,34,42,33.086,42,31.962v-2.924C42,27.914,41.086,27,39.962,27z"/>
	<path d="M48.962,27h-2.924C44.914,27,44,27.914,44,29.038v2.924C44,33.086,44.914,34,46.038,34h2.924
		C50.086,34,51,33.086,51,31.962v-2.924C51,27.914,50.086,27,48.962,27z"/>
	<path d="M12.962,27h-2.924C8.914,27,8,27.914,8,29.038v2.924C8,33.086,8.914,34,10.038,34h2.924C14.086,34,15,33.086,15,31.962
		v-2.924C15,27.914,14.086,27,12.962,27z"/>
	<path d="M40.414,17H41c0.552,0,1-0.448,1-1s-0.448-1-1-1h-3c-0.552,0-1,0.448-1,1v3c0,0.552,0.448,1,1,1s1-0.448,1-1v-0.586
		l2.293,2.293C41.488,20.902,41.744,21,42,21s0.512-0.098,0.707-0.293c0.391-0.391,0.391-1.023,0-1.414L40.414,17z"/>
</g>
<g>
</g>
<g>
</g>
<g>
</g>
<g>
</g>
<g>
</g>
<g>
</g>
<g>
</g>
<g>
</g>
<g>
</g>
<g>
</g>
<g>
</g>
<g>
</g>
<g>
</g>
<g>
</g>
<g>
</g>
</svg>
