<svg id="Слой_1" data-name="Слой 1" xmlns="http://www.w3.org/2000/svg" viewBox="0 0 115.16 27.79"><defs><style>.cls-1{fill:#93b45a}</style></defs><title>acer</title><path class="cls-1" d="M150-330.66c-3.88 3.28-8.64 4.11-13.44 4.76-3.45.47-6.9 1-10.37 1.25-1.61.13-1.55 1-1.21 2a3.64 3.64 0 0 0 3 2.36c4.1.8 8.23.37 12.35.25a12.3 12.3 0 0 1 1.7-.16c1.1.13 2.56-.87 3.23.5s-1.5 4.2-2.94 4.6a19.31 19.31 0 0 1-5.1.37h-7.7c-4.13 0-8-.8-11.25-4.12-.24 3.16-2.26 3.57-4.65 3.77a60.07 60.07 0 0 1-11.93 0c-4.59-.54-8.19-2.32-9.67-7.26-.2.58-.41 1.17-.61 1.75s-.47 1.34-.64 2A3.07 3.07 0 0 1 88.3-316c-7.54 1.42-15.1 1.93-22.66.31-2.16-.46-4.33-1.4-4.89-3.89a6.65 6.65 0 0 1 2.25-6.75c3.17-2.83 7.17-3.59 11.16-4.25s8-1.19 12-1.78a1.92 1.92 0 0 0 1.84-1.49 2.24 2.24 0 0 0-1-2.56 7.13 7.13 0 0 0-3.44-1 84.6 84.6 0 0 0-13.85.65c-1.91.23-1.85-.35-1.45-1.83.53-1.93 1.55-3.28 3.58-3.4 5.75-.35 11.51-1 17.23.16 3.41.69 6.57 1.82 6.36 6.27 0 .29 0 .6.4.62s.72-.39 1-.71a18.34 18.34 0 0 1 11.68-6.35 31.74 31.74 0 0 1 10-.22 3.91 3.91 0 0 1 3 4.62c-.28.94-1 .57-1.58.57-2.91 0-5.8-.34-8.74-.07-8.28.75-10.81 7.46-10.77 12.94 0 2 1.34 2.92 3 3.31 4.44 1 8.94.27 13.41.37.72 0 .73-.38.67-1-1-9.84 4.38-17.66 13.84-20a32 32 0 0 1 16.44.15c2.53.69 4.48 2 4.58 5.34 4.57-6 10.82-6.51 17.29-6.38 1.28 0 2.56.11 3.84.22a2.12 2.12 0 0 1 2.2 1.92c.13 1.56-1.26 3.29-2.53 3.3-2.57 0-5.13-.09-7.7 0-3.9.07-5.34 1.22-6.39 4.9-1.42 5-2.88 9.94-4.25 14.92-.4 1.44-1 2.21-2.67 2a21.37 21.37 0 0 0-4.06 0c-1.94.16-2.08-.56-1.55-2.23 1.38-4.32 2.58-8.69 3.85-13v-.5zm-24.16 1.46l12-1.7a13 13 0 0 0 5-1.63 2.76 2.76 0 0 0 1.66-2.73c-.15-1.46-1.38-1.67-2.44-2a8.88 8.88 0 0 0-2.3-.42c-8-.43-12.11.96-13.88 8.47zm-48.72 9.28c1.28 0 2.57-.06 3.84 0 2 .11 3.18-.63 3.53-2.72a17.54 17.54 0 0 1 1.17-3.85c.68-1.62-.11-1.63-1.32-1.46-3.16.44-6.34.77-9.49 1.29-1.59.26-3.27.22-4.7 1.19a3.28 3.28 0 0 0-1.74 3c.09 1.41 1.28 1.77 2.36 2.12 2.11.66 4.23.43 6.39.42z" transform="translate(-60.56 342.49)"/></svg>