<svg id="Слой_1" data-name="Слой 1" xmlns="http://www.w3.org/2000/svg" viewBox="0 0 123.01 23.97"><defs><style>.cls-1{fill:#4c5c8f}.cls-2{fill:#888ab4}</style></defs><title>asus</title><path class="cls-1" d="M146.94-682.09c0-2 0-4 .05-6 0-.2.05-.29.26-.27a3.12 3.12 0 0 0 .33 0h21.64a2.63 2.63 0 0 0 .74-.07 1.14 1.14 0 0 0 1-1.28 1.07 1.07 0 0 0-1.11-1.11c-1.76-.17-3.53-.31-5.29-.46l-7.5-.61c-1.28-.1-2.57-.15-3.84-.33a6.82 6.82 0 0 1-5.75-4.68c-.1-.34 0-.39.3-.37l10.61.63c4.07.25 8.14.49 12.2.77a6.73 6.73 0 0 1 6.09 5.25 7.08 7.08 0 0 1-3.15 7.62 7.22 7.22 0 0 1-2.83.94c-.09 0-.19 0-.24.1h-.19c-.15-.18-.35-.09-.52-.09H147.6zM61.08-682.16c.68-.86 1.17-1.84 1.8-2.73 1.73-2.44 3.19-5 4.88-7.5 1.46-2.12 2.78-4.34 4.2-6.49.13-.19.23-.33.51-.3l6.73.73.18.05c-.52.8-1 1.61-1.53 2.37-1.76 2.54-3.33 5.21-5.09 7.76-1.32 1.92-2.53 3.91-3.81 5.85a.7.7 0 0 1-.68.36h-7.2zM184.09-702.31a5.11 5.11 0 0 1-.88 1.41 2.81 2.81 0 0 1-3.35.23 2.7 2.7 0 0 1-1-3.29 2.65 2.65 0 0 1 2.94-1.58 2.57 2.57 0 0 1 2.16 2s.06.06.08.1zm-2.75-3.09a2.46 2.46 0 0 0-2.44 2.46 2.45 2.45 0 0 0 2.39 2.5 2.51 2.51 0 0 0 2.58-2.49 2.47 2.47 0 0 0-2.53-2.46z" transform="translate(-61.08 705.95)"/><path class="cls-2" d="M146.94-682.09h22.8c.17 0 .37-.09.52.09h-23.34zM140.72-682a.1.1 0 0 1 0 .07h-15.17v-.08h14z" transform="translate(-61.08 705.95)"/><path class="cls-1" d="M140.72-682h-15.17a6.87 6.87 0 0 1-6.34-6.08c-.07.34-.11.61-.19.86a7.12 7.12 0 0 1-5.66 5.18 2.43 2.43 0 0 1-.47 0H83.53c-.42 0-.51-.11-.5-.51v-15.11c0-.37.06-.52.48-.48 1.77.15 3.53.27 5.3.38.37 0 .52.11.52.54v8.47c0 .36.08.47.46.47h22c1 0 1.48-.47 1.46-1.32a1.09 1.09 0 0 0-1.06-1.2c-1.39-.15-2.78-.25-4.17-.37-4.12-.35-8.25-.62-12.37-1.06A6.49 6.49 0 0 1 91-695a6.87 6.87 0 0 1-1.13-2.67l4 .31 7.78.62 10.08.82c.38 0 .75.08 1.12.09a6.33 6.33 0 0 1 5 2.91 9.31 9.31 0 0 1 1.35 2.36v-.44-7.58c0-.37.05-.51.48-.48q2.72.23 5.44.38c.38 0 .49.15.48.53v7.67a2 2 0 0 0 2.28 2.27h10.21a2 2 0 0 0 2.33-2.34v-6.63c0-.36.07-.48.46-.45q2.74.2 5.49.33c.37 0 .5.1.5.5v8.52a5.84 5.84 0 0 1-.45 2.34 6.51 6.51 0 0 1-4 3.52 6.82 6.82 0 0 1-1.7.42zM72.53-699.59c.33-.54.65-1.07 1-1.6l2.12-3.33a2.87 2.87 0 0 1 2.61-1.37h10.92c.37 0 .43.12.43.45v4.96h.09l.14-.42a7.36 7.36 0 0 1 4.72-4.72 6.77 6.77 0 0 1 2.27-.32h20.7c.37 0 .51.06.51.48v5.5c0 .31-.09.39-.39.39H72.53zM147-700.24a7.85 7.85 0 0 1 2-3.62 7 7 0 0 1 5-2.07h22.4c.34 0 .45.07.45.43v5.55c0 .25 0 .39-.34.39h-29.5zM122.43-705.9h2.87c.26 0 .35.07.35.34v5.64c0 .26-.05.35-.33.35h-5.78c-.26 0-.35-.06-.35-.34v-5.64c0-.31.12-.36.39-.35.93.01 1.89 0 2.85 0zM146.82-699.58h-6.07c-.28 0-.37-.07-.37-.36v-5.6c0-.28.07-.38.36-.37h5.79c.33 0 .38.11.38.41v5.27c-.13.23-.01.44-.09.65z" transform="translate(-61.08 705.95)"/><path class="cls-2" d="M146.82-699.58c.09-.21 0-.45.1-.65h.08v.65z" transform="translate(-61.08 705.95)"/><path class="cls-1" d="M182.21-702.74a1.94 1.94 0 0 1 .5 1.32c0 .1-.16.07-.25.07s-.26 0-.3-.14 0-.09 0-.14c-.14-1-.14-1-1.11-1-.29 0-.34.12-.33.36s0 .47 0 .7 0 .21-.18.21-.2-.06-.2-.2v-2.49c0-.1 0-.21.13-.21a5.69 5.69 0 0 1 1.67.08.76.76 0 0 1 .07 1.44zm-1-.16h.36c.31 0 .55-.14.54-.51s-.23-.51-.59-.5h-.61c-.08 0-.19 0-.2.08a2.63 2.63 0 0 0 0 .84c.09.21.36.05.5.09z" transform="translate(-61.08 705.95)"/></svg>