<svg id="Слой_1" data-name="Слой 1" xmlns="http://www.w3.org/2000/svg" viewBox="0 0 130.91 23.02"><defs><style>.cls-1{fill:#0c0b0c}</style></defs><title>blackberry</title><path class="cls-1" d="M247.05-1077.83a11.35 11.35 0 0 0 .39-1.62c.14-.57.26-1.15.38-1.72 0-.12 0-.2.2-.19 1.14 0 2.29-.07 3.43.07a1.64 1.64 0 0 1 1.56 1.38 1.9 1.9 0 0 1-1.08 2 4.55 4.55 0 0 1-2 .38h-2.85zM260-1087.08c.12.11.29.07.43.11a1.67 1.67 0 0 1 .77 2.86 2.73 2.73 0 0 1-1.86.76c-1.12.08-2.25 0-3.37 0-.17 0-.22 0-.18-.22.25-1.1.48-2.21.72-3.32a2.1 2.1 0 0 0 0-.23zM252.36-1087.08c.11.11.26.07.39.11a1.53 1.53 0 0 1 1.27 1.25 1.81 1.81 0 0 1-.69 1.8 2.85 2.85 0 0 1-1.64.57c-1.13.08-2.27 0-3.4 0-.19 0-.22-.07-.18-.23q.39-1.77.77-3.53zM336.17-1076.37s0 .06.06.07c2.19.89 2.46 3.73 1.25 5.42a5.28 5.28 0 0 1-3.38 2.12 11.52 11.52 0 0 1-4.69 0 3.51 3.51 0 0 1-2.79-4.46q1.11-5.14 2.2-10.29c0-.2.1-.29.33-.28h5.41a6.12 6.12 0 0 1 1.87.27 3.64 3.64 0 0 1 2.68 2.63 3.59 3.59 0 0 1-1.65 3.87 5.19 5.19 0 0 1-1.29.65zm-5 5h1a4.17 4.17 0 0 0 2-.42 1.85 1.85 0 0 0 1-1.8 1.84 1.84 0 0 0-1.47-1.37 25.91 25.91 0 0 0-3.49-.1c-.12 0-.14.06-.16.16q-.35 1.66-.71 3.32c0 .17 0 .23.19.23zm2-9.51h-1.65c-.12 0-.21 0-.25.17-.18.89-.38 1.77-.57 2.65 0 .15 0 .21.17.21h3a2.88 2.88 0 0 0 1.53-.41 1.43 1.43 0 0 0 .72-1.46 1.3 1.3 0 0 0-1.14-1.06 9.85 9.85 0 0 0-1.86-.09zM281.53-1076.36a.54.54 0 0 0 .11.09 3.48 3.48 0 0 1 1.63 4.61 4.92 4.92 0 0 1-3.38 2.8 13 13 0 0 1-4.32.28 4 4 0 0 1-2.31-.79 3.34 3.34 0 0 1-1.3-3.51c.61-3.06 1.29-6.11 1.95-9.17.1-.48.21-1 .29-1.44 0-.19.12-.24.3-.24h5.5a5.8 5.8 0 0 1 1.81.27 3.63 3.63 0 0 1 2.67 2.67 3.59 3.59 0 0 1-1.67 3.83 5.59 5.59 0 0 1-1.28.6zm-5.06 5h1a4.14 4.14 0 0 0 2-.43 1.85 1.85 0 0 0 1-1.82A1.89 1.89 0 0 0 279-1075a27.16 27.16 0 0 0-3.5-.1c-.15 0-.15.1-.17.19-.23 1.1-.46 2.19-.7 3.29 0 .21 0 .23.2.23zm-.49-6.48h3.44a2.43 2.43 0 0 0 1.58-.63 1.29 1.29 0 0 0-.49-2.22 3 3 0 0 0-1-.14h-2.29c-.57 0-.58 0-.7.54-.18.78-.35 1.6-.52 2.45zM366.58-1080.09c-.18.8-.36 1.59-.52 2.39 0 .17-.1.21-.26.18a2.52 2.52 0 0 0-3.09 2.17q-.7 3.24-1.38 6.48c-.05.24-.13.34-.4.33h-2.2c-.31 0-.32-.1-.26-.36.43-1.93.86-3.87 1.26-5.81a11.09 11.09 0 0 1 .69-2.41 5.23 5.23 0 0 1 4.14-3.09 26.1 26.1 0 0 1 3.83-.13 7.84 7.84 0 0 0 .82 0c.31 0 .35.11.38.36.27 2.08.55 4.15.82 6.23l.13 1a.61.61 0 0 0 .23-.29l4-7a.46.46 0 0 1 .48-.28h2.71a.57.57 0 0 1-.14.31c-1 1.67-2 3.33-2.94 5-1.57 2.78-3.25 5.49-4.83 8.27-.46.81-.95 1.61-1.4 2.43a.4.4 0 0 1-.4.24h-2.75a.58.58 0 0 1 .14-.31l2.65-4.62a.59.59 0 0 0 .08-.43q-.43-2.6-.85-5.19t-.88-5.49zM350.7-1072.06a5.16 5.16 0 0 1-1.93 2.6 6.2 6.2 0 0 1-6.66.39 4.77 4.77 0 0 1-2.46-3.81 6.35 6.35 0 0 1 1.43-5.29 6 6 0 0 1 5.19-2.17 5.45 5.45 0 0 1 3.33 1.26 5.15 5.15 0 0 1 1.72 4.53c0 .32-.12.64-.15 1s-.16.33-.42.33h-8c-.39 0-.39 0-.3.37a2.6 2.6 0 0 0 3.08 2 2.6 2.6 0 0 0 1.81-1 .23.23 0 0 1 .21-.11zm-7.78-3.63H348.15c.2 0 .21-.09.2-.23a1.86 1.86 0 0 0-1.07-1.54 3.34 3.34 0 0 0-2.07-.27 3 3 0 0 0-2.29 2.04zM297.76-1069.68a4.73 4.73 0 0 1-2.68 1.33 4.19 4.19 0 0 1-4.18-1.72 3.21 3.21 0 0 1 .8-4.27 7.71 7.71 0 0 1 3.35-1.32c1-.19 2-.27 3-.52a2.45 2.45 0 0 0 .64-.24.62.62 0 0 0 0-1.13 2.61 2.61 0 0 0-1.74-.31 2.93 2.93 0 0 0-2.17 1.13.24.24 0 0 1-.22.09h-3a5.32 5.32 0 0 1 1.07-1.73 6 6 0 0 1 4.1-1.93 7.46 7.46 0 0 1 2.88.25 3 3 0 0 1 2.22 3.72c-.36 1.77-.74 3.54-1.1 5.31a5.27 5.27 0 0 0 0 2.15c.05.24 0 .34-.27.34h-2.36c-.22 0-.29-.07-.29-.27s-.03-.54-.05-.88zm-2.8-1.21a3.34 3.34 0 0 0 3.48-2.75c.06-.27 0-.29-.25-.26-.9.14-1.81.27-2.71.42a3.87 3.87 0 0 0-1.59.56 1 1 0 0 0 .05 1.76 2.13 2.13 0 0 0 1.06.27zM319-1075.86l3.22-2.87 1.58-1.43a.44.44 0 0 1 .3-.16h3.85l-1.46 1.23-4.2 3.51a.29.29 0 0 0-.1.42c1 2.12 2.13 4.19 3.18 6.29.16.31.16.31-.2.31h-2.52a.41.41 0 0 1-.45-.27c-.71-1.5-1.44-3-2.15-4.51-.13-.27-.21-.24-.4-.08a8.89 8.89 0 0 1-.95.75 1.59 1.59 0 0 0-.71 1.17c-.16.91-.39 1.81-.57 2.72 0 .18-.11.22-.28.22h-2.36c-.23 0-.27-.06-.23-.28q.63-2.89 1.25-5.78.95-4.42 1.88-8.85c0-.22.12-.29.36-.29h2.59l-1.68 7.84v.08c0 .01.05.01.05-.02zM314-1072.65a4.79 4.79 0 0 1-.76 1.81 5.54 5.54 0 0 1-4.64 2.5 6 6 0 0 1-3.08-.59 4.8 4.8 0 0 1-2.65-3.88 6.6 6.6 0 0 1 1.39-5.25 6.11 6.11 0 0 1 5.34-2.29 5.78 5.78 0 0 1 3.38 1.13 4.16 4.16 0 0 1 1.66 3.14c0 .25 0 .34-.32.34h-2.49c-.11 0-.23 0-.28-.14-.52-1.73-2.77-2.11-4.12-1.23a3.5 3.5 0 0 0-1.56 2.43 3.52 3.52 0 0 0 0 1.65 2.41 2.41 0 0 0 2.07 1.88 2.51 2.51 0 0 0 2.68-1.22.5.5 0 0 1 .51-.28c.98.01 1.92 0 2.87 0zM288.11-1068.33a3.76 3.76 0 0 1-1.45-.22 2.92 2.92 0 0 1-1.87-3.42c.24-1.62.64-3.2 1-4.8.46-2.2.95-4.4 1.41-6.61.06-.27.15-.37.44-.36h2.19c.24 0 .3.06.25.29q-.71 3.25-1.4 6.51c-.33 1.56-.67 3.13-1 4.7-.19.9.15 1.34 1.07 1.44a4.24 4.24 0 0 0 .78 0c.17 0 .23 0 .19.21-.16.66-.29 1.32-.43 2a.24.24 0 0 1-.25.23 6.19 6.19 0 0 1-.93.03zM359.52-1077.58a3.87 3.87 0 0 0-1.58 0 2.56 2.56 0 0 0-1.91 2c-.31 1.17-.54 2.35-.79 3.53s-.48 2.17-.7 3.25c0 .18-.1.23-.27.23h-2.39c-.2 0-.23 0-.18-.24.42-1.91.83-3.83 1.22-5.75a10.4 10.4 0 0 1 .88-2.82 5.3 5.3 0 0 1 4.8-3 11.88 11.88 0 0 1 1.44.07c.16 0 .2.06.16.23-.17.75-.34 1.51-.49 2.26-.04.18-.06.28-.19.24zM263.62-1073.93h-1.7c-.19 0-.23 0-.19-.24.25-1.13.48-2.26.72-3.38 0-.1 0-.22.17-.22a31.51 31.51 0 0 1 3.57.08 1.61 1.61 0 0 1 1.44 1.24 2.07 2.07 0 0 1-1.08 2.15 4.56 4.56 0 0 1-2 .36zM264.55-1079.88H263c-.16 0-.23 0-.18-.22.25-1.13.49-2.27.73-3.41 0-.12 0-.23.2-.23 1.12 0 2.25-.07 3.37.06a1.64 1.64 0 0 1 1.61 1.36 1.92 1.92 0 0 1-1 2 4 4 0 0 1-1.74.38h-1.41zM255.57-1071.64h-1.67c-.2 0-.27 0-.22-.25q.37-1.69.72-3.38c0-.17.11-.2.27-.2h3a3.34 3.34 0 0 1 .64.1 1.52 1.52 0 0 1 1.28 1.23 1.81 1.81 0 0 1-.65 1.87 2.83 2.83 0 0 1-1.67.58h-1.67zM256.49-1077.58H255c-.2 0-.29 0-.23-.26.25-1.11.49-2.23.73-3.35 0-.13.08-.18.22-.18 1.12 0 2.25-.06 3.37.06l.29.06a1.51 1.51 0 0 1 1.29 1.18 1.81 1.81 0 0 1-.68 1.87 3.4 3.4 0 0 1-2 .6h-1.47z" transform="translate(-247.05 1087.08)"/></svg>