<svg width="20" height="20" viewBox="0 0 20 20" xmlns="http://www.w3.org/2000/svg"><title>002-clock</title><g fill="none" fill-rule="evenodd"><circle fill="#E7ECED" fill-rule="nonzero" cx="10" cy="10" r="10"/><path d="M10 1.38c4.753 0 8.62 3.867 8.62 8.62 0 4.753-3.867 8.62-8.62 8.62-4.753 0-8.62-3.867-8.62-8.62 0-4.753 3.867-8.62 8.62-8.62zM10 0C4.477 0 0 4.477 0 10s4.477 10 10 10 10-4.477 10-10S15.523 0 10 0z" fill="#424A60" fill-rule="nonzero"/><path d="M10 2.027a.345.345 0 0 0-.345.345v.345a.345.345 0 1 0 .69 0v-.345A.345.345 0 0 0 10 2.027zm0 14.828a.345.345 0 0 0-.345.345v.344a.345.345 0 1 0 .69 0V17.2a.345.345 0 0 0-.345-.345zm7.586-7.242h-.345a.345.345 0 1 0 0 .69h.345a.345.345 0 1 0 0-.69zm-14.827 0h-.345a.345.345 0 1 0 0 .69h.345a.345.345 0 1 0 0-.69zM15.12 4.35l-.243.244a.344.344 0 1 0 .487.487l.244-.243a.344.344 0 1 0-.488-.488zM4.636 14.835l-.244.244a.344.344 0 1 0 .488.487l.243-.244a.344.344 0 1 0-.487-.487zm10.728 0a.344.344 0 1 0-.487.487l.243.244a.344.344 0 0 0 .488 0 .344.344 0 0 0 0-.487l-.244-.244zM4.88 4.35a.344.344 0 1 0-.488.488l.244.243a.344.344 0 0 0 .487 0 .344.344 0 0 0 0-.487L4.88 4.35z" fill-rule="nonzero" fill="#7383BF"/><path d="M8.966 9.958h-2.76M10 8.924V5.13" stroke="#424A60" stroke-width="2" stroke-linecap="round" stroke-linejoin="round"/><circle stroke="#424A60" stroke-width="2" stroke-linecap="round" stroke-linejoin="round" cx="10" cy="9.958" r="1.034"/></g></svg>