<svg id="Слой_1" data-name="Слой 1" xmlns="http://www.w3.org/2000/svg" viewBox="0 0 68.08 52.87"><defs><style>.cls-1{fill:#3b4262}.cls-2{fill:#5c6691}</style></defs><title>fly</title><path class="cls-1" d="M709.56-1455.48l2.58.06c-.8.74-1.78.28-2.67.39-1.65.2-3.36-.43-5 .41-2.78.28-5.58.23-8.34.73-1.61.29-2.64.72-3.12 2.62-1.51 6-3.46 12-5 18-.66 2.68-1.8 3.93-4.59 3.35a8.39 8.39 0 0 0-1.47 0c.88-3.14 1.42-6.23 2.62-9 1.68-3.92.44-7.39-.82-11.12a24.56 24.56 0 0 0-10.3 7.67c-.74 1-5.65 1.8-6.54 1.11-.48-.38-.31-.94-.31-1.42v-38.31c0-2.34 1.52-1.42 2.58-1.57 1.31-.18 2.15-.06 2.13 1.77-.1 10.56 0 21.11 0 31.67v3.25c1.59-.39 2.6-1.58 3.88-2.26s2.34-1.36 3.54-2c4.45-2.33 4.45-2.32 3-7-.94-3.14-1.85-6.28-2.79-9.51a2.52 2.52 0 0 1 .72-.25c5.57 0 4.42-.58 5.55 4.26.58 2.47 1.08 5 1.73 7.4.13.48-.25 1.55.89 1.43.84-.09 1.6-.22 1.85-1.35.76-3.38 1.68-6.71 2.47-10.08.18-.78.18-1.62 1.2-1.64a15.16 15.16 0 0 1 3.78.22c.47.11.07 1-.1 1.62-1 3.21-1.88 6.44-2.85 9.81l4.2-.22zM655.36-1466.19c.52.88 1.39.51 2.07.46 1.33-.1 1.73.36 1.73 1.7s-.55 1.87-1.81 1.66c-1.86-.31-2 .7-2 2.2.06 5.7-.08 11.41.08 17.11.06 2.16-1.06 2-2.5 2s-2.27-.15-2.23-2c.13-5.7 0-11.41 0-17.11 0-1.09.27-2.28-1.53-2.25-1.43 0-.86-1.2-.89-1.92s-.38-1.76.87-1.69c1.8.09 1.55-1.09 1.56-2.19 0-3.06 0-6.13.11-9.19.16-3.6 2.26-5.37 5.82-5.16 2 .12 3.27.75 2.88 3.08a15.45 15.45 0 0 0 0 2.38c-1.87-.43-3.72-1-4.14 1.69a19.64 19.64 0 0 0-.02 9.23z" transform="translate(-648.24 1482.62)"/><path class="cls-2" d="M704.51-1454.63c1.59-.84 3.31-.21 5-.41.89-.11 1.87.35 2.67-.39l4.18.52c-3.99.58-7.92-.09-11.85.28zM709.56-1455.48h-11.17a25.41 25.41 0 0 1 11.17 0zM655.36-1466.19a19.64 19.64 0 0 1 0-9.22z" transform="translate(-648.24 1482.62)"/></svg>