<svg width="60" height="60" viewBox="0 0 60 60" xmlns="http://www.w3.org/2000/svg"><title>001-signs</title><defs><linearGradient x1="-7.559%" y1="23.292%" x2="94.765%" y2="71.006%" id="a"><stop stop-color="#FFF" stop-opacity=".2" offset="0%"/><stop stop-color="#FFF" stop-opacity="0" offset="100%"/></linearGradient></defs><g fill-rule="nonzero" fill="none"><path d="M57.59 28.43L31.952 2.794A9.595 9.595 0 0 0 25.212 0H5.448A5.453 5.453 0 0 0 0 5.447V25.21c0 2.546.992 4.94 2.793 6.741L28.43 57.59a7.892 7.892 0 0 0 5.611 2.325 7.892 7.892 0 0 0 5.612-2.325L57.59 39.654a7.875 7.875 0 0 0 2.325-5.611 7.875 7.875 0 0 0-2.325-5.612z" fill="#303C42"/><path d="M55.665 30.407L30.027 4.769a6.852 6.852 0 0 0-4.814-1.995H5.447a2.726 2.726 0 0 0-2.724 2.723v19.765c0 1.818.708 3.528 1.995 4.815l25.638 25.638c1.974 1.968 5.4 1.968 7.373 0L55.665 37.78a5.178 5.178 0 0 0 1.526-3.686 5.178 5.178 0 0 0-1.526-3.686z" fill="#7CB342"/><path d="M55.665 33.694L37.729 51.63c-1.974 1.969-5.4 1.969-7.373 0L4.718 25.992a6.765 6.765 0 0 1-1.995-4.815v4.085c0 1.818.708 3.528 1.995 4.815l25.638 25.638c1.974 1.968 5.4 1.968 7.373 0L55.665 37.78a5.178 5.178 0 0 0 1.526-3.686c0-.715-.147-1.405-.418-2.042a5.204 5.204 0 0 1-1.108 1.643z" fill="#000" opacity=".1"/><g fill="#303C42"><path d="M32.077 34.003a1.358 1.358 0 0 0 1.926 0 1.361 1.361 0 0 0 0-1.926l-1.926-1.926 1.926-1.926 2.888 2.89a1.361 1.361 0 1 0 1.926-1.926l-3.852-3.853a1.36 1.36 0 0 0-1.925 0l-7.702 7.704a1.361 1.361 0 0 0 0 1.925l3.85 3.852a1.358 1.358 0 0 0 1.926 0 1.361 1.361 0 0 0 0-1.926l-2.888-2.888 1.926-1.926 1.925 1.926zM42.668 33.04a1.361 1.361 0 0 0-1.926 0l-7.702 7.702a1.361 1.361 0 0 0 0 1.926l3.851 3.852a1.358 1.358 0 0 0 1.926 0 1.361 1.361 0 0 0 0-1.926l-2.889-2.89 1.926-1.925 1.925 1.926a1.358 1.358 0 0 0 1.926 0 1.361 1.361 0 0 0 0-1.926l-1.926-1.925 1.926-1.926 2.888 2.889a1.361 1.361 0 1 0 1.926-1.926l-3.851-3.851zM17.633 18.996a1.361 1.361 0 0 0 .963-2.324l-1.926-1.927 1.926-1.926 2.888 2.888a1.361 1.361 0 1 0 1.926-1.925l-3.852-3.851c-.51-.51-1.414-.51-1.925 0l-3.85 3.85h-.001v.002L9.93 17.634a1.361 1.361 0 1 0 1.926 1.926l2.888-2.89 1.925 1.927c.266.266.615.399.963.399zM26.524 26.527a4.05 4.05 0 0 0 2.665-1.19 4.088 4.088 0 0 0 0-5.777l-1.926-1.926a1.361 1.361 0 0 0-1.925 0L21.52 21.45a.531.531 0 0 0-.072.074l-3.816 3.813a1.361 1.361 0 1 0 1.925 1.926l2.889-2.888.965.961c.53.532.53 1.396 0 1.927l-1.928 1.927a1.361 1.361 0 1 0 1.926 1.925l1.928-1.927a4.072 4.072 0 0 0 1.186-2.66zm-.223-6.004l.962.962a1.361 1.361 0 0 1-.962 2.325h-.003c-.362 0-.702-.141-.96-.4l-.963-.962 1.926-1.925z"/></g><path d="M57.59 28.43L31.952 2.794A9.595 9.595 0 0 0 25.212 0H5.448A5.453 5.453 0 0 0 0 5.447V25.21c0 2.546.992 4.94 2.793 6.741L28.43 57.59a7.892 7.892 0 0 0 5.611 2.325 7.892 7.892 0 0 0 5.612-2.325L57.59 39.654a7.875 7.875 0 0 0 2.325-5.611 7.875 7.875 0 0 0-2.325-5.612z" fill="url(#a)"/></g></svg>