<svg id="Слой_1" data-name="Слой 1" xmlns="http://www.w3.org/2000/svg" viewBox="0 0 103 31.99"><defs><style>.cls-1{fill:#9bc05a}.cls-2{fill:#9dc25c}</style></defs><title>htc</title><path class="cls-1" d="M264-1658h4.76c.2 0 .24.05.24.24v8.82c.29-.16.55-.32.82-.45a9.51 9.51 0 0 1 3.68-.84c1.38-.06 2.76 0 4.14-.05h5.3a10.44 10.44 0 0 1 6.39 2.3 9.19 9.19 0 0 1 3.3 5.76 12.1 12.1 0 0 1 .15 2v13.85c0 .23 0 .3-.29.3h-4.45c-.22 0-.29 0-.28-.28v-11.58-2.8a4.87 4.87 0 0 0-4.69-4.59c-1.09-.05-2.18-.08-3.27-.08h-3a33.5 33.5 0 0 0-3.39.13 5 5 0 0 0-4.27 3.81 7.74 7.74 0 0 0-.17 1.74c-.06 3 0 6.09 0 9.14v4.32c0 .19-.06.22-.23.22H264zM350.06-1626.06h-9.22a9.4 9.4 0 0 1-9.33-7.24 19 19 0 0 1-.48-5.26 25 25 0 0 1 .17-2.87 10.61 10.61 0 0 1 2.46-5.72 9.23 9.23 0 0 1 5.45-3 16.26 16.26 0 0 1 2.69-.18h18c.22 0 .27.05.27.27v4.45c0 .21 0 .27-.27.27h-17.94a5.23 5.23 0 0 0-2.7.5 5.9 5.9 0 0 0-3.07 4.69 21.92 21.92 0 0 0 0 4.7 4.79 4.79 0 0 0 3.93 4.26 13.9 13.9 0 0 0 2.54.17H359.75c.23 0 .28.07.28.29v4.45c0 .2-.05.26-.25.26zM312.3-1650h14c.27 0 .32.08.32.33v4.35c0 .24 0 .31-.3.31h-11.2c-.27 0-.32.07-.32.32v18.23c0 .26-.05.33-.32.33h-4.43c-.23 0-.28-.07-.28-.29v-18.26c0-.38 0-.33-.33-.33h-11.2c-.24 0-.29-.07-.29-.3v-4.43c0-.22.06-.27.27-.27z" transform="translate(-264.04 1658.05)"/><path class="cls-2" d="M367-1628.45a2.22 2.22 0 0 1-2.22 2.23 2.21 2.21 0 0 1-2.23-2.24 2.23 2.23 0 0 1 2.23-2.25 2.21 2.21 0 0 1 2.22 2.26zm-4.08 0a1.85 1.85 0 0 0 1.84 1.88 1.87 1.87 0 0 0 1.87-1.86 1.85 1.85 0 0 0-1.85-1.9 1.88 1.88 0 0 0-1.78 1.87z" transform="translate(-264.04 1658.05)"/><path class="cls-2" d="M365.85-1627.46c-.4.14-.59-.06-.76-.34s-.2-.42-.51-.38c-.14 0-.17.06-.17.19v.31c0 .1 0 .27-.22.26s-.21-.11-.2-.26v-1.67c0-.2.06-.25.25-.24s.6 0 .9 0a.65.65 0 0 1 .64.53.64.64 0 0 1-.33.74c-.12.07-.11.12 0 .21zm-1-1.74h-.13c-.09 0-.23-.05-.24.06a1.29 1.29 0 0 0 0 .58c0 .11.23 0 .35 0 .39 0 .55-.09.55-.34s-.18-.29-.58-.29z" transform="translate(-264.04 1658.05)"/></svg>