<svg id="Слой_1" data-name="Слой 1" xmlns="http://www.w3.org/2000/svg" viewBox="0 0 73.74 75.87"><defs><style>.cls-1{fill:#c54f45}.cls-2{fill:#bb5046}.cls-3{fill:#2a2627}.cls-4{fill:#a44f46}.cls-5{fill:#794343}.cls-6{fill:#e0a48b}.cls-7{fill:#944c48}.cls-8{fill:#db9579}.cls-9{fill:#cb5b45}.cls-10{fill:#d88c70}.cls-11{fill:#d3795d}.cls-12{fill:#b65448}.cls-13{fill:#d07255}.cls-14{fill:#c95545}.cls-15{fill:#ce674b}</style></defs><title>huawei</title><path class="cls-1" d="M273.66 48.19c0 4.72-.37 9.42-.84 14.09-.62.19-.73-.29-.92-.56a125.93 125.93 0 0 1-10.17-17.45A38.29 38.29 0 0 1 258 33.32c-.85-5.78 2.25-11.32 7.53-12.69a6.43 6.43 0 0 1 .74-.11 1 1 0 0 1 .34 1.19 19.31 19.31 0 0 0 2.12 15c1.16 1.9 2.39 3.87 4.63 4.8.07.43-.18.93.29 1.27a30 30 0 0 1 0 5zm15.65-1.87a.24.24 0 0 1 .1-.21c.46-.11.71-.34.54-.85v.06-.06c.34 0 .35-.22.33-.47 5.94-2.11 9.7-6.34 11.77-12.18l.84.17a.26.26 0 0 0 .25.33c1.53 2.42 3 4.88 3.22 7.84a10.62 10.62 0 0 1-3.53 9A55.58 55.58 0 0 1 291.86 58c-2.24 1.26-4.49 2.5-6.72 3.78a37.09 37.09 0 0 1-4.22 2.43c-.29.12-.54.41-1 .27a3.66 3.66 0 0 1 .68-2.09 132.25 132.25 0 0 1 8.4-15.55c.25-.07.3-.28.31-.52z" transform="translate(-237.9 -19.93)"/><path class="cls-2" d="M264.22 61.58a94.65 94.65 0 0 1-13.17-7.95c0-.21-.1-.38-.37-.26l-.08-.05c.26-.69-.22-.73-.68-.78h.1-.1c0-.18-.06-.25-.24-.18h-.08c.08-.37-.18-.36-.42-.36a.15.15 0 0 1-.17-.11c0-.21-.11-.37-.37-.29 0-.18 0-.26-.22-.19h-.07c.09-.35-.15-.36-.39-.37l-.75-.67a.31.31 0 0 0-.31-.3.23.23 0 0 0-.28-.24l.06-.07-.06.07c0-.18-.08-.27-.26-.26l.06-.07-.05.07c0-.18-.07-.27-.26-.26v-.06.07a.3.3 0 0 0-.29-.32 10.26 10.26 0 0 1-2-10.69 20.31 20.31 0 0 1 3-5.6.29.29 0 0 0 .26-.33c.19 0 .27-.07.2-.26v-.05c.36.08.36-.17.38-.41l.18-.22a.33.33 0 0 0 .29-.31.26.26 0 0 0 .26-.3c.19 0 .27-.1.25-.28l.06.07-.07-.05c.19 0 .28-.08.25-.27v.11-.11l.46-.08.08.08c-.08.2 0 .26.19.23h-.09.09c0 .19 0 .28.22.31l.24.31c0 .24 0 .48.35.39-.07.19 0 .27.2.27a.26.26 0 0 0 .23.32c0 .24 0 .49.34.39v.07c-.08.19 0 .26.19.25v.1-.11a.24.24 0 0 0 .22.32c0 .24 0 .49.34.39v.07a2 2 0 0 0-.32 1.42 35.14 35.14 0 0 0 3.38 8.69c2.17 4.26 5.46 7.65 9 10.77a12.57 12.57 0 0 1 1.9 2.51c.83 1.19 1.12 2.71 2.24 3.72v.06-.07c-.08.26-.08.48.26.53-.07.26-.07.47.26.53-.32.71.32 1.31.34 2-.9.06-1.41-.93-2.26-.64-.19-.66-.49-1.18-1.32-.92h-.05c0-.41-.2-.36-.46-.25 0-.4-.21-.36-.47-.26v-.2zm17.56 5.55c.1-.75.82-.85 1.28-1.17 1-.68 2-1.27 3.07-1.9.26 0 .53 0 .52-.36v.07-.07c.24.08.49.19.4-.25h.09c.4.1.74.1.73-.46.18.08.27 0 .32-.17.43 0 .6-.14.47-.56v.06-.12c.25.07.5.12.44-.29h.05c.18.08.27 0 .31-.17.26 0 .48 0 .48-.32h.07-.07c.25.08.49.13.44-.28h.07a2.64 2.64 0 0 0 1.81.2 32.7 32.7 0 0 0 17-9.75c.45-.49.69-.95.32-1.57h.11c.17.1.26 0 .3-.15 1 .06 1.05.73 1.1 1.5 0 .47-.34 1.14.48 1.36v.51a.63.63 0 0 0 0 1 14.71 14.71 0 0 1-2.44 7.18 12.26 12.26 0 0 1-7.43 5.43c-.1-.12-.18-.09-.25 0l-.36.07-.4.13-.76.08z" transform="translate(-237.9 -19.93)"/><path class="cls-3" d="M278.34 83.54l2.92 9.08 2.45-9.09H287l2.85 9.08 2.7-9.05h2.83l-3.91 12H288l-2.68-9-2.35 9h-3.39l-4.23-12.06z" transform="translate(-237.9 -19.93)"/><path class="cls-1" d="M286.56 46.72A126 126 0 0 1 277.49 62a.54.54 0 0 1-.76.25 142.36 142.36 0 0 1-.83-18.4c1.31.42 2.63.81 3.93 1.26 2.19.77 4.48.39 6.73.55z" transform="translate(-237.9 -19.93)"/><path class="cls-4" d="M254.94 67.21c-.09.16-.23.15-.38.1.14-.68-.19-1.06-.71-1.47a21.51 21.51 0 0 1-2.94-2.57 67.65 67.65 0 0 1-7.68-9.64 2.59 2.59 0 0 1-.47-2l8 4.69c0 .35.26.45.58.37 0 .17.12.24.28.15h.1c-.07.43.17.34.41.24h.05a7.31 7.31 0 0 0 1.85 2.22 43.3 43.3 0 0 0 8.53 6.74c.24.14.56.23.46.65-.41.3-.88.12-1.33.16l-4.84.44h-1a.93.93 0 0 0-.91-.08z" transform="translate(-237.9 -19.93)"/><path class="cls-3" d="M240.69 83.49v4.79h5.93v-4.72h2.68v12a8 8 0 0 1-2.63 0v-5.02h-5.95v5a8.6 8.6 0 0 1-2.76.11v-12a9 9 0 0 1 2.73-.16zm65.78.04v2.08h-4.64c-1.75 0-2.54.81-2.67 2.65h7.32v2.14h-7.41c.07 2.39.74 3.07 3 3.09h4.17c.07 0 .15.07.27.13v2c-2.31 0-4.65.27-6.91-.25a4.59 4.59 0 0 1-3.6-4.23 11.44 11.44 0 0 1 0-2.78c.36-3.06 1.93-4.59 5-4.81 1.8-.12 3.61-.02 5.47-.02zm-37.84-.03h3c.91 2 1.86 4 2.77 6s1.73 4 2.65 6.08h-3l-1.17-2.67h-5.51l-1.19 2.71h-2.87zm-.41 6.87h3.69L270 86zM260 83.53h2.78a88.25 88.25 0 0 1-.13 9.24c-.17 1.57-1.43 2.33-2.84 2.7a10.49 10.49 0 0 1-5.26 0 3.45 3.45 0 0 1-2.96-3.47c-.05-2.78 0-5.56 0-8.4a8.35 8.35 0 0 1 2.74-.09c0 2.41.07 4.75 0 7.09-.12 3.07 1.48 3.47 4.12 3 1.19-.19 1.55-1.18 1.55-2.29v-7.78z" transform="translate(-237.9 -19.93)"/><path class="cls-5" d="M259.93 74.66c-.66.37-1.3.77-2 1.11a8.79 8.79 0 0 1-12-3.89 8.16 8.16 0 0 1-1.25-2.38h7.92c.13.54.57.39.92.4a1.66 1.66 0 0 1 1 .33 29.56 29.56 0 0 0 4.88 3.49.89.89 0 0 1 .53.94z" transform="translate(-237.9 -19.93)"/><path class="cls-6" d="M286.57 21.77a4.64 4.64 0 0 1 2 1.53c-.94.23-.36.76-.2 1.16 1 2.6.57 4.78-1.3 6.07a4.33 4.33 0 0 1-5.57-.2 4.82 4.82 0 0 1-1.17-5.75 4.45 4.45 0 0 1 4.93-2.46 1.19 1.19 0 0 0 1.31-.35z" transform="translate(-237.9 -19.93)"/><path class="cls-7" d="M242.76 51.62a2.59 2.59 0 0 0 .47 2 67.65 67.65 0 0 0 7.68 9.64 21.51 21.51 0 0 0 2.94 2.57c.52.4.85.79.71 1.47a20.08 20.08 0 0 1-5-.16c.11-.31.36-.59.09-1-1.76-1.14-3-2.94-4.3-4.6a40 40 0 0 1-5.91-8.72 1.27 1.27 0 0 0-1.36-.87 8.9 8.9 0 0 1 .52-2.68l3.08 1.73c.05.36.27.44.58.35 0 .32.27.34.52.3z" transform="translate(-237.9 -19.93)"/><path class="cls-8" d="M286.57 21.77a1.19 1.19 0 0 1-1.32.35 4.45 4.45 0 0 0-4.93 2.46 4.82 4.82 0 0 0 1.17 5.75 4.33 4.33 0 0 0 5.57.2c1.87-1.29 2.33-3.48 1.3-6.07-.16-.4-.74-.93.2-1.16a12.23 12.23 0 0 1 3 5.84c-.79-.11-.95.52-1.25 1a6.85 6.85 0 0 1-9.73 2.3c-1.49-1-2.06-2.62-3.18-3.86a22 22 0 0 1 2.68-8.67 16.1 16.1 0 0 1 6.49 1.86z" transform="translate(-237.9 -19.93)"/><path class="cls-4" d="M299.95 69.67h5a14 14 0 0 1-3.11 4.43c-.17-.55-.45-.65-1-.46-1.93.64-3.88 1.26-5.86 1.75a5.63 5.63 0 0 0-2.16.89 25.15 25.15 0 0 1-5.27-2.89c0-.2-.1-.38-.36-.24h-.09c.22-.31-.34-.49-.09-.84 1-.14 2-.36 3-.43 3.29-.22 6.25-2 9.61-2 .12-.01.23-.14.33-.21z" transform="translate(-237.9 -19.93)"/><path class="cls-1" d="M268.14 60.72c-1.13-1-1.41-2.52-2.24-3.72a12.57 12.57 0 0 0-1.9-2.51c-3.53-3.12-6.83-6.51-9-10.77a35.14 35.14 0 0 1-3.32-8.72 2 2 0 0 1 .32-1.42c.41.62.8 1.27 1.24 1.87a164 164 0 0 1 10.56 16.74c1.57 2.81 2.9 5.68 4.34 8.53z" transform="translate(-237.9 -19.93)"/><path class="cls-5" d="M238 51.93a1.27 1.27 0 0 1 1.36.87 40 40 0 0 0 5.91 8.72c1.35 1.65 2.54 3.46 4.3 4.6.27.44 0 .73-.09 1a12.08 12.08 0 0 1-8.48-4.86 14.25 14.25 0 0 1-3.08-9.35 9.5 9.5 0 0 1 .08-.98z" transform="translate(-237.9 -19.93)"/><path class="cls-9" d="M273.33 36.73l.07.75c-.43.48-.55.93.15 1.29v1.51a11.51 11.51 0 0 1-4.56-5.5 18 18 0 0 1-1.15-12.83c.18-.67.26-1.22-.34-1.68a3.16 3.16 0 0 1 1.77-.26l.29.24.18.29a.17.17 0 0 1 .08.18l.18.28a.18.18 0 0 1 .07.19c0 .38-.16.79.23 1.08v.51c-.9 1.38-.67 3-.69 4.48a15 15 0 0 0 1.92 7c.28.55.46 1.31 1.3 1.39a.89.89 0 0 0 .5 1.08z" transform="translate(-237.9 -19.93)"/><path class="cls-10" d="M277.39 28.6c1.12 1.23 1.69 2.88 3.18 3.86a6.85 6.85 0 0 0 9.73-2.3c.3-.5.46-1.13 1.25-1-.14 1.69.35 3.4-.19 5.07-.35-.1-.17-.69-.63-.68a8.79 8.79 0 0 1-13-.39 1.54 1.54 0 0 0-1-.54 7.49 7.49 0 0 1 .66-4.02z" transform="translate(-237.9 -19.93)"/><path class="cls-1" d="M309.62 50c.37.62.13 1.08-.32 1.57a32.7 32.7 0 0 1-17 9.75 2.64 2.64 0 0 1-1.81-.2c4.16-2.63 8.53-4.91 12.75-7.43 2.1-1.26 4.17-2.59 6.38-3.69z" transform="translate(-237.9 -19.93)"/><path class="cls-11" d="M276.75 32.6a1.54 1.54 0 0 1 1 .54 8.79 8.79 0 0 0 13 .39c.46 0 .28.58.63.68a15.9 15.9 0 0 1-1.26 4.56c-.5-.2.13-.74-.37-1-.77.2-1.61.37-2.44.63-3.15 1-6 .24-8.85-1.23-.68-.36-1.29-1.17-2.25-.67l.27-3c.41-.12.48-.35.22-.69a.17.17 0 0 1 .05-.21z" transform="translate(-237.9 -19.93)"/><path class="cls-3" d="M308.88 95.58v-12a8.64 8.64 0 0 1 2.76-.09v12.09z" transform="translate(-237.9 -19.93)"/><path class="cls-12" d="M256.9 67.32l4.84-.44c.44 0 .92.14 1.33-.16.1-.42-.22-.51-.46-.65a43.3 43.3 0 0 1-8.53-6.74 7.31 7.31 0 0 1-1.85-2.22c2.88 1.67 5.85 3.19 8.59 5.05 2.08 1.41 4.25 2.67 6.28 4.14.3.21.7.32.88 1zm43.05 2.35c-.1.07-.21.2-.31.2-3.35-.07-6.31 1.74-9.61 2-1 .07-2.06.28-3 .43-.24.35.31.53.09.84L282 69.38V69c6 .17 12 .31 17.95.67z" transform="translate(-237.9 -19.93)"/><path class="cls-13" d="M276.19 36.48c1-.5 1.57.31 2.25.67 2.82 1.47 5.7 2.19 8.85 1.23.82-.25 1.67-.43 2.44-.63.5.28-.13.81.37 1a4.58 4.58 0 0 1-.73 1.85c-.2-.86-.74-.56-1.27-.4a13.64 13.64 0 0 1-8.84-.48c-.95-.36-1.83-.88-2.86-1.38v1.41c0 .29-.12.5-.44.53a26 26 0 0 1 .23-3.8z" transform="translate(-237.9 -19.93)"/><path class="cls-9" d="M275.94 40.29c.32 0 .43-.24.44-.53 1.27 0 2.18 1 3.36 1.31a15.48 15.48 0 0 0 8.53.24c.36.37.23.74.31 1.05a.18.18 0 0 1-.07.19l-.15.32c-.31.09-.32.32-.28.58a1.68 1.68 0 0 1-.46 1.23c-.15-.59-.61-.59-1.09-.59a31.32 31.32 0 0 1-3.78 0 15 15 0 0 1-6.84-2.5v-.29c.21-.16.24-.33 0-.51z" transform="translate(-237.9 -19.93)"/><path class="cls-14" d="M267.52 20.27c.6.46.52 1 .34 1.68A18 18 0 0 0 269 34.78a11.51 11.51 0 0 0 4.56 5.5v.76a.54.54 0 0 0-.25.51c-2.24-.92-3.47-2.9-4.63-4.8a19.31 19.31 0 0 1-2.12-15 1 1 0 0 0-.34-1.19 2.15 2.15 0 0 1 1.3-.29z" transform="translate(-237.9 -19.93)"/><path class="cls-7" d="M259.93 74.66a.89.89 0 0 0-.49-.94 29.56 29.56 0 0 1-4.88-3.49 1.66 1.66 0 0 0-1-.33c-.35 0-.8.14-.92-.4l4.81-.12c.88.57 1.86.13 2.78.27.26.83 1.08 1 1.7 1.36s1.46.5 1.77 1.31h-.06c-.26-.13-.32 0-.36.24a23.5 23.5 0 0 1-3.35 2.1z" transform="translate(-237.9 -19.93)"/><path class="cls-9" d="M300.47 30.14a4.66 4.66 0 0 1 1.38 1.4c-.31.1-.67-.24-1.09.29a13.69 13.69 0 0 1-2.82 5.87c-1.63 1.93-3.34 3.78-5.86 4.6v-.56l.48-.72a.42.42 0 0 0 .32-.47l.52-.77.21-.29c.55 0 .55-.37.52-.76.53 0 .55-.36.53-.75 1.66-.29 3.29-2.68 3.29-4.82l.2-.27c.55 0 .57-.34.56-.74l.21-.27c.53 0 .57-.33.56-.73l.21-.28c.49 0 .55-.31.57-.69a.5.5 0 0 0 .21-.04z" transform="translate(-237.9 -19.93)"/><path class="cls-14" d="M292.08 42.3c2.51-.82 4.22-2.66 5.86-4.6a13.69 13.69 0 0 0 2.82-5.87c.42-.53.78-.19 1.09-.29 0 .19 0 .28.23.29a.3.3 0 0 0 .27.31l.54.66-.84-.17c-2.07 5.84-5.83 10.07-11.77 12.18a13.3 13.3 0 0 1 1.56-2.52zm-16.16-.75a15 15 0 0 0 6.84 2.5 31.32 31.32 0 0 0 3.78 0c.48 0 .94 0 1.09.59h-.2l.09.16a5.69 5.69 0 0 1-1 1.88v-1.04c-2.24-.16-4.53.22-6.73-.55-1.3-.46-2.62-.84-3.93-1.26z" transform="translate(-237.9 -19.93)"/><path class="cls-15" d="M272.84 35.72c-.83-.08-1-.84-1.3-1.39a15 15 0 0 1-1.92-7c0-1.47-.21-3.1.69-4.48.53.37.17 1.32 1 1.52l.05.5c-.89.83-.53 1.91-.49 2.87a8.71 8.71 0 0 0 2.23 6v.51c-.47.4-.17.97-.26 1.47zm15.74 6.65c-.08-.32.05-.68-.31-1.05a15.48 15.48 0 0 1-8.53-.24c-1.18-.33-2.09-1.26-3.36-1.31v-1.41c1 .51 1.92 1 2.86 1.38a13.64 13.64 0 0 0 8.84.48c.53-.16 1.08-.46 1.27.4a4.41 4.41 0 0 1-.77 1.75z" transform="translate(-237.9 -19.93)"/><path class="cls-7" d="M292.8 76.28a5.63 5.63 0 0 1 2.2-.88c2-.49 3.92-1.11 5.86-1.75.59-.19.86-.09 1 .46-.2 0-.28 0-.27.24l-.1-.06.11.05c-.19 0-.28.06-.29.25a.31.31 0 0 0-.32.28c-2.59 2.21-5.59 2.74-8.19 1.41z" transform="translate(-237.9 -19.93)"/><path class="cls-13" d="M273.07 33.7a8.71 8.71 0 0 1-2.23-6c0-1-.39-2 .49-2.87a33.26 33.26 0 0 1 1.74 8.87z" transform="translate(-237.9 -19.93)"/><path class="cls-12" d="M260.18 69.66c-.92-.14-1.9.3-2.78-.27l10.08-.46.13.39a22.67 22.67 0 0 1-3.3 2.31c.2-.76 0-1.17-.81-1.53a7.77 7.77 0 0 0-3.32-.44z" transform="translate(-237.9 -19.93)"/><path class="cls-4" d="M260.18 69.66a7.77 7.77 0 0 1 3.32.44c.77.36 1 .77.81 1.53h-.16l.06.09a.74.74 0 0 1-.55.65c-.31-.82-1.14-.93-1.77-1.31s-1.45-.56-1.71-1.4z" transform="translate(-237.9 -19.93)"/><path class="cls-12" d="M281.78 67.13h18.17a14.09 14.09 0 0 1-1.62.19h-15.76c-.27.01-.57.13-.79-.19z" transform="translate(-237.9 -19.93)"/><path class="cls-15" d="M297.92 33.18c0 2.14-1.63 4.52-3.29 4.82z" transform="translate(-237.9 -19.93)"/><path class="cls-1" d="M266.7 63.14c.85-.29 1.35.69 2.26.64 0-.73-.66-1.33-.34-2l1.3 2.94a12.07 12.07 0 0 1-3.22-1.58zm44.88-10.45c-.82-.21-.45-.88-.48-1.36 0-.77-.13-1.44-1.1-1.5a1.29 1.29 0 0 1 1-.46 8.34 8.34 0 0 1 .58 3.32z" transform="translate(-237.9 -19.93)"/><path class="cls-13" d="M271.29 24.32c-.8-.2-.44-1.15-1-1.52v-.51h.26a4.86 4.86 0 0 1 .74 2.03zm1.55 11.4c.1-.5-.21-1.07.25-1.52a3.25 3.25 0 0 1 .24 1.77l-.48-.25z" transform="translate(-237.9 -19.93)"/><path class="cls-1" d="M265.4 62.24c.84-.26 1.13.26 1.32.92a2.17 2.17 0 0 1-1.32-.92z" transform="translate(-237.9 -19.93)"/><path class="cls-15" d="M273.54 38.77c-.7-.36-.57-.81-.15-1.29a2 2 0 0 1 .15 1.29z" transform="translate(-237.9 -19.93)"/><path class="cls-9" d="M273.35 41.55a.54.54 0 0 1 .25-.51 4.94 4.94 0 0 1 0 1.77c-.44-.33-.19-.81-.25-1.26z" transform="translate(-237.9 -19.93)"/><path class="cls-12" d="M249.93 52.55c.46.05.94.09.68.78-.42-.09-.41-.56-.68-.78z" transform="translate(-237.9 -19.93)"/><path class="cls-15" d="M272.84 35.72l.48.25v.76a.89.89 0 0 1-.48-1.01zm-2.26-13.43h-.26c-.39-.29-.24-.7-.23-1.08a1.69 1.69 0 0 1 .49 1.08zm23.52 16.45c0 .39 0 .76-.52.76a1.12 1.12 0 0 1 .52-.76zm.53-.74c0 .39 0 .75-.53.75a1.07 1.07 0 0 1 .53-.75zm4.81-6.83c0 .4 0 .75-.56.73a1.16 1.16 0 0 1 .56-.73zm-.76 1c0 .4 0 .76-.56.74a1.16 1.16 0 0 1 .56-.74zm1.55-1.97c0 .37-.08.71-.57.69a1 1 0 0 1 .57-.69z" transform="translate(-237.9 -19.93)"/><path class="cls-1" d="M288.69 62.21c.13.43 0 .6-.47.56-.08-.38.19-.48.47-.56zm-.8.73c0 .56-.33.55-.73.46zm23.7-8.73a.63.63 0 0 1 0-1z" transform="translate(-237.9 -19.93)"/><path class="cls-14" d="M289.95 45.25c.18.51-.08.74-.54.85z" transform="translate(-237.9 -19.93)"/><path class="cls-10" d="M276.69 32.76c.25.34.19.57-.22.69a.6.6 0 0 1 .22-.69z" transform="translate(-237.9 -19.93)"/><path class="cls-4" d="M242.27 51.35c-.32.09-.53 0-.58-.35z" transform="translate(-237.9 -19.93)"/><path class="cls-7" d="M254.94 67.21a.93.93 0 0 1 .92.1c-.32.04-.64.17-.92-.1z" transform="translate(-237.9 -19.93)"/><path class="cls-12" d="M251.38 56.68c-.32.09-.53 0-.58-.37zM248 50.94c.23 0 .48 0 .39.37z" transform="translate(-237.9 -19.93)"/><path class="cls-1" d="M290 61.43c0 .35-.22.36-.48.32zm-25.62.27c.26-.1.49-.14.47.26z" transform="translate(-237.9 -19.93)"/><path class="cls-4" d="M242.76 51.63c-.25 0-.47 0-.52-.3z" transform="translate(-237.9 -19.93)"/><path class="cls-12" d="M248.66 51.56c.26-.08.34.08.37.29z" transform="translate(-237.9 -19.93)"/><path class="cls-1" d="M290.41 61.16c.05.41-.19.35-.44.28zM250.43 31.5c-.36.09-.36-.15-.35-.39z" transform="translate(-237.9 -19.93)"/><path class="cls-12" d="M249.2 52c.24 0 .5 0 .42.36zm1.49 1.38c.27-.12.33 0 .37.26z" transform="translate(-237.9 -19.93)"/><path class="cls-1" d="M268.63 61.75c-.33-.06-.33-.28-.26-.53z" transform="translate(-237.9 -19.93)"/><path class="cls-12" d="M252.16 57.09c-.24.1-.48.19-.41-.24z" transform="translate(-237.9 -19.93)"/><path class="cls-1" d="M268.39 61.24c-.34 0-.34-.27-.26-.53zm-3.5.76c.26-.11.48-.16.46.25z" transform="translate(-237.9 -19.93)"/><path class="cls-15" d="M292.86 40.55a.42.42 0 0 1-.32.47.54.54 0 0 1 .32-.47z" transform="translate(-237.9 -19.93)"/><path class="cls-13" d="M275.93 40.78c.21.18.19.35 0 .51z" transform="translate(-237.9 -19.93)"/><path class="cls-1" d="M252 33.51c-.38.1-.35-.15-.34-.39z" transform="translate(-237.9 -19.93)"/><path class="cls-15" d="M292.08 42.3h-.27c-.09-.27 0-.42.25-.55zm-3.99 1.14c0-.26 0-.49.28-.58a.72.72 0 0 1-.28.58z" transform="translate(-237.9 -19.93)"/><path class="cls-1" d="M251.19 32.5c-.37.1-.35-.15-.34-.39z" transform="translate(-237.9 -19.93)"/><path class="cls-14" d="M290.28 44.79c0 .25 0 .47-.33.47zm-.97 1.53c0 .24-.05.46-.33.53z" transform="translate(-237.9 -19.93)"/><path class="cls-1" d="M286.66 63.7c0 .39-.26.36-.52.36zm.41-.26c.09.44-.16.34-.4.25z" transform="translate(-237.9 -19.93)"/><path class="cls-4" d="M263.22 72.61c0-.2.1-.37.36-.24z" transform="translate(-237.9 -19.93)"/><path class="cls-1" d="M289.15 61.92c.05.41-.19.36-.44.29z" transform="translate(-237.9 -19.93)"/><path class="cls-12" d="M287.18 73.16c.27-.15.32 0 .36.24z" transform="translate(-237.9 -19.93)"/><path class="cls-1" d="M247.74 31.61c0 .24 0 .49-.38.41z" transform="translate(-237.9 -19.93)"/><path class="cls-4" d="M301.29 74.58c0-.19.1-.27.29-.25z" transform="translate(-237.9 -19.93)"/><path class="cls-1" d="M289.51 61.73c0 .17-.13.25-.31.17z" transform="translate(-237.9 -19.93)"/><path class="cls-12" d="M301.47 66.86c.06-.13.14-.16.25 0z" transform="translate(-237.9 -19.93)"/><path class="cls-4" d="M301 74.83a.31.31 0 0 1 .32-.28zm.58-.49c0-.2.07-.28.27-.24z" transform="translate(-237.9 -19.93)"/><path class="cls-12" d="M300.71 67.06l.4-.13zm-36.52 4.63l-.06-.09h.16v.05z" transform="translate(-237.9 -19.93)"/><path class="cls-1" d="M288.25 62.75c0 .17-.14.25-.32.17zm-40.92-30.68c.07.19 0 .27-.2.26z" transform="translate(-237.9 -19.93)"/><path class="cls-9" d="M302.32 32.14a.3.3 0 0 1-.27-.31z" transform="translate(-237.9 -19.93)"/><path class="cls-1" d="M250.87 32.13a.26.26 0 0 1-.23-.32z" transform="translate(-237.9 -19.93)"/><path class="cls-9" d="M302.07 31.84c-.19 0-.27-.1-.23-.29z" transform="translate(-237.9 -19.93)"/><path class="cls-1" d="M250.66 31.83c-.19 0-.27-.08-.2-.27zm-2.45-.76a.33.33 0 0 1-.29.31zm1.89.06l-.24-.31z" transform="translate(-237.9 -19.93)"/><path class="cls-1" d="M248.44 30.81a.26.26 0 0 1-.26.3zm1.44.03c-.18 0-.26-.12-.22-.31z" transform="translate(-237.9 -19.93)"/><path class="cls-1" d="M248.67 30.54c0 .19-.07.28-.25.28zm.98-.02c-.19 0-.27 0-.19-.23z" transform="translate(-237.9 -19.93)"/><path class="cls-1" d="M248.91 30.28c0 .19-.06.28-.25.27zm.47-.07l-.46.08c.08-.22.26-.29.46-.08z" transform="translate(-237.9 -19.93)"/><path class="cls-15" d="M300.47 30.14a.5.5 0 0 1-.21 0l.08-.18zM270 21l-.18-.32a.26.26 0 0 1 .18.32zm-.24-.48l-.18-.29zm-.18-.28l-.29-.24c.2 0 .27.08.29.24z" transform="translate(-237.9 -19.93)"/><path class="cls-1" d="M264.22 61.58l.16-.1v.2a.09.09 0 0 1-.16-.1z" transform="translate(-237.9 -19.93)"/><path class="cls-12" d="M251.64 56.81c-.17.09-.25 0-.28-.15zm-1.95-4.44c.18-.08.25 0 .24.18zm-1.27-1.01c.19-.07.25 0 .22.19z" transform="translate(-237.9 -19.93)"/><path class="cls-1" d="M310 49.82c0 .17-.12.25-.3.15z" transform="translate(-237.9 -19.93)"/><path class="cls-12" d="M246.91 50a.31.31 0 0 1 .31.3zm-.26-.25a.23.23 0 0 1 .28.24z" transform="translate(-237.9 -19.93)"/><path class="cls-12" d="M246.39 49.5c.18 0 .27.07.26.26zm-.25-.26c.18 0 .27.08.26.26z" transform="translate(-237.9 -19.93)"/><path class="cls-12" d="M245.86 48.94a.3.3 0 0 1 .29.32z" transform="translate(-237.9 -19.93)"/><path class="cls-11" d="M273.66 48.19v-.38c.16.13.15.26 0 .38z" transform="translate(-237.9 -19.93)"/><path class="cls-9" d="M287.53 44.84l-.09-.16h.19a.14.14 0 0 1-.1.16z" transform="translate(-237.9 -19.93)"/><path class="cls-15" d="M288.36 42.88l.15-.32zm5.23-3.39l-.21.29z" transform="translate(-237.9 -19.93)"/><path class="cls-14" d="M303.1 33.15a.26.26 0 0 1-.25-.33z" transform="translate(-237.9 -19.93)"/><path class="cls-1" d="M251.64 33.14a.24.24 0 0 1-.22-.32zm-.22-.32c-.19 0-.27-.06-.19-.25zm-4.26-.5a.29.29 0 0 1-.26.33z" transform="translate(-237.9 -19.93)"/></svg>