<svg id="Слой_1" data-name="Слой 1" xmlns="http://www.w3.org/2000/svg" viewBox="0 0 107.01 22.99"><defs><style>.cls-1{fill:#bc4f46}.cls-2{fill:#dfab9a}</style></defs><title>lenovo</title><path class="cls-1" d="M372.07-1819.22c-.07 0-.05.09-.06.14a8.94 8.94 0 0 1-2.07 4.8 10.39 10.39 0 0 1-1.47 1.37 9 9 0 0 1-3.92 1.65 7.25 7.25 0 0 1-2.67.08 9.22 9.22 0 0 1-4-1.45 8.79 8.79 0 0 1-1.59-1.36 9 9 0 0 1-2.22-4.81 9.14 9.14 0 0 1 .75-5.16 9.58 9.58 0 0 1 1.17-1.87 9.39 9.39 0 0 1 1.53-1.47 8.94 8.94 0 0 1 3.51-1.6 8 8 0 0 1 3.62-.09 8.8 8.8 0 0 1 3.58 1.46 8.94 8.94 0 0 1 1.6 1.43 9.12 9.12 0 0 1 2.13 4.94c0 .06 0 .13.06.16zm-13.49-1.11a5.89 5.89 0 0 0 .09 1.18 4.63 4.63 0 0 0 2.69 3.57 4 4 0 0 0 3.75-.15 4.23 4.23 0 0 0 1.84-1.9 5.54 5.54 0 0 0 .15-4.62 4.38 4.38 0 0 0-2.21-2.36 4.25 4.25 0 0 0-4.92.81 5 5 0 0 0-1.39 3.48z" transform="translate(-265.06 1834.08)"/><path class="cls-2" d="M269.72-1834.08a.1.1 0 0 1 0 .05h-4.64v-.06z" transform="translate(-265.06 1834.08)"/><path class="cls-1" d="M286.4-1816.34a4.53 4.53 0 0 0 2.25 1.26 6.73 6.73 0 0 0 4.33-.42 9.85 9.85 0 0 0 1.74-1.11.28.28 0 0 1 .41 0q1.28 1 2.57 2c.12.09.11.13 0 .25a7 7 0 0 1-1.73 1.44 11.73 11.73 0 0 1-4.4 1.64 8.19 8.19 0 0 1-2.88.07 9.9 9.9 0 0 1-4.18-1.45 8.58 8.58 0 0 1-1.64-1.38 8.78 8.78 0 0 1-2.15-4.73 9.79 9.79 0 0 1 .35-4.3 8.86 8.86 0 0 1 1.31-2.58 9.55 9.55 0 0 1 1.68-1.7 8.68 8.68 0 0 1 3.36-1.56 8.41 8.41 0 0 1 3.86-.11 8.25 8.25 0 0 1 3.53 1.43 8.44 8.44 0 0 1 3 4.56 11.35 11.35 0 0 1 .31 1.39c0 .18 0 .25-.19.31-.85.34-1.71.66-2.53 1.06-1.17.56-2.4 1-3.57 1.54s-2.23.92-3.33 1.43c-.66.36-1.37.65-2.1.96zm-1.32-4v.68c0 .24.05.2.21.13.51-.24 1-.44 1.54-.68 1.18-.55 2.41-1 3.59-1.55.83-.39 1.68-.72 2.53-1.05.2-.08.19-.17.12-.32a4.42 4.42 0 0 0-1.37-1.6 4.26 4.26 0 0 0-5.37.75 5.46 5.46 0 0 0-1.25 3.69zM327.53-1829.15a7.94 7.94 0 0 1 1.77.16 9.92 9.92 0 0 1 3.46 1.42 8.71 8.71 0 0 1 2.67 2.94 9.19 9.19 0 0 1 .68 7.41 8.74 8.74 0 0 1-1.59 2.88 9.89 9.89 0 0 1-1.63 1.51 9.06 9.06 0 0 1-3.81 1.58 7.17 7.17 0 0 1-2.67.08 9.24 9.24 0 0 1-4-1.45 8.76 8.76 0 0 1-1.61-1.38 9 9 0 0 1-2.23-5 9.07 9.07 0 0 1 1-5.41 9 9 0 0 1 2.3-2.78 9.37 9.37 0 0 1 3.71-1.74 11.71 11.71 0 0 1 1.95-.22zm4.49 9.06v-.54a3.37 3.37 0 0 0 0-.37 4.61 4.61 0 0 0-2.51-3.57 4.08 4.08 0 0 0-4.13.15 4.17 4.17 0 0 0-1.74 2 5.62 5.62 0 0 0-.28 3.82 4.49 4.49 0 0 0 2.77 3.15 4 4 0 0 0 3.78-.36 4.15 4.15 0 0 0 1.13-1 5.14 5.14 0 0 0 .96-3.28zM304.45-1826.37a7.45 7.45 0 0 1 2.07-1.82 11.7 11.7 0 0 1 1.62-.66 5.86 5.86 0 0 1 3.26-.14 6.64 6.64 0 0 1 2.89 1.3 6.58 6.58 0 0 1 2.28 3.85 8.53 8.53 0 0 1 .16 1.69v10.45c0 .22-.06.26-.27.26h-4.05c-.23 0-.3 0-.3-.29v-9.35a3.59 3.59 0 0 0-1.85-3.38 3.85 3.85 0 0 0-3.85-.15 3.37 3.37 0 0 0-2 3.09v9.73c0 .28-.07.35-.35.35h-4c-.2 0-.25 0-.25-.25v-16.88c0-.21.06-.25.26-.25h4.11c.23 0 .26.08.26.28 0 .7.01 1.4.01 2.17zM345.32-1817l.83-2.36 1.78-5c.49-1.39 1-2.78 1.45-4.17a.32.32 0 0 1 .36-.25h4.7c.22 0 .3 0 .19.27-.53 1.29-1 2.58-1.55 3.87l-1.75 4.4-1.78 4.48c-.55 1.38-1.1 2.77-1.64 4.15a.28.28 0 0 1-.31.21H343a.28.28 0 0 1-.32-.2q-1.36-3.44-2.74-6.88l-1.08-2.73-2.4-6.05c-.18-.44-.34-.89-.53-1.32-.07-.17 0-.2.13-.2H341c.16 0 .21.06.26.2l2.46 7q.76 2.14 1.5 4.29zM265.07-1834h4.64v17.88c0 .25.05.33.32.33h9.86c.26 0 .3.07.3.31v3.84c0 .2 0 .25-.25.25h-14.62c-.16 0-.26 0-.26-.21v-22.32l.01-.08z" transform="translate(-265.06 1834.08)"/></svg>