<svg id="Слой_1" data-name="Слой 1" xmlns="http://www.w3.org/2000/svg" viewBox="0 0 105 49.73"><defs><style>.cls-1{fill:#a35266}.cls-2{fill:#5a5959}.cls-3{fill:#5a595a}</style></defs><title>lg</title><path class="cls-1" d="M480.83-2026.87a24.83 24.83 0 0 1 24.76 24.87 24.79 24.79 0 0 1-24.76 24.85 24.78 24.78 0 0 1-24.76-24.85 24.82 24.82 0 0 1 24.76-24.87zm13.32 23.93H487c-.22 0-.29.05-.28.27v1.29c0 .43-.06.35.34.35h12.23c.15 0 .28 0 .26.22a21.23 21.23 0 0 1-.45 3.13 18.69 18.69 0 0 1-7 10.77 18 18 0 0 1-10 3.74 18.5 18.5 0 0 1-6-.52 17.68 17.68 0 0 1-7.1-3.56 20.49 20.49 0 0 1-2.73-2.68 18.71 18.71 0 0 1-4.2-14.39 18.55 18.55 0 0 1 1.69-5.82 17.81 17.81 0 0 1 3.06-4.54 18.67 18.67 0 0 1 7.44-5 18.68 18.68 0 0 1 5-1.08c.76-.06 1.52 0 2.28 0 .15 0 .22 0 .21-.2v-1.6c0-.14 0-.2-.19-.2a21.74 21.74 0 0 0-3.87.23 19.83 19.83 0 0 0-4.82 1.37 21.68 21.68 0 0 0-6.07 3.86 20.38 20.38 0 0 0-5.27 7.58 21 21 0 0 0-1.49 6.68 21 21 0 0 0 .59 6.21 20.91 20.91 0 0 0 6.2 10.36 19.72 19.72 0 0 0 6.55 4 20.46 20.46 0 0 0 8.39 1.32 20.18 20.18 0 0 0 4.36-.68 20.19 20.19 0 0 0 9.34-5.5 21.22 21.22 0 0 0 4.47-6.78 21.44 21.44 0 0 0 1.52-8.54c0-.23-.07-.27-.28-.27zm-14.31.92v10.66c0 .2 0 .27.26.26h6.4c.21 0 .25-.06.24-.25v-1.44c0-.23-.07-.27-.28-.27h-4.33c-.24 0-.3-.06-.3-.3v-15.46-3.88c0-.2-.05-.26-.25-.25h-1.42c-.26 0-.34 0-.34.32.02 3.54.02 7.08.02 10.63zm-3.93-7.92a3 3 0 0 0-3-3 3 3 0 0 0-3 3 3 3 0 0 0 3 3 3 3 0 0 0 2.99-3z" transform="translate(-456.07 2026.87)"/><path class="cls-2" d="M554.82-1992a7.25 7.25 0 0 1-5.39 3 10.43 10.43 0 0 1-5.54-.79 9.67 9.67 0 0 1-4.5-4.17 14.48 14.48 0 0 1-1.75-5.61 19.39 19.39 0 0 1 .06-5.2 13.41 13.41 0 0 1 1.74-4.93 10.64 10.64 0 0 1 7.48-5 14.78 14.78 0 0 1 8.28.61 9.41 9.41 0 0 1 4.39 3.28 8 8 0 0 1 1.25 3.25c.09.45.13.9.2 1.35 0 .17 0 .21-.19.2h-7.25c-.19 0-.21-.08-.24-.22a3.21 3.21 0 0 0-2.75-2.84 3.83 3.83 0 0 0-4.06 1.69 7.41 7.41 0 0 0-1.18 3.25 14.5 14.5 0 0 0 .22 5.65 5.83 5.83 0 0 0 1.66 3 4.12 4.12 0 0 0 3.44 1 3.75 3.75 0 0 0 3.23-2.76 8.7 8.7 0 0 0 .36-1.31c0-.18 0-.22-.19-.22h-4.23c-.22 0-.27-.06-.27-.28v-4.67c0-.2 0-.26.26-.26h11c.19 0 .25 0 .25.24v14c0 .22-.07.25-.27.25h-5.72c-.22 0-.28-.06-.27-.28-.01-.77-.02-1.47-.02-2.23z" transform="translate(-456.07 2026.87)"/><path class="cls-3" d="M518-2002v-12.12c0-.25.07-.3.31-.29H525c.24 0 .3.07.3.3v18.05c0 .26 0 .34.33.34h10.26c.24 0 .31.05.31.3v5.59c0 .23 0 .31-.3.31h-17.64c-.25 0-.3-.08-.29-.31q.03-6.11.03-12.17z" transform="translate(-456.07 2026.87)"/></svg>