<svg width="35" height="34" viewBox="0 0 35 34" xmlns="http://www.w3.org/2000/svg"><title>mechanic</title><g fill="none"><path d="M21.41 18.022l8.615 4.965 1.94 10.965H17.51zm-8.81 0l-8.616 4.965-1.94 10.965h14.453z" fill="#00233F"/><path fill="#F9BDA0" d="M22 19h-9l.6-6h7.8z"/><path fill="#E28F71" d="M22 19h-4.515L13 13h8.4z"/><path d="M23 7.179C23 12.335 20.37 17 17 17s-6-4.665-6-9.821C11 2.022 13.63 0 17 0s6 2.022 6 7.179z" fill="#FCCCB9"/><path d="M17 2c3.37 0 6 .813 6 5.697S20.37 17 17 17" fill="#F9BDA0"/><path fill="#FFD60B" d="M33.333 21.724l-8.713-3.047.194-.55-2.65-1.114-4.585 2.862L12.996 17l-2.652 1.097.176.467-8.853 3.16L0 34h35z"/><path fill="#FFBE06" d="M5.61 34H35l-1.653-12.276-8.64-3.047.193-.55-2.628-1.114-4.546 2.862L13.182 17l4.552 2.874-7.007-1.31L2 21.724"/><path fill="#FF8908" d="M17 34h18l-1.66-12.285-8.675-3.05.193-.55L22.218 17l-4.564 2.864"/><path fill="#DD6105" d="M29 34h6l-1.684-12"/><path d="M15.132 14.188C15.048 14.076 15 14 15 14s.032.108.132.188z" fill="#7C4615"/><path d="M17 12.007c-.415-.033-1.032.022-1.422.89-.414.917-.54.926-.578.883.06.114.324.493.993-.124.478-.44 1.007-.498 1.007-.48v-1.17z" fill="#C45022"/><path d="M20 14.188c.084-.112.132-.188.132-.188s-.04.108-.132.188z" fill="#7C4615"/><g fill="#B23A10"><path d="M19.06 13.142c.6.847.785.855.84.816-.088.105-.473.455-1.44-.115-.693-.407-1.46-.46-1.46-.443v-1.081c.602-.03 1.495.02 2.06.823z"/><path d="M22.266 5.12s-.502 1.436.2 2.298c0 0 .2.096.251.527.05.43.163 1.687-.364 4.13-.174.808-1.291 3.004-2.697 2.238l-.394.144s.159 1.868-2.25 1.82v1.675s2.651.239 4.458-2.155c1.806-2.394 1.953-5.793 1.903-7.709-.05-1.915.85-1.964.45-2.634-.402-.67-1.557-.334-1.557-.334z"/></g><path d="M12.539 5s.522 1.455-.21 2.327c0 0-.208.097-.26.534-.052.436-.17 1.708.379 4.181.182.82 1.342 3.042 2.803 2.267l.41.145s-.165 1.892 2.339 1.843v1.696s-2.757.242-4.635-2.181c-1.878-2.424-2.028-5.866-1.977-7.806.053-1.94-.675-1.667-.259-2.346.417-.678 1.41-.66 1.41-.66z" fill="#C45022"/><path d="M17 7.286C17 8.233 15.966 9 14.693 9 13.417 9 13 8.233 13 7.286S13.417 6 14.693 6C15.966 6 17 6.339 17 7.286z" fill="#BCD3CF"/><path d="M14.734 10C13.616 10 13 9.203 13 7.754 13 6.492 13.486 6 14.734 6 16.174 6 17 6.64 17 7.754A2.258 2.258 0 0 1 14.734 10zm0-3.445c-.942 0-1.2.257-1.2 1.2 0 1.69.903 1.69 1.2 1.69.955 0 1.731-.759 1.731-1.69 0-.797-.582-1.2-1.731-1.2zM12.667 9h-1.334C11.15 9 11 8.776 11 8.5s.15-.5.333-.5h1.334c.184 0 .333.224.333.5s-.15.5-.333.5z" fill="#472108"/><path d="M18 7.286C18 8.233 19.034 9 20.309 9 21.583 9 22 8.233 22 7.286S21.583 6 20.309 6C19.034 6 18 6.339 18 7.286z" fill="#BCD3CF"/><path d="M20.267 10C19.017 10 18 8.993 18 7.754 18 6.64 18.827 6 20.267 6 21.498 6 22 6.508 22 7.754 22 9.203 21.385 10 20.267 10zm0-3.445c-1.15 0-1.732.403-1.732 1.2 0 .931.777 1.69 1.732 1.69.296 0 1.198 0 1.198-1.69 0-.943-.257-1.2-1.198-1.2z" fill="#472108"/><path d="M22.648 8.285h-1.163a.286.286 0 0 1-.29-.28c0-.156.13-.281.29-.281h1.163c.16 0 .29.125.29.28 0 .155-.13.281-.29.281zm-4.891-.015a.286.286 0 0 1-.29-.281.436.436 0 0 0-.443-.428.435.435 0 0 0-.442.428c0 .155-.13.28-.291.28A.286.286 0 0 1 16 7.99c0-.545.46-.989 1.024-.989.565 0 1.024.444 1.024.989 0 .155-.13.28-.29.28z" fill="#472108"/><g transform="translate(4 21)" fill="#FFD60B"><ellipse cx=".317" cy=".313" rx="1" ry="1"/><ellipse cx="2.29" cy=".313" rx="1" ry="1"/><ellipse cx="4.263" cy=".313" rx="1" ry="1"/><ellipse cx="6.236" cy=".313" rx="1" ry="1"/><ellipse cx="8.209" cy=".313" rx="1" ry="1"/><ellipse cx="10.182" cy=".313" rx="1" ry="1"/><ellipse cx="12.155" cy=".313" rx="1" ry="1"/><ellipse cx=".317" cy="1.912" rx="1" ry="1"/><ellipse cx="2.29" cy="1.912" rx="1" ry="1"/><ellipse cx="4.263" cy="1.912" rx="1" ry="1"/><ellipse cx="6.236" cy="1.912" rx="1" ry="1"/><ellipse cx="8.209" cy="1.912" rx="1" ry="1"/><ellipse cx="10.182" cy="1.912" rx="1" ry="1"/><ellipse cx="12.155" cy="1.912" rx="1" ry="1"/><ellipse cx=".317" cy="3.51" rx="1" ry="1"/><ellipse cx="2.29" cy="3.51" rx="1" ry="1"/><ellipse cx="4.263" cy="3.51" rx="1" ry="1"/><ellipse cx="6.236" cy="3.51" rx="1" ry="1"/><ellipse cx="8.209" cy="3.51" rx="1" ry="1"/><ellipse cx="10.182" cy="3.51" rx="1" ry="1"/><ellipse cx="12.155" cy="3.51" rx="1" ry="1"/><ellipse cx=".317" cy="5.109" rx="1" ry="1"/><ellipse cx="2.29" cy="5.109" rx="1" ry="1"/><ellipse cx="4.263" cy="5.109" rx="1" ry="1"/><ellipse cx="6.236" cy="5.109" rx="1" ry="1"/><ellipse cx="8.209" cy="5.109" rx="1" ry="1"/><ellipse cx="10.182" cy="5.109" rx="1" ry="1"/><ellipse cx="12.155" cy="5.109" rx="1" ry="1"/><ellipse cx=".317" cy="6.708" rx="1" ry="1"/><ellipse cx="2.29" cy="6.708" rx="1" ry="1"/><ellipse cx="4.263" cy="6.708" rx="1" ry="1"/><ellipse cx="6.236" cy="6.708" rx="1" ry="1"/><ellipse cx="8.209" cy="6.708" rx="1" ry="1"/><ellipse cx="10.182" cy="6.708" rx="1" ry="1"/><ellipse cx="12.155" cy="6.708" rx="1" ry="1"/><ellipse cx=".317" cy="8.306" rx="1" ry="1"/><ellipse cx="2.29" cy="8.306" rx="1" ry="1"/><ellipse cx="4.263" cy="8.306" rx="1" ry="1"/><ellipse cx="6.236" cy="8.306" rx="1" ry="1"/><ellipse cx="8.209" cy="8.306" rx="1" ry="1"/><ellipse cx="10.182" cy="8.306" rx="1" ry="1"/><ellipse cx="12.155" cy="8.306" rx="1" ry="1"/><ellipse cx=".317" cy="9.902" rx="1" ry="1"/><ellipse cx="2.29" cy="9.902" rx="1" ry="1"/><ellipse cx="4.263" cy="9.902" rx="1" ry="1"/><ellipse cx="6.236" cy="9.902" rx="1" ry="1"/><ellipse cx="8.209" cy="9.902" rx="1" ry="1"/><ellipse cx="10.182" cy="9.902" rx="1" ry="1"/><ellipse cx="12.155" cy="9.902" rx="1" ry="1"/><ellipse cx="15.067" cy=".313" rx="1" ry="1"/><ellipse cx="17.039" cy=".313" rx="1" ry="1"/><ellipse cx="19.014" cy=".313" rx="1" ry="1"/><ellipse cx="20.985" cy=".313" rx="1" ry="1"/><ellipse cx="22.96" cy=".313" rx="1" ry="1"/><ellipse cx="24.931" cy=".313" rx="1" ry="1"/><ellipse cx="26.904" cy=".313" rx="1" ry="1"/><ellipse cx="15.067" cy="1.912" rx="1" ry="1"/><ellipse cx="17.039" cy="1.912" rx="1" ry="1"/><ellipse cx="19.014" cy="1.912" rx="1" ry="1"/><ellipse cx="20.985" cy="1.912" rx="1" ry="1"/><ellipse cx="22.96" cy="1.912" rx="1" ry="1"/><ellipse cx="24.931" cy="1.912" rx="1" ry="1"/><ellipse cx="26.904" cy="1.912" rx="1" ry="1"/><ellipse cx="15.067" cy="3.51" rx="1" ry="1"/><ellipse cx="17.039" cy="3.51" rx="1" ry="1"/><ellipse cx="19.014" cy="3.51" rx="1" ry="1"/><ellipse cx="20.985" cy="3.51" rx="1" ry="1"/><ellipse cx="22.96" cy="3.51" rx="1" ry="1"/><ellipse cx="24.931" cy="3.51" rx="1" ry="1"/><ellipse cx="26.904" cy="3.51" rx="1" ry="1"/><ellipse cx="15.067" cy="5.109" rx="1" ry="1"/><ellipse cx="17.039" cy="5.109" rx="1" ry="1"/><ellipse cx="19.014" cy="5.109" rx="1" ry="1"/><ellipse cx="20.985" cy="5.109" rx="1" ry="1"/><ellipse cx="22.96" cy="5.109" rx="1" ry="1"/><ellipse cx="24.931" cy="5.109" rx="1" ry="1"/><ellipse cx="26.904" cy="5.109" rx="1" ry="1"/><ellipse cx="15.067" cy="6.708" rx="1" ry="1"/><ellipse cx="17.039" cy="6.708" rx="1" ry="1"/><ellipse cx="19.014" cy="6.708" rx="1" ry="1"/><ellipse cx="20.985" cy="6.708" rx="1" ry="1"/><ellipse cx="22.96" cy="6.708" rx="1" ry="1"/><ellipse cx="24.931" cy="6.708" rx="1" ry="1"/><ellipse cx="26.904" cy="6.708" rx="1" ry="1"/><ellipse cx="15.067" cy="8.306" rx="1" ry="1"/><ellipse cx="17.039" cy="8.306" rx="1" ry="1"/><ellipse cx="19.014" cy="8.306" rx="1" ry="1"/><ellipse cx="20.985" cy="8.306" rx="1" ry="1"/><ellipse cx="22.96" cy="8.306" rx="1" ry="1"/><ellipse cx="24.931" cy="8.306" rx="1" ry="1"/><ellipse cx="26.904" cy="8.306" rx="1" ry="1"/><ellipse cx="15.067" cy="9.902" rx="1" ry="1"/><ellipse cx="17.039" cy="9.902" rx="1" ry="1"/><ellipse cx="19.014" cy="9.902" rx="1" ry="1"/><ellipse cx="20.985" cy="9.902" rx="1" ry="1"/><ellipse cx="22.96" cy="9.902" rx="1" ry="1"/><ellipse cx="24.931" cy="9.902" rx="1" ry="1"/><ellipse cx="26.904" cy="9.902" rx="1" ry="1"/></g><path fill="#58B3D6" d="M28.435 34H5.565L5 28h24z"/><path fill="#4198C4" d="M28.435 34H5.565L5 28h24z"/><path fill="#491D05" d="M9 34H7V19.57L9 19z"/><path fill="#1C0B03" d="M9 19v15H7"/><path fill="#FFD60B" d="M8 27h2v2H8z"/><path fill="#FF8908" d="M10 27v2H8"/><path fill="#FFD60B" d="M8 30h2v2H8z"/><path fill="#FF8908" d="M10 30v2H8"/><path fill="#491D05" d="M26 34h2V19.57L26 19z"/><path fill="#1C0B03" d="M26 19v15h2"/><path fill="#FFD60B" d="M26 27h2v2h-2z"/><path fill="#FF8908" d="M26 27v2h2"/><path fill="#FFD60B" d="M26 30h2v2h-2z"/><path fill="#FF8908" d="M26 30v2h2"/><g transform="translate(17 20)" fill="#B23A10"><ellipse cx=".469" cy="5.86" rx="1" ry="1"/><ellipse cx=".469" cy="3.148" rx="1" ry="1"/><ellipse cx=".469" cy=".434" rx="1" ry="1"/></g><path d="M13.407 31.143v-5.42c.35-.233.593-.755.593-1.363 0-.605-.242-1.125-.588-1.36l-.095 1.392h-.635L12.588 23c-.346.234-.588.754-.588 1.36 0 .607.243 1.13.592 1.362v5.42c-.348.234-.592.756-.592 1.364 0 .824.448 1.493 1 1.493.553 0 1-.669 1-1.493 0-.608-.244-1.13-.593-1.364zm.083 1.667l-.287.428h-.406l-.287-.43v-.605l.287-.428h.406l.287.428v.607z" fill="#CCD9DB"/><path d="M12 24.36c0 .608.243 1.13.592 1.363v5.42c-.348.234-.592.756-.592 1.364 0 .824.448 1.493 1 1.493.553 0 1-.669 1-1.493 0-.608-.243-1.13-.593-1.364v-5.42c.35-.233.593-.755.593-1.363 0-.605-.241-1.125-.588-1.36l-.094 1.392h-.635L12.589 23 12 24.36zm1.49 8.45l-.287.428h-.405l-.287-.43-.001-.605.288-.428h.405l.287.428v.607z" fill="#BCCCCE"/><path d="M14.1 31v-5.324c.53-.23.9-.742.9-1.34 0-.594-.366-1.105-.892-1.336l-.144 1.367H13" fill="#AABEBF"/><path fill="#BCCCCE" d="M15 24l-.999.5L13 24"/><path d="M14.274 31.228l-.637.235-.634-.235m3.304-3.118v3.911c-.41.168-.697.545-.697.984 0 .436.283.811.69.981l.112-1.004h.748l.11 1.003c.409-.169.693-.544.693-.98 0-.44-.287-.816-.698-.983V28.11c.41-.168.698-.545.698-.983 0-.594-.527-1.077-1.176-1.077-.65-.001-1.176.481-1.176 1.077-.001.438.286.815.696.983zm-.097-1.202l.337-.309h.477l.338.31v.437l-.338.309h-.477l-.337-.309v-.438z" fill="#CCD9DB"/><path d="M17 33.01a1.09 1.09 0 0 0-.593-.99v-3.943c.35-.17.593-.55.593-.99 0-.6-.448-1.087-1-1.087s-.999.486-.999 1.086a1.09 1.09 0 0 0 .592.991v3.942c-.349.17-.593.55-.593.991 0 .441.241.819.587.99l.095-1.012h.636l.094 1.011.588-.989zm-1.489-6.145l.287-.312h.405l.287.313v.44l-.287.311h-.405l-.287-.31v-.442z" fill="#BCCCCE"/><path d="M15.9 28v3.993c-.529.172-.9.557-.9 1.005 0 .446.366.829.891 1.002l.144-1.026H17" fill="#AABEBF"/><path fill="#BCCCCE" d="M16 32.5l.5-.5.5.5"/><path fill="#CCD9DB" d="M16 28.5l.5-.5.5.5"/><path fill="#4198C4" d="M12 29h6v5h-6z"/><g fill="#6DCBE8"><path d="M23.175 29.35c0 .147-.107.265-.24.265h-11.66c-.132 0-.239-.118-.239-.265 0-.145.107-.264.239-.264h11.66c.133 0 .24.118.24.264z"/><path d="M11.561 33.954c-.131 0-.238-.042-.238-.096v-4.726c0-.054.107-.097.238-.097.132 0 .24.043.24.097v4.726c0 .053-.107.096-.24.096zm11.089 0c-.132 0-.24-.042-.24-.096v-4.726c0-.054.108-.097.24-.097.131 0 .238.043.238.097v4.726c0 .053-.107.096-.238.096z"/></g></g></svg>