<svg width="20" height="20" viewBox="0 0 20 20" xmlns="http://www.w3.org/2000/svg"><title>003-map</title><g fill="none"><circle fill="#45B39C" cx="10" cy="10" r="10"/><path d="M19.65 12.614l-7.322-7.318A3.101 3.101 0 0 0 9.964 4.21a3.116 3.116 0 0 0-3.117 3.115c0 .94.93 2.422 1.774 3.574h-3l-.887 3.029-.337 1.152-.186.631 4.16 4.161c.52.083 1.05.127 1.593.127 4.627 0 8.521-3.13 9.685-7.386z" fill="#000" opacity=".1"/><path fill="#44C4A1" d="M15.263 14.21l-.966-3.333h-.871l-2.724 1.276z"/><path fill="#EBF0F3" d="M5.617 10.877l-.88 2.983 6.842-2.983z"/><path fill="#64798A" d="M4.394 15l-.183.614h11.403l-.07-.235-5.94-2.747z"/><path fill="#FCD462" d="M10.608 12.166l2.78-1.289H11.61L4.723 13.9l-.337 1.149 5.246-2.431 5.982 2.82-.35-1.195z"/><path d="M6.842 7.343c0 1.73 3.158 5.289 3.158 5.289V4.21c-1.744 0-3.158 1.402-3.158 3.132z" fill="#E56353"/><path d="M10 4.21v8.422s3.158-3.56 3.158-5.29S11.744 4.211 10 4.211z" fill="#D15241"/><circle fill="#EBF0F3" cx="9.912" cy="7.281" r="2.018"/></g></svg>