<?xml version="1.0" encoding="UTF-8"?>
<svg width="100px" height="100px" viewBox="0 0 100 100" version="1.1" xmlns="http://www.w3.org/2000/svg" xmlns:xlink="http://www.w3.org/1999/xlink">
    <!-- Generator: Sketch 46 (44423) - http://www.bohemiancoding.com/sketch -->
    <title>Marker</title>
    <desc>Created with Sketch.</desc>
    <defs></defs>
    <g id="Page-1" stroke="none" stroke-width="1" fill="none" fill-rule="evenodd">
        <g id="SVG" transform="translate(-40.000000, -157.000000)">
            <g id="Marker" transform="translate(40.000000, 157.000000)">
                <polygon id="Triangle" fill="#444444" points="50 100 0 1.42108547e-14 100 0"></polygon>
                <g id="mechanic" transform="translate(33.000000, 25.000000)" fill-rule="nonzero">
                    <g id="Group" transform="translate(2.000000, 18.000000)" fill="#00233F">
                        <polygon id="Shape" points="19.409434 0.0219911894 28.0250943 4.98692511 29.9643396 15.9515066 15.5111321 15.9515066"></polygon>
                        <polygon id="Shape" points="10.5996226 0.0219911894 1.98396226 4.98692511 0.0447169811 15.9515066 14.4973585 15.9515066"></polygon>
                    </g>
                    <polygon id="Shape" fill="#F9BDA0" points="22 19 13 19 13.599642 13 21.3997613 13"></polygon>
                    <polygon id="Shape" fill="#E28F71" points="22 19 17.4850835 19 13 13 21.3997613 13"></polygon>
                    <path d="M23,7.1788771 C23,12.3347484 20.369403,17 17,17 C13.6294187,17 11,12.3347484 11,7.1788771 C11,2.02242383 13.6294187,0 17,0 C20.369403,1.35689702e-15 23,2.02242383 23,7.1788771 Z" id="Shape" fill="#FCCCB9"></path>
                    <path d="M17,2 C20.369403,2 23,2.81312018 23,7.69735391 C23,12.5810364 20.369403,17 17,17" id="Shape" fill="#F9BDA0"></path>
                    <polygon id="Shape" fill="#FFD60B" points="33.3332507 21.7243189 24.6196729 18.6765557 24.8139247 18.1276152 22.1631979 17.0125799 17.5792038 19.8745039 12.9957879 17 10.3439049 18.0967373 10.5202346 18.5644803 1.66674926 21.7248907 0 34 13.5479022 34 16.9819954 34 18.0180046 34 21.6122398 34 35 34"></polygon>
                    <polyline id="Shape" fill="#FFBE06" points="5.60972432 34 17.1342436 34 18.1614988 34 21.7253635 34 35 34 33.3473344 21.7243189 24.7073844 18.6765557 24.8999948 18.1276152 22.2716661 17.0125799 17.7264058 19.8745039 13.1817187 17 17.7344312 19.8739321 10.7270832 18.5644803 2 21.7248907"></polyline>
                    <polyline id="Shape" fill="#FF8908" points="17 34 18.0913975 34 21.6700991 34 35 34 33.3404541 21.7152282 24.6645347 18.665208 24.8579469 18.115861 22.218676 17 17.6544931 19.8640434"></polyline>
                    <polyline id="Shape" fill="#DD6105" points="29 34 35 34 33.3156767 22"></polyline>
                    <path d="M15.132,14.188 C15.048,14.076 15,14 15,14 C15,14 15.032,14.108 15.132,14.188 Z" id="Shape" fill="#7C4615"></path>
                    <path d="M17,12.0068048 C16.5847176,11.9738522 15.9684385,12.0291877 15.5780731,12.8971476 C15.1644518,13.8142256 15.0373754,13.8229301 15,13.7800295 C15.0602159,13.8944311 15.3243355,14.2730755 15.9925249,13.6563017 C16.470515,13.2154825 17,13.15766 17,13.1763124 L17,12.0068048 L17,12.0068048 Z" id="Shape" fill="#C45022"></path>
                    <path d="M20,14.188 C20.084,14.076 20.132,14 20.132,14 C20.132,14 20.092,14.108 20,14.188 Z" id="Shape" fill="#7C4615"></path>
                    <g id="Group" transform="translate(17.000000, 5.000000)" fill="#B23A10">
                        <path d="M2.06055914,8.14159527 C2.66030108,8.98910908 2.84516129,8.99715328 2.89935484,8.95750687 C2.81204301,9.06323063 2.42726882,9.41315328 1.4596129,8.84316433 C0.766537634,8.43578311 2.13926845e-15,8.38234665 2.13926845e-15,8.39958422 L2.13926845e-15,7.31878864 C0.602150538,7.2883356 1.49453763,7.33947372 2.06055914,8.14159527 Z" id="Shape"></path>
                        <path d="M5.26580645,0.119513812 C5.26580645,0.119513812 4.7636129,1.5559779 5.46572043,2.41785635 C5.46572043,2.41785635 5.66683871,2.51381215 5.71741935,2.94475138 C5.7667957,3.37569061 5.88,4.63230939 5.35311828,7.07429834 C5.17909677,7.88331492 4.06150538,10.0788066 2.65608602,9.31288398 L2.26227957,9.45653039 C2.26227957,9.45653039 2.42064516,11.3245083 0.0120430108,11.2762431 L0.0120430108,12.9517348 C0.0120430108,12.9517348 2.66331183,13.1907624 4.46976344,10.7970387 C6.27621505,8.40331492 6.42313978,5.0040663 6.37255914,3.08839779 C6.3231828,1.17272928 7.22339785,1.12446409 6.82236559,0.454497238 C6.42133333,-0.215469613 5.26580645,0.119513812 5.26580645,0.119513812 Z" id="Shape"></path>
                    </g>
                    <path d="M12.5389806,5.00004597 C12.5389806,5.00004597 13.0609852,6.45453565 12.3299284,7.32722946 C12.3299284,7.32722946 12.1208762,7.42438937 12.069552,7.86073627 C12.016976,8.29708317 11.8999318,9.56947074 12.4475985,12.0421032 C12.6297368,12.8612718 13.7901643,15.0843138 15.2510261,14.3087799 L15.6609937,14.4542289 C15.6609937,14.4542289 15.4963808,16.3456473 18,16.2967764 L18,17.9932932 C18,17.9932932 15.2428893,18.2353202 13.3651749,15.8115586 C11.4874605,13.387797 11.3366175,9.94589267 11.3879416,8.00618524 C11.4405177,6.06647781 10.7125904,6.33875827 11.129443,5.66038429 C11.5462956,4.9820103 12.5389806,5.00004597 12.5389806,5.00004597 Z" id="Shape" fill="#C45022"></path>
                    <path d="M17,7.28592139 C17,8.23308634 15.9657513,9 14.6926874,9 C13.4165381,9 13,8.23308634 13,7.28592139 C13,6.33875644 13.4165381,6 14.6926874,6 C15.9657513,6 17,6.33875644 17,7.28592139 Z" id="Shape" fill="#BCD3CF"></path>
                    <path d="M14.7337609,10 C13.6158781,10 13,9.20255272 13,7.75416204 C13,6.49167592 13.4859663,6 14.7337609,6 C16.1740175,6 16.9999998,6.63928968 16.9999998,7.75416204 C17.0005344,8.99278579 15.983694,10 14.7337609,10 Z M14.7337609,6.55493896 C13.7923015,6.55493896 13.5346164,6.81243063 13.5346164,7.75416204 C13.5346164,9.44506104 14.4370488,9.44506104 14.7337609,9.44506104 C15.6885858,9.44506104 16.4653834,8.68645949 16.4653834,7.75416204 C16.465918,6.95837958 15.8831862,6.55493896 14.7337609,6.55493896 Z" id="Shape" fill="#472108"></path>
                    <path d="M12.6666667,9 L11.3333333,9 C11.1493333,9 11,8.776 11,8.5 C11,8.224 11.1493333,8 11.3333333,8 L12.6666667,8 C12.8506667,8 13,8.224 13,8.5 C13,8.776 12.8506667,9 12.6666667,9 Z" id="Shape" fill="#472108"></path>
                    <path d="M18,7.28592139 C18,8.23308634 19.0336316,9 20.3085467,9 C21.5828448,9 22,8.23308634 22,7.28592139 C22,6.33875644 21.5834619,6 20.3085467,6 C19.0336316,6 18,6.33875644 18,7.28592139 Z" id="Shape" fill="#BCD3CF"></path>
                    <path d="M20.267308,10 C19.0173749,10 18,8.99278579 18,7.75416204 C18,6.63928968 18.8265169,6 20.267308,6 C21.4979949,6 21.9999997,6.50832408 21.9999997,7.75416204 C22.0005343,9.20255272 21.3851908,10 20.267308,10 Z M20.267308,6.55493896 C19.1173482,6.55493896 18.5346164,6.95837958 18.5346164,7.75416204 C18.5346164,8.68645949 19.3119486,9.44506104 20.267308,9.44506104 C20.5634855,9.44506104 21.4653833,9.44506104 21.4653833,7.75416204 C21.4659179,6.81243063 21.2082328,6.55493896 20.267308,6.55493896 Z" id="Shape" fill="#472108"></path>
                    <g id="Group" transform="translate(16.000000, 7.000000)" fill="#472108">
                        <path d="M6.64818276,1.28505263 L5.48515057,1.28505263 C5.32465213,1.28505263 5.19439252,1.15929825 5.19439252,1.00435088 C5.19439252,0.849403509 5.32465213,0.723649123 5.48515057,0.723649123 L6.64818276,0.723649123 C6.8086812,0.723649123 6.93894081,0.849403509 6.93894081,1.00435088 C6.93894081,1.15929825 6.8086812,1.28505263 6.64818276,1.28505263 Z" id="Shape"></path>
                        <path d="M1.75734164,1.26933333 C1.5968432,1.26933333 1.46658359,1.14357895 1.46658359,0.988631579 C1.46658359,0.753403509 1.2682866,0.561403509 1.02404984,0.561403509 C0.779813084,0.561403509 0.581516096,0.752842105 0.581516096,0.988631579 C0.581516096,1.14357895 0.45125649,1.26933333 0.290758048,1.26933333 C0.130259605,1.26933333 0,1.14357895 0,0.988631579 C0,0.443508772 0.459397715,0 1.02404984,0 C1.58870197,0 2.04809969,0.443508772 2.04809969,0.988631579 C2.04809969,1.14357895 1.9184216,1.26933333 1.75734164,1.26933333 Z" id="Shape"></path>
                    </g>
                    <g id="Group" transform="translate(4.000000, 21.000000)" fill="#FFD60B">
                        <ellipse id="Oval" cx="0.31681658" cy="0.312879699" rx="1" ry="1"></ellipse>
                        <ellipse id="Oval" cx="2.28987358" cy="0.312879699" rx="1" ry="1"></ellipse>
                        <ellipse id="Oval" cx="4.26293057" cy="0.312879699" rx="1" ry="1"></ellipse>
                        <ellipse id="Oval" cx="6.23598756" cy="0.312879699" rx="1" ry="1"></ellipse>
                        <ellipse id="Oval" cx="8.20904456" cy="0.312879699" rx="1" ry="1"></ellipse>
                        <ellipse id="Oval" cx="10.1821016" cy="0.312879699" rx="1" ry="1"></ellipse>
                        <ellipse id="Oval" cx="12.1551585" cy="0.312879699" rx="1" ry="1"></ellipse>
                        <ellipse id="Oval" cx="0.31681658" cy="1.91168421" rx="1" ry="1"></ellipse>
                        <ellipse id="Oval" cx="2.28987358" cy="1.91168421" rx="1" ry="1"></ellipse>
                        <ellipse id="Oval" cx="4.26293057" cy="1.91168421" rx="1" ry="1"></ellipse>
                        <ellipse id="Oval" cx="6.23598756" cy="1.91168421" rx="1" ry="1"></ellipse>
                        <ellipse id="Oval" cx="8.20904456" cy="1.91168421" rx="1" ry="1"></ellipse>
                        <ellipse id="Oval" cx="10.1821016" cy="1.91168421" rx="1" ry="1"></ellipse>
                        <ellipse id="Oval" cx="12.1551585" cy="1.91168421" rx="1" ry="1"></ellipse>
                        <ellipse id="Oval" cx="0.31681658" cy="3.50995113" rx="1" ry="1"></ellipse>
                        <ellipse id="Oval" cx="2.28987358" cy="3.50995113" rx="1" ry="1"></ellipse>
                        <ellipse id="Oval" cx="4.26293057" cy="3.50995113" rx="1" ry="1"></ellipse>
                        <ellipse id="Oval" cx="6.23598756" cy="3.50995113" rx="1" ry="1"></ellipse>
                        <ellipse id="Oval" cx="8.20904456" cy="3.50995113" rx="1" ry="1"></ellipse>
                        <ellipse id="Oval" cx="10.1821016" cy="3.50995113" rx="1" ry="1"></ellipse>
                        <ellipse id="Oval" cx="12.1551585" cy="3.50995113" rx="1" ry="1"></ellipse>
                        <ellipse id="Oval" cx="0.31681658" cy="5.10875564" rx="1" ry="1"></ellipse>
                        <ellipse id="Oval" cx="2.28987358" cy="5.10875564" rx="1" ry="1"></ellipse>
                        <ellipse id="Oval" cx="4.26293057" cy="5.10875564" rx="1" ry="1"></ellipse>
                        <ellipse id="Oval" cx="6.23598756" cy="5.10875564" rx="1" ry="1"></ellipse>
                        <ellipse id="Oval" cx="8.20904456" cy="5.10875564" rx="1" ry="1"></ellipse>
                        <ellipse id="Oval" cx="10.1821016" cy="5.10875564" rx="1" ry="1"></ellipse>
                        <ellipse id="Oval" cx="12.1551585" cy="5.10875564" rx="1" ry="1"></ellipse>
                        <ellipse id="Oval" cx="0.31681658" cy="6.70756015" rx="1" ry="1"></ellipse>
                        <ellipse id="Oval" cx="2.28987358" cy="6.70756015" rx="1" ry="1"></ellipse>
                        <ellipse id="Oval" cx="4.26293057" cy="6.70756015" rx="1" ry="1"></ellipse>
                        <ellipse id="Oval" cx="6.23598756" cy="6.70756015" rx="1" ry="1"></ellipse>
                        <ellipse id="Oval" cx="8.20904456" cy="6.70756015" rx="1" ry="1"></ellipse>
                        <ellipse id="Oval" cx="10.1821016" cy="6.70756015" rx="1" ry="1"></ellipse>
                        <ellipse id="Oval" cx="12.1551585" cy="6.70756015" rx="1" ry="1"></ellipse>
                        <ellipse id="Oval" cx="0.31681658" cy="8.30582707" rx="1" ry="1"></ellipse>
                        <ellipse id="Oval" cx="2.28987358" cy="8.30582707" rx="1" ry="1"></ellipse>
                        <ellipse id="Oval" cx="4.26293057" cy="8.30582707" rx="1" ry="1"></ellipse>
                        <ellipse id="Oval" cx="6.23598756" cy="8.30582707" rx="1" ry="1"></ellipse>
                        <ellipse id="Oval" cx="8.20904456" cy="8.30582707" rx="1" ry="1"></ellipse>
                        <ellipse id="Oval" cx="10.1821016" cy="8.30582707" rx="1" ry="1"></ellipse>
                        <ellipse id="Oval" cx="12.1551585" cy="8.30582707" rx="1" ry="1"></ellipse>
                        <ellipse id="Oval" cx="0.31681658" cy="9.90194361" rx="1" ry="1"></ellipse>
                        <ellipse id="Oval" cx="2.28987358" cy="9.90194361" rx="1" ry="1"></ellipse>
                        <ellipse id="Oval" cx="4.26293057" cy="9.90194361" rx="1" ry="1"></ellipse>
                        <ellipse id="Oval" cx="6.23598756" cy="9.90194361" rx="1" ry="1"></ellipse>
                        <ellipse id="Oval" cx="8.20904456" cy="9.90194361" rx="1" ry="1"></ellipse>
                        <ellipse id="Oval" cx="10.1821016" cy="9.90194361" rx="1" ry="1"></ellipse>
                        <ellipse id="Oval" cx="12.1551585" cy="9.90194361" rx="1" ry="1"></ellipse>
                        <ellipse id="Oval" cx="15.0673907" cy="0.312879699" rx="1" ry="1"></ellipse>
                        <ellipse id="Oval" cx="17.0387565" cy="0.312879699" rx="1" ry="1"></ellipse>
                        <ellipse id="Oval" cx="19.0135047" cy="0.312879699" rx="1" ry="1"></ellipse>
                        <ellipse id="Oval" cx="20.9848705" cy="0.312879699" rx="1" ry="1"></ellipse>
                        <ellipse id="Oval" cx="22.9596187" cy="0.312879699" rx="1" ry="1"></ellipse>
                        <ellipse id="Oval" cx="24.9309845" cy="0.312879699" rx="1" ry="1"></ellipse>
                        <ellipse id="Oval" cx="26.9040415" cy="0.312879699" rx="1" ry="1"></ellipse>
                        <ellipse id="Oval" cx="15.0673907" cy="1.91168421" rx="1" ry="1"></ellipse>
                        <ellipse id="Oval" cx="17.0387565" cy="1.91168421" rx="1" ry="1"></ellipse>
                        <ellipse id="Oval" cx="19.0135047" cy="1.91168421" rx="1" ry="1"></ellipse>
                        <ellipse id="Oval" cx="20.9848705" cy="1.91168421" rx="1" ry="1"></ellipse>
                        <ellipse id="Oval" cx="22.9596187" cy="1.91168421" rx="1" ry="1"></ellipse>
                        <ellipse id="Oval" cx="24.9309845" cy="1.91168421" rx="1" ry="1"></ellipse>
                        <ellipse id="Oval" cx="26.9040415" cy="1.91168421" rx="1" ry="1"></ellipse>
                        <ellipse id="Oval" cx="15.0673907" cy="3.50995113" rx="1" ry="1"></ellipse>
                        <ellipse id="Oval" cx="17.0387565" cy="3.50995113" rx="1" ry="1"></ellipse>
                        <ellipse id="Oval" cx="19.0135047" cy="3.50995113" rx="1" ry="1"></ellipse>
                        <ellipse id="Oval" cx="20.9848705" cy="3.50995113" rx="1" ry="1"></ellipse>
                        <ellipse id="Oval" cx="22.9596187" cy="3.50995113" rx="1" ry="1"></ellipse>
                        <ellipse id="Oval" cx="24.9309845" cy="3.50995113" rx="1" ry="1"></ellipse>
                        <ellipse id="Oval" cx="26.9040415" cy="3.50995113" rx="1" ry="1"></ellipse>
                        <ellipse id="Oval" cx="15.0673907" cy="5.10875564" rx="1" ry="1"></ellipse>
                        <ellipse id="Oval" cx="17.0387565" cy="5.10875564" rx="1" ry="1"></ellipse>
                        <ellipse id="Oval" cx="19.0135047" cy="5.10875564" rx="1" ry="1"></ellipse>
                        <ellipse id="Oval" cx="20.9848705" cy="5.10875564" rx="1" ry="1"></ellipse>
                        <ellipse id="Oval" cx="22.9596187" cy="5.10875564" rx="1" ry="1"></ellipse>
                        <ellipse id="Oval" cx="24.9309845" cy="5.10875564" rx="1" ry="1"></ellipse>
                        <ellipse id="Oval" cx="26.9040415" cy="5.10875564" rx="1" ry="1"></ellipse>
                        <ellipse id="Oval" cx="15.0673907" cy="6.70756015" rx="1" ry="1"></ellipse>
                        <ellipse id="Oval" cx="17.0387565" cy="6.70756015" rx="1" ry="1"></ellipse>
                        <ellipse id="Oval" cx="19.0135047" cy="6.70756015" rx="1" ry="1"></ellipse>
                        <ellipse id="Oval" cx="20.9848705" cy="6.70756015" rx="1" ry="1"></ellipse>
                        <ellipse id="Oval" cx="22.9596187" cy="6.70756015" rx="1" ry="1"></ellipse>
                        <ellipse id="Oval" cx="24.9309845" cy="6.70756015" rx="1" ry="1"></ellipse>
                        <ellipse id="Oval" cx="26.9040415" cy="6.70756015" rx="1" ry="1"></ellipse>
                        <ellipse id="Oval" cx="15.0673907" cy="8.30582707" rx="1" ry="1"></ellipse>
                        <ellipse id="Oval" cx="17.0387565" cy="8.30582707" rx="1" ry="1"></ellipse>
                        <ellipse id="Oval" cx="19.0135047" cy="8.30582707" rx="1" ry="1"></ellipse>
                        <ellipse id="Oval" cx="20.9848705" cy="8.30582707" rx="1" ry="1"></ellipse>
                        <ellipse id="Oval" cx="22.9596187" cy="8.30582707" rx="1" ry="1"></ellipse>
                        <ellipse id="Oval" cx="24.9309845" cy="8.30582707" rx="1" ry="1"></ellipse>
                        <ellipse id="Oval" cx="26.9040415" cy="8.30582707" rx="1" ry="1"></ellipse>
                        <ellipse id="Oval" cx="15.0673907" cy="9.90194361" rx="1" ry="1"></ellipse>
                        <ellipse id="Oval" cx="17.0387565" cy="9.90194361" rx="1" ry="1"></ellipse>
                        <ellipse id="Oval" cx="19.0135047" cy="9.90194361" rx="1" ry="1"></ellipse>
                        <ellipse id="Oval" cx="20.9848705" cy="9.90194361" rx="1" ry="1"></ellipse>
                        <ellipse id="Oval" cx="22.9596187" cy="9.90194361" rx="1" ry="1"></ellipse>
                        <ellipse id="Oval" cx="24.9309845" cy="9.90194361" rx="1" ry="1"></ellipse>
                        <ellipse id="Oval" cx="26.9040415" cy="9.90194361" rx="1" ry="1"></ellipse>
                    </g>
                    <polygon id="Shape" fill="#58B3D6" points="28.4352941 34 5.56470588 34 5 28 29 28"></polygon>
                    <polygon id="Shape" fill="#4198C4" points="28.4352941 34 5.56470588 34 5 28 29 28"></polygon>
                    <polygon id="Shape" fill="#491D05" points="9 34 7 34 7 19.5702928 9 19"></polygon>
                    <polyline id="Shape" fill="#1C0B03" points="9 19 9 34 7 34"></polyline>
                    <rect id="Rectangle-path" fill="#FFD60B" x="8" y="27" width="2" height="2"></rect>
                    <polyline id="Shape" fill="#FF8908" points="10 27 10 29 8 29"></polyline>
                    <rect id="Rectangle-path" fill="#FFD60B" x="8" y="30" width="2" height="2"></rect>
                    <polyline id="Shape" fill="#FF8908" points="10 30 10 32 8 32"></polyline>
                    <polygon id="Shape" fill="#491D05" points="26 34 28 34 28 19.5702928 26 19"></polygon>
                    <polyline id="Shape" fill="#1C0B03" points="26 19 26 34 28 34"></polyline>
                    <rect id="Rectangle-path" fill="#FFD60B" x="26" y="27" width="2" height="2"></rect>
                    <polyline id="Shape" fill="#FF8908" points="26 27 26 29 28 29"></polyline>
                    <rect id="Rectangle-path" fill="#FFD60B" x="26" y="30" width="2" height="2"></rect>
                    <polyline id="Shape" fill="#FF8908" points="26 30 26 32 28 32"></polyline>
                    <g id="Group" transform="translate(17.000000, 20.000000)" fill="#B23A10">
                        <ellipse id="Oval" cx="0.469090909" cy="5.8598863" rx="1" ry="1"></ellipse>
                        <ellipse id="Oval" cx="0.469090909" cy="3.14815504" rx="1" ry="1"></ellipse>
                        <ellipse id="Oval" cx="0.469090909" cy="0.433529716" rx="1" ry="1"></ellipse>
                    </g>
                    <path d="M13.4068723,31.1433947 L13.4068723,25.7236039 C13.7563452,25.4902688 13.9996095,24.9681815 13.9996095,24.3603436 C13.9996095,23.754839 13.7582975,23.2350851 13.4119485,23 L13.3174541,24.3918438 L12.6821554,24.3918438 L12.588442,23.0005833 C12.2417025,23.2350851 12,23.7554224 12,24.3603436 C12,24.9681815 12.2432643,25.4902688 12.5923467,25.7230205 L12.5923467,31.1433947 C12.2436548,31.3767298 12,31.8988171 12,32.506655 C12,33.3309112 12.4478719,33.9999996 13,33.9999996 C13.5525185,34.000583 14,33.3314946 14,32.506655 C13.9992191,31.8988171 13.7563452,31.3767298 13.4068723,31.1433947 Z M13.4896525,32.8099906 L13.2030457,33.2381605 L12.7973448,33.2375772 L12.5103475,32.808824 L12.5095666,32.2033194 L12.7973448,31.7751495 L13.2030457,31.7745662 L13.4896525,32.2027361 L13.4896525,32.8099906 L13.4896525,32.8099906 Z" id="Shape" fill="#CCD9DB"></path>
                    <path d="M12,24.3603436 C12,24.9681815 12.2432643,25.4902688 12.5923467,25.7230205 L12.5923467,31.1433947 C12.2436548,31.3767298 12,31.8988171 12,32.506655 C12,33.3309112 12.4478719,33.9999996 13,33.9999996 C13.5525185,34.000583 14,33.3314946 14,32.506655 C14,31.8988171 13.7571261,31.3767298 13.4072628,31.1433947 L13.4072628,25.7236039 C13.7567357,25.4902688 14,24.9681815 14,24.3603436 C14,23.754839 13.758688,23.2350851 13.4123389,23 L13.3178446,24.3918438 L12.6825459,24.3918438 L12.5888325,23.0005833 L12,24.3603436 Z M13.490043,32.8099906 L13.2034362,33.2381605 L12.7977353,33.2375772 L12.510738,32.808824 L12.509957,32.2033194 L12.7977353,31.7751495 L13.2034362,31.7745662 L13.490043,32.2027361 L13.490043,32.8099906 L13.490043,32.8099906 Z" id="Shape" fill="#BCCCCE"></path>
                    <path d="M14.1001778,31 L14.1001778,25.6756447 C14.6307054,25.4464183 15,24.9335244 15,24.3363897 C15,23.7415473 14.6336692,23.2309456 14.1078838,23 L13.9644339,24.3673352 L13,24.3673352" id="Shape" fill="#AABEBF"></path>
                    <polyline id="Shape" fill="#BCCCCE" points="15 24 14.000999 24.5 13 24"></polyline>
                    <g id="Group" transform="translate(13.000000, 26.000000)" fill="#CCD9DB">
                        <polyline id="Shape" points="1.27365079 5.22763636 0.637460317 5.46293048 0.00253968254 5.22763636"></polyline>
                        <path d="M3.30666667,2.11083636 L3.30666667,6.02123636 C2.89714286,6.18938182 2.60952381,6.5664 2.60952381,7.00450909 C2.60952381,7.44145455 2.89333333,7.81614545 3.30031746,7.98603636 L3.41206349,6.98181818 L4.16,6.98181818 L4.27047619,7.98545455 C4.67873016,7.81614545 4.96253968,7.44087273 4.96253968,7.00450909 C4.96253968,6.56581818 4.67619048,6.18938182 4.26539683,6.02181818 L4.26539683,2.11083636 C4.67555556,1.94269091 4.96253968,1.56567273 4.96253968,1.12814545 C4.96253968,0.533527273 4.43555556,0.0506181818 3.78666667,0.0506181818 C3.13650794,0.0500363636 2.61079365,0.532363636 2.61079365,1.12814545 C2.60952381,1.56567273 2.89650794,1.94269091 3.30666667,2.11083636 Z M3.21015873,0.908218182 L3.54730159,0.599272727 L4.02412698,0.599854545 L4.36190476,0.909381818 L4.36190476,1.34574545 L4.02412698,1.65469091 L3.54730159,1.65527273 L3.21015873,1.34632727 L3.21015873,0.908218182 Z" id="Shape"></path>
                    </g>
                    <path d="M17,33.0104847 C17,32.5682236 16.7566109,32.1887236 16.4074474,32.0197963 L16.4074474,28.0769855 C16.7560712,27.9074716 17,27.5273851 17,27.0862971 C17,26.4868397 16.5520777,26.0000005 16.0005397,26.0000005 C15.4479223,25.999414 15.0010793,26.4856666 15.0010793,27.0862971 C15,27.5279717 15.2433891,27.9074716 15.5925526,28.0769855 L15.5925526,32.0192098 C15.2444684,32.1887236 15,32.5688101 15,33.0104847 C15,33.4509862 15.2412304,33.8287265 15.587156,34 L15.6821371,32.9876091 L16.3178629,32.9876091 L16.4117647,33.9994134 L17,33.0104847 Z M15.5110631,26.86458 L15.7976255,26.5531202 L16.2029142,26.5537068 L16.4900162,26.8657531 L16.4900162,27.305668 L16.2029142,27.6171278 L15.7976255,27.6177143 L15.5110631,27.3062546 L15.5110631,26.86458 Z" id="Shape" fill="#BCCCCE"></path>
                    <path d="M15.8992629,28 L15.8992629,31.9934641 C15.3710074,32.1651812 15,32.550208 15,32.9976233 C15,33.4438503 15.3660934,33.8265003 15.8910729,34 L16.035217,32.9744504 L17,32.9744504" id="Shape" fill="#AABEBF"></path>
                    <polyline id="Shape" fill="#BCCCCE" points="16 32.5 16.4993094 32 17 32.5"></polyline>
                    <polyline id="Shape" fill="#CCD9DB" points="16 28.5 16.5006906 28 17 28.5"></polyline>
                    <rect id="Rectangle-path" fill="#4198C4" x="12" y="29" width="6" height="5"></rect>
                    <g id="Group" transform="translate(11.000000, 29.000000)" fill="#6DCBE8">
                        <path d="M12.1754559,0.35047619 C12.1754559,0.496507937 12.0676324,0.615238095 11.9357206,0.615238095 L0.274720588,0.615238095 C0.142808824,0.615238095 0.0361323529,0.496507937 0.0361323529,0.35047619 L0.0361323529,0.35047619 C0.0361323529,0.205079365 0.142808824,0.0863492063 0.274720588,0.0863492063 L11.9357206,0.0863492063 C12.0682059,0.0863492063 12.1754559,0.204444444 12.1754559,0.35047619 L12.1754559,0.35047619 Z" id="Shape"></path>
                        <path d="M0.561485294,4.95428571 C0.429573529,4.95428571 0.322897059,4.91174603 0.322897059,4.8584127 L0.322897059,0.132063492 C0.322897059,0.0780952381 0.429573529,0.0349206349 0.561485294,0.0349206349 L0.561485294,0.0349206349 C0.693397059,0.0349206349 0.800073529,0.0780952381 0.800073529,0.132063492 L0.800073529,4.8584127 C0.800073529,4.91111111 0.693970588,4.95428571 0.561485294,4.95428571 L0.561485294,4.95428571 Z" id="Shape"></path>
                        <path d="M11.6495294,4.95428571 C11.5176176,4.95428571 11.4109412,4.91174603 11.4109412,4.8584127 L11.4109412,0.132063492 C11.4109412,0.0780952381 11.5176176,0.0349206349 11.6495294,0.0349206349 L11.6495294,0.0349206349 C11.7814412,0.0349206349 11.8881176,0.0780952381 11.8881176,0.132063492 L11.8881176,4.8584127 C11.8881176,4.91111111 11.7814412,4.95428571 11.6495294,4.95428571 L11.6495294,4.95428571 Z" id="Shape"></path>
                    </g>
                </g>
                <text id="Mr.fix" font-family="MrRobot" font-size="12" font-weight="normal" fill="#D0021B">
                    <tspan x="29.3066406" y="23">Mr.fix</tspan>
                </text>
            </g>
        </g>
    </g>
</svg>