<svg id="Слой_1" data-name="Слой 1" xmlns="http://www.w3.org/2000/svg" viewBox="0 0 110 19.91"><defs><style>.cls-1{fill:#edf2fa}.cls-2{fill:#6eb2e1}</style></defs><title>meizu</title><path class="cls-1" d="M884.59-2190v-.1h18.16v.08h-18.16zM925.23-2190v-.08h3.59c.26 0 .31.05.31.31v9H929v-.47-8.29c0-.31-.07-.42-.4-.42-1.1-.05-2.24-.05-3.37-.05zM871.87-2190.05v.09h-9.17v-.07z" transform="translate(-819.13 2190.06)"/><path class="cls-2" d="M835.37-2178.47v7.87c0 .37-.11.46-.46.45h-3c-.37 0-.45-.11-.45-.46v-15.61c0-.56 0-.56-.55-.56h-5.84c-1.64 0-1.87.26-1.93 1.91-.14 4.73-.06 9.45-.07 14.18 0 .41-.09.54-.52.52h-3.07c-.28 0-.4-.05-.4-.37.07-4.93.12-9.85.2-14.78v-2.51a.77.77 0 0 1 .26-.6c.49-.46.89-1.13 1.47-1.37a5.54 5.54 0 0 1 2-.08H842.16c.79 0 1.58 0 2.37.08a2.93 2.93 0 0 1 2.77 2.51 14.57 14.57 0 0 1 .17 2.49v14.22c0 .37-.07.5-.47.49h-3.2c-.36 0-.42-.12-.42-.44v-13a18.74 18.74 0 0 0-.15-2.37.7.7 0 0 0-.62-.67 5.75 5.75 0 0 0-.94-.12h-6.05c-.33 0-.37.13-.37.41.12 2.53.12 5.17.12 7.81zM862.7-2190h9.16v2.81c0 .32-.12.38-.4.37h-14.55a1.06 1.06 0 0 0-1.21 1 8.26 8.26 0 0 0-.16 1.63v2c0 .37.11.45.46.46l11.54.08h3.15c.27 0 .34.1.34.35v2.38c0 .35-.11.42-.44.43-3.75.09-7.49 0-11.24.08l-3.46.06c-.17 0-.36 0-.35.24a23 23 0 0 0 .15 3.66 2.39 2.39 0 0 0 .46.92c.13.2.33.13.51.13h14.61c.68 0 .6-.08.6.59v2.2c0 .29-.06.4-.38.4h-15.35a11.91 11.91 0 0 1-2-.13 3 3 0 0 1-2.37-2.67c-.2-4.46-.08-8.93-.06-13.4a3.32 3.32 0 0 1 1-2.63 3.15 3.15 0 0 1 2.05-.86c2.46-.14 4.93-.06 7.39-.09zM925.23-2190h3.41c.33 0 .4.1.4.42v14.29c0 .79 0 1.58-.09 2.37a2.55 2.55 0 0 1-2.51 2.56c-2.42.22-4.84.15-7.25.17s-4.78 0-7.18 0a16.69 16.69 0 0 1-1.77-.09 2.84 2.84 0 0 1-2.56-2.65c-.1-1.28-.16-2.56-.16-3.84v-12.75c0-.39.11-.48.48-.47h2.81c.64 0 .59-.09.59.57v12.75a18.41 18.41 0 0 0 .09 2 1.14 1.14 0 0 0 1.18 1.17c2.83.2 5.67.07 8.51.09a23.28 23.28 0 0 0 2.76-.08c.81-.09 1.06-.31 1.13-1.12.06-.66.09-1.32.09-2v-12.93c0-.1-.05-.28.07-.46zM884.59-2190h18.16a6.94 6.94 0 0 1 .9.93 2 2 0 0 1-.2 2.74c-1.32 1.3-2.75 2.5-4.1 3.78-3.13 3-6.48 5.71-9.6 8.7a5.12 5.12 0 0 1-.44.34l.07.14H903.36c.42 0 .54.11.52.53v2.33c0 .26-.08.34-.34.34h-15.87c-.67 0-1.36-.1-2-.1-1.13 0-1.78-1.36-1.63-2.24a2.65 2.65 0 0 1 .76-1.42c1.4-1.46 2.93-2.77 4.43-4.12s3-2.58 4.42-3.94c1.66-1.57 3.42-3 5.09-4.61l.12-.14h-13.75c-.41 0-.51-.12-.49-.51-.02-.92-.03-1.82-.03-2.75zM880.27-2180v9.42c0 .37-.1.46-.46.45h-3.15c-.38 0-.48-.09-.48-.47v-14-5c0-.35.1-.43.44-.43h3.2c.36 0 .46.09.46.45-.02 3.22-.01 6.39-.01 9.58z" transform="translate(-819.13 2190.06)"/></svg>