<svg id="Слой_1" data-name="Слой 1" xmlns="http://www.w3.org/2000/svg" viewBox="0 0 103.65 69.97"><defs><style>.cls-1{fill:#609ad1}.cls-2{fill:#5d97cf}.cls-3{fill:#619bd2}</style></defs><title>motorola</title><path class="cls-1" d="M504.55-2124.6c-.29-.52-.88-.48-1.33-.69-2.71-1.29-3.27-4-1.28-6.22 2.23-2.53 7.23-3.36 10.2-1.7 2.17 1.22 2.55 3.66 1 5.74-1.21 1.59-3.05 2.1-4.74 2.87zm3.63-7.22a3.46 3.46 0 0 0-3.58 3 2 2 0 0 0 2.29 2c1.87 0 3.55-1.48 3.53-3.09s-1.25-1.69-2.24-1.91zM479.26-2124.6c-.32-.65-1.05-.63-1.58-.93a3.56 3.56 0 0 1-1.37-5.29c2-3.29 8.51-4.38 11.44-1.91a3.6 3.6 0 0 1 .54 4.84c-1.2 2-3.27 2.53-5.21 3.3zm6.08-5.34a2.25 2.25 0 0 0-2.62-1.87 3.24 3.24 0 0 0-3.16 3.2c.08 1.47 1.14 1.75 2.28 1.77 1.87.01 3.56-1.54 3.5-3.11zM531.58-2124.6c-.33-.64-1.05-.63-1.58-.93a3.56 3.56 0 0 1-1.38-5.29c2-3.29 8.51-4.38 11.44-1.91a3.59 3.59 0 0 1 .54 4.83c-1.21 2-3.26 2.53-5.21 3.3zm3.57-7.22a3.24 3.24 0 0 0-3.27 3.09c0 1.58 1.11 1.88 2.33 1.87a3.4 3.4 0 0 0 3.45-3c.02-1.14-1.06-2-2.5-1.96z" transform="translate(-459.63 2194.58)"/><path class="cls-2" d="M537.52-2168.4a26.07 26.07 0 0 1-26 26 26.11 26.11 0 0 1-26.08-26.13 26.05 26.05 0 0 1 26.11-26.07 25.93 25.93 0 0 1 25.97 26.2zm-25.86 5.84h-.32l-7.19-23.77c-.61 2-1.07 3.47-1.52 4.95q-3.75 12.33-7.48 24.65c-.13.44-.8 1.11.26 1.33a1 1 0 0 0 1.34-.93 6.22 6.22 0 0 1 .2-.84c.82-2.64 1.55-5.34 3.24-7.6 2.12-2.84 5.28-3 7.67-.46a17.13 17.13 0 0 1 2.67 4.23c.29.57.39 1.3 1.07 1.69.58-1.16 1.11-2.25 1.67-3.32a11.5 11.5 0 0 1 2.26-3 4.43 4.43 0 0 1 6.11-.26 8 8 0 0 1 2 2.56 34.89 34.89 0 0 1 2.34 6.13c.26.85.18 2.35 1.64 1.75 1.1-.46.1-1.52-.1-2.2-1.73-5.92-3.56-11.81-5.36-17.71q-1.59-5.21-3.2-10.41h-.33z" transform="translate(-459.63 2194.58)"/><path class="cls-1" d="M467.67-2130.3a7.18 7.18 0 0 0 1.13-1.29c1.27-2.44 3.5-2.18 5.69-2.11.63 0 .81.26.64.85-.67 2.38-1.2 4.81-2 7.12-.53 1.46-2.05.7-3 .61s-.2-1-.17-1.53.57-1.27.28-2.2c-1 1.08-1.9 2.11-2.85 3.08-1.31 1.33-2.27 1.09-2.77-.67q-.36-1.24-.73-2.47s-.09-.05-.3-.16a19.72 19.72 0 0 0-.82 2.69c-.28 1.75-1.53 1.36-2.64 1.32-.55 0-.41-.4-.31-.74.69-2.37 1.39-4.74 2.06-7.12a1 1 0 0 1 1.13-.78 8.41 8.41 0 0 0 1.73 0 1.81 1.81 0 0 1 2.37 1.75 2.71 2.71 0 0 0 .56 1.65z" transform="translate(-459.63 2194.58)"/><path class="cls-3" d="M524.66-2128.6a2 2 0 0 1 .49 3.26c-.64.79-2.12.44-3.23.12a.65.65 0 0 1-.34-.54c.33-1.92-1-1.72-2.21-1.86-1.08-.12-1.41.33-1.65 1.23a2.34 2.34 0 0 1-3.09 1.36c-.53-.25-.39-.65-.29-1 .64-2.27 1.33-4.53 1.93-6.81.23-.88.82-.82 1.46-.82h6.4c1.21 0 2.44.09 2.84 1.43s-.39 2.31-1.44 3.07c-.22.16-.46.29-.87.56zm-3.63-1.49h1.55a.88.88 0 0 0 .91-.87c0-.66-.58-.6-1-.61h-2.25c-.57 0-1 .11-1.09.8-.08.88.56.68 1 .72.3-.01.59-.03.85-.03zM551.48-2125c2-2.92 3.69-5.63 5.61-8.18.92-1.22 2.48-.5 3.75-.52 1.08 0 .83 1.07 1 1.73.48 2 .83 3.93 1.36 5.87.28 1-.08 1.2-1 1.16-1.09-.06-2.3.33-2.76-1.28-.15-.51-3.93-.4-4.23.16-.79 1.46-2.08 1.06-3.73 1.06zm7-6c-.51.89-1.34 1.33-1.1 2.2.08.31.95.32 1.24.07.75-.67.04-1.33-.13-2.27z" transform="translate(-459.63 2194.58)"/><path class="cls-1" d="M495.8-2133.67h4c.47 0 1.41-.33 1.23.62-.15.76.15 2.33-1.14 2.09-3.34-.6-3.63 1.65-3.95 3.87-.25 1.71-1.07 2.3-2.76 2.12-.94-.1-1.23-.39-1-1.27s.41-2 .76-3c.48-1.32.11-1.7-1.27-1.65-2.08.08-2.17-.18-1.47-2 .27-.71.71-.77 1.32-.77h4.31z" transform="translate(-459.63 2194.58)"/><path class="cls-3" d="M545.95-2125h-2.08c-2.46 0-2.46 0-1.85-2.29.46-1.73 1-3.44 1.34-5.19.4-1.94 1.9-1.24 2.9-1.12 1.23.15.4 1.15.31 1.79-.18 1.36-1.34 2.95-.7 4s2.55.25 3.88.44c.37.05 1.1-.27.94.55s0 1.77-1.11 1.84-2.42 0-3.64 0z" transform="translate(-459.63 2194.58)"/></svg>