<svg id="Слой_1" data-name="Слой 1" xmlns="http://www.w3.org/2000/svg" viewBox="0 0 92.1 14.37"><defs><style>.cls-1{fill:#48518a}.cls-2{fill:#49518a}</style></defs><title>nokia</title><path class="cls-1" d="M302.25-2133.91v-.4-9.68c0-.22 0-.31.29-.31h4c.19 0 .28 0 .28.25v13.64c0 .2-.05.25-.25.25h-7.15a.53.53 0 0 1-.45-.23l-.68-.84c-.92-1.12-1.81-2.26-2.76-3.35-.64-.74-1.21-1.53-1.86-2.25s-1.22-1.54-1.88-2.27c-.47-.51-.87-1.08-1.39-1.65V-2130.45c0 .24-.06.3-.3.29h-4c-.21 0-.27 0-.27-.26v-13.64c0-.21.06-.25.25-.25h7.38a.39.39 0 0 1 .36.17c.19.25.39.49.58.74.89 1.11 1.8 2.19 2.71 3.29.59.71 1.15 1.46 1.77 2.14s1.26 1.59 1.94 2.34c.48.55.9 1.14 1.43 1.72z" transform="translate(-285.82 2144.39)"/><path class="cls-2" d="M318.25-2144.39h5.81a3.91 3.91 0 0 1 3 1.25 3.48 3.48 0 0 1 1 2.46v6.95a3.4 3.4 0 0 1-.76 2.19 3.8 3.8 0 0 1-3 1.51h-12.07a3.75 3.75 0 0 1-3.68-3.73v-6.86a3.61 3.61 0 0 1 1.61-3.08 3.68 3.68 0 0 1 2.13-.68h6zm0 3.56H313c-.2 0-.28 0-.28.26v6.72c0 .19 0 .26.24.26h10.67c.21 0 .25-.07.25-.26v-6.72c0-.22-.07-.26-.27-.26z" transform="translate(-285.82 2144.39)"/><path class="cls-1" d="M377.92-2130.15h-5.18a.25.25 0 0 1-.26-.17c-.36-.71-.81-1.36-1.14-2.08a.3.3 0 0 0-.33-.19h-8.63a.29.29 0 0 0-.32.2c-.3.69-.61 1.37-.91 2.05 0 .11-.09.19-.24.19h-5c-.05-.1 0-.15.05-.21.33-.6.63-1.21 1-1.79.69-1.08 1.22-2.24 1.9-3.32s1.19-2.19 1.85-3.25 1.23-2.26 1.91-3.34c.42-.67.78-1.38 1.18-2.06a.29.29 0 0 1 .29-.17h5.5a.32.32 0 0 1 .31.18c.73 1.16 1.33 2.4 2 3.56s1.21 2.22 1.89 3.29 1.21 2.2 1.88 3.27 1.2 2.14 1.83 3.2a2.4 2.4 0 0 1 .42.64zm-11.12-10.68c-1.06 1.67-1.85 3.45-2.92 5.12h5.9c-.93-1.75-2.04-3.36-2.98-5.12zM349.31-2130.15h-6.24a.37.37 0 0 1-.28-.1c-.27-.25-.56-.48-.84-.72-1.14-1-2.25-2-3.41-3-.64-.55-1.24-1.14-1.9-1.67s-1.19-1.06-1.79-1.58a1.85 1.85 0 0 0-.47-.32v7.11c0 .24-.06.29-.3.29h-4.1c-.2 0-.25-.05-.25-.25v-13.64c0-.2.05-.25.25-.25h4.16c.18 0 .24 0 .24.23v6a.38.38 0 0 1 0 .19.12.12 0 0 0 0 .17c.06 0 .09 0 .14-.06a2.85 2.85 0 0 0 .49-.38c1.06-.91 2.1-1.83 3.18-2.71.63-.52 1.22-1.08 1.86-1.58s1.27-1.08 1.9-1.62a1 1 0 0 1 .69-.25h5.77a6 6 0 0 1-.58.48 7.4 7.4 0 0 0-.72.56c-1 .8-2 1.63-3 2.41-.63.49-1.21 1-1.86 1.5s-1.35 1.16-2.09 1.65c-.09.06-.09.11 0 .16a2.94 2.94 0 0 1 .56.43c1 .83 2 1.68 3.07 2.48.65.5 1.27 1 1.92 1.55 1.18.91 2.35 1.85 3.5 2.8a.38.38 0 0 0 .1 0zM350.32-2137.24v-6.75c0-.24.06-.3.3-.29h4c.2 0 .27 0 .27.26v13.61c0 .21-.05.27-.27.27h-4c-.24 0-.27-.09-.27-.29q-.02-3.41-.03-6.81z" transform="translate(-285.82 2144.39)"/></svg>