<svg width="11" height="19" viewBox="0 0 11 19" xmlns="http://www.w3.org/2000/svg"><title>001-smartphone</title><g fill="none"><path d="M9.63 19H1.234c-.627 0-1.135-.5-1.135-1.115V1.115C.099.5.607 0 1.234 0H9.63c.627 0 1.135.5 1.135 1.115v16.77c0 .615-.508 1.115-1.135 1.115z" fill="#545E73"/><path fill="#8697CB" d="M.099 1.966h10.667v13.103H.099z"/><ellipse fill="#323A45" cx="5.432" cy="17.034" rx="1" ry="1"/><path d="M5.432 1.31H4.099a.33.33 0 0 1-.334-.327A.33.33 0 0 1 4.1.655h1.333a.33.33 0 0 1 .333.328.33.33 0 0 1-.333.327zm1.333 0h-.333a.33.33 0 0 1-.333-.327.33.33 0 0 1 .333-.328h.333A.33.33 0 0 1 7.1.983a.33.33 0 0 1-.334.327z" fill="#323A45"/></g></svg>