<svg width="97" height="97" viewBox="0 0 97 97" xmlns="http://www.w3.org/2000/svg"><title>002-server</title><g fill-rule="nonzero" fill="none"><circle fill="#334D5C" cx="48.453" cy="48.453" r="48.453"/><g fill="#EBF0F3"><path d="M47.554 62.557h2.86v8.816h-2.86zM37.793 71.852h5.72v2.86h-5.72zM27.825 71.852h5.72v2.86h-5.72zM55.185 71.852h5.72v2.86h-5.72zM63.362 71.852h5.72v2.86h-5.72z"/></g><path d="M53.478 76.212h-8.264c-.94 0-1.704-.763-1.704-1.703v-2.453c0-.941.763-1.704 1.704-1.704h8.264c.94 0 1.703.763 1.703 1.704v2.453c0 .94-.763 1.703-1.703 1.703z" fill="#DC8744"/><path d="M67.05 33.48H31.64a2.03 2.03 0 0 1-2.028-2.029v-8.728c0-1.121.908-2.03 2.029-2.03h35.41c1.12 0 2.029.909 2.029 2.03v8.728a2.03 2.03 0 0 1-2.03 2.03z" fill="#3EA69B"/><path d="M48.988 33.48H30.44a.827.827 0 0 1-.827-.827V21.521c0-.457.37-.828.827-.828h18.55V33.48z" fill="#44C4A1"/><g transform="translate(32.176 22.949)" fill="#D5D6DB"><circle cx="4.174" cy="4.138" r="4.027"/><circle cx="30.439" cy="4.138" r="4.027"/></g><path d="M67.05 48.738H31.64a2.03 2.03 0 0 1-2.028-2.03V37.98c0-1.12.908-2.029 2.029-2.029h35.41c1.12 0 2.029.909 2.029 2.03v8.728a2.03 2.03 0 0 1-2.03 2.029z" fill="#F6C358"/><path d="M48.988 48.738H30.44a.827.827 0 0 1-.827-.827V36.779c0-.457.37-.828.827-.828h18.55v12.787z" fill="#FCD462"/><g transform="translate(32.176 38.09)" fill="#D5D6DB"><circle cx="4.174" cy="4.254" r="4.027"/><circle cx="30.439" cy="4.254" r="4.027"/></g><path d="M67.05 64.042H31.64a2.03 2.03 0 0 1-2.028-2.029v-8.729c0-1.12.908-2.029 2.029-2.029h35.41c1.12 0 2.029.909 2.029 2.03v8.728a2.03 2.03 0 0 1-2.03 2.03z" fill="#D15241"/><path d="M48.988 64.042H30.44a.827.827 0 0 1-.827-.827V52.083c0-.457.37-.827.827-.827h18.55v12.786z" fill="#E56353"/><g transform="translate(32.176 53.468)" fill="#D5D6DB"><circle cx="4.174" cy="4.18" r="4.027"/><circle cx="30.439" cy="4.18" r="4.027"/></g></g></svg>