<svg width="97" height="97" viewBox="0 0 97 97" xmlns="http://www.w3.org/2000/svg"><title>001-tablet</title><g fill-rule="nonzero" fill="none"><circle fill="#90DFAA" cx="48.5" cy="48.5" r="48.5"/><path d="M71.357 81.96H25.643c-.27 0-.5-.23-.5-.5V15.54c0-.27.23-.5.5-.5h45.714c.27 0 .5.23.5.5v65.92c0 .27-.23.5-.5.5z" fill="#324A5E"/><path fill="#FFF" d="M30.56 22.012h35.88v49.633H30.56z"/><g transform="translate(38.992 17.48)" fill="#2B3B4E"><circle cx="9.508" cy="58.872" r="2.516"/><path d="M17.902 2.19H6.819a1.053 1.053 0 0 1-1.057-1.057c0-.576.461-1.056 1.057-1.056h11.083c.576 0 1.056.46 1.056 1.056-.019.596-.48 1.057-1.056 1.057zM2.881 2.19H1.114A1.053 1.053 0 0 1 .058 1.133C.058.557.518.077 1.114.077h1.767c.576 0 1.057.46 1.057 1.056 0 .596-.461 1.057-1.057 1.057z"/></g></g></svg>