<svg width="97" height="97" viewBox="0 0 97 97" xmlns="http://www.w3.org/2000/svg"><title>005-monitor</title><g fill-rule="nonzero" fill="none"><circle fill="#B2E3FF" cx="48.421" cy="48.405" r="48.405"/><path fill="#E6E6E6" d="M40.101 64.667H56.74v6.807H40.101z"/><path d="M15.863 57.481V23.893c0-.946.644-1.203 1.548-1.203h62.02c.904 0 1.476.257 1.476 1.203v33.588H15.863z" fill="#1E2C33"/><path d="M15.863 57.481v5.673c0 .904.644 1.89 1.548 1.89h62.02c.904 0 1.476-.986 1.476-1.89v-5.673H15.863z" fill="#F5F5F5"/><path fill="#586874" d="M18.924 26.094h58.994v27.984H18.924z"/><path d="M62.035 72.986c0-.832-.68-1.512-1.513-1.512H36.319c-.832 0-1.512.68-1.512 1.512s.68 1.513 1.512 1.513h24.203c.832 0 1.513-.68 1.513-1.513z" fill="#F5F5F5"/><circle fill="#1E2C33" cx="48.421" cy="60.885" r="1.513"/></g></svg>