<svg width="97" height="97" viewBox="0 0 97 97" xmlns="http://www.w3.org/2000/svg"><title>004-laptop</title><g fill-rule="nonzero" fill="none"><circle fill="#F2CF61" cx="48.5" cy="48.5" r="48.5"/><path d="M0 76.54h97v2.272a2.28 2.28 0 0 1-2.273 2.274H2.273A2.28 2.28 0 0 1 0 78.813v-2.274z" fill="#B3B3B3"/><path fill="#E6E6E6" d="M81.844 62.898H15.156L0 76.54h97z"/><path fill="#F5F5F5" d="M7.9 73.508l8.42-7.578h64.36l8.42 7.578z"/><path d="M54.563 76.54c0 .836-.68 1.515-1.516 1.515h-10.61a1.516 1.516 0 0 1-1.515-1.516h13.64z" fill="#E6E6E6"/><path d="M15.156 62.898V21.977a2.28 2.28 0 0 1 2.274-2.274h62.14a2.28 2.28 0 0 1 2.274 2.274v40.921H15.156z" fill="#263740"/><path fill="#406A80" d="M19.703 24.25h57.594v34.859H19.703z"/><circle fill="#70CCBD" cx="78.055" cy="64.414" r="1"/><circle fill="#CC584C" cx="48.5" cy="21.977" r="1"/><path d="M87.148 79.57H79.57a.758.758 0 1 1 0-1.515h7.578a.757.757 0 1 1 0 1.515z" fill="#263740"/></g></svg>