<svg width="97" height="97" viewBox="0 0 97 97" xmlns="http://www.w3.org/2000/svg"><title>003-smartphone-1</title><g fill-rule="nonzero" fill="none"><circle fill="#E16B5A" cx="48.5" cy="48.5" r="48.5"/><path d="M66.652 80.328a2.273 2.273 0 0 1-2.274 2.274H32.55a2.273 2.273 0 0 1-2.273-2.274V16.672a2.273 2.273 0 0 1 2.273-2.274h31.828a2.273 2.273 0 0 1 2.274 2.274v63.656z" fill="#E6E6E6"/><path fill="#395F73" d="M31.035 21.219h34.859v50.016H31.035z"/><g transform="translate(31.639 15.914)" fill="#406A80"><path d="M.154 6.063h33.344v48.5H.154z"/><circle cx="16.826" cy=".758" r="1"/><path d="M20.615 3.79h-7.578a.758.758 0 0 1 0-1.517h7.578a.758.758 0 0 1 0 1.516z"/></g><g fill="#E6E6E6"><path d="M62.105 15.156h-3.031a.758.758 0 0 1 0-1.515h3.031a.758.758 0 0 1 0 1.515zM30.277 24.25a.758.758 0 0 1-.758-.758v-3.031a.758.758 0 0 1 1.516 0v3.031c0 .418-.34.758-.758.758zM30.277 29.555a.758.758 0 0 1-.758-.758v-.758a.758.758 0 0 1 1.516 0v.758c0 .418-.34.758-.758.758zM30.277 33.344a.758.758 0 0 1-.758-.758v-.758a.758.758 0 0 1 1.516 0v.758c0 .418-.34.758-.758.758z"/></g><path d="M48.464 74.266a3.034 3.034 0 0 0-3.03 3.03 3.034 3.034 0 0 0 3.03 3.032 3.034 3.034 0 0 0 3.032-3.031 3.034 3.034 0 0 0-3.032-3.031z" fill="#406A80"/></g></svg>