<svg width="60" height="60" viewBox="0 0 60 60" xmlns="http://www.w3.org/2000/svg"><title>001-improve</title><g fill-rule="nonzero" fill="none"><path d="M44.295 38.834l-23.27-23.428c1.66-3.813.94-8.424-2.161-11.546A10.295 10.295 0 0 0 7.395 1.685l8.81 8.869-5.32 5.354L2.078 7.04c-1.66 3.813-.94 8.424 2.16 11.546a10.295 10.295 0 0 0 11.468 2.175l23.27 23.427c-1.66 3.814-.94 8.425 2.161 11.546a10.295 10.295 0 0 0 11.469 2.175l-8.81-8.868 5.32-5.355 8.808 8.869c1.66-3.814.94-8.424-2.16-11.546a10.295 10.295 0 0 0-11.468-2.175z" fill="#8E9AA9"/><path d="M43.136 53.28A10.356 10.356 0 0 1 40.97 41.79l-23.337-23.31c-3.799 1.662-8.392.941-11.501-2.165a10.327 10.327 0 0 1-3.016-7.983L2.08 7.297a10.356 10.356 0 0 0 2.167 11.489c3.11 3.106 7.702 3.827 11.5 2.164l23.338 23.311A10.356 10.356 0 0 0 41.25 55.75c3.11 3.107 7.702 3.828 11.5 2.165l-1.623-1.622a10.351 10.351 0 0 1-7.992-3.012z" fill="#7C899B"/><path fill="#B4BBC6" d="M16.723 45.426l-2.563-2.562L45.694 11.33l2.562 2.563z"/><path fill="#8E9AA9" d="M48.131 14.19l-2.628-2.647 2.629-5.292 7.226-4.63 2.629 2.647-4.6 7.275z"/><path fill="#7EC97D" d="M12.829 57.685l-10.82-10.82L17.774 31.1l10.82 10.82z"/><path fill="#59AD57" d="M12.908 57.171l-6.55-6.55 15.767-15.765 6.55 6.549z"/><g fill="#4E944D"><path d="M12.514 57.785l-3.81-3.81 16.195-16.197 3.81 3.811z"/><path d="M8.765 59.183L.868 51.085l1.316-4.049 10.53 10.797z"/></g><path fill="#B8E3A8" d="M25.973 30.81l2.618 2.636v7.905l-10.47-10.54z"/><path d="M59.82 46.671a11.275 11.275 0 0 0-3.116-5.994 11.162 11.162 0 0 0-5.958-3.136 11.172 11.172 0 0 0-5.951.54l-7.774-7.82a.88.88 0 0 0-1.25 0 .893.893 0 0 0 0 1.256l8.189 8.239a.88.88 0 0 0 .98.185c3.604-1.59 7.731-.807 10.514 1.993a9.517 9.517 0 0 1 2.431 9.318l-7.845-7.893a.88.88 0 0 0-1.25 0l-5.33 5.363a.893.893 0 0 0 0 1.257l7.845 7.893c-3.276.932-6.796.035-9.261-2.445a9.529 9.529 0 0 1-1.981-10.58.893.893 0 0 0-.184-.985l-7.364-7.409a.88.88 0 0 0-1.25 0 .893.893 0 0 0 0 1.257l6.95 6.992a11.369 11.369 0 0 0-.537 5.988 11.275 11.275 0 0 0 3.117 5.994 11.162 11.162 0 0 0 5.957 3.136 11.159 11.159 0 0 0 6.516-.772c.56-.247.703-1.008.27-1.443l-8.204-8.254 4.081-4.106 8.205 8.254a.89.89 0 0 0 1.434-.272 11.366 11.366 0 0 0 .767-6.556zM4.122 19.407a11.235 11.235 0 0 0 5.994 3.15c2.022.365 4.08.176 5.987-.543l6.08 6.107a.895.895 0 0 0 1.304-.051.905.905 0 0 0-.047-1.212l-6.497-6.525a.886.886 0 0 0-.985-.187c-3.626 1.597-7.78.811-10.58-2.001a9.547 9.547 0 0 1-2.445-9.359l7.893 7.928a.886.886 0 0 0 1.257 0l5.363-5.387a.905.905 0 0 0 0-1.263L9.554 2.137c3.296-.936 6.837-.035 9.317 2.456a9.558 9.558 0 0 1 1.993 10.626.896.896 0 0 0 .185.99l7.638 7.671a.895.895 0 0 0 1.258 0 .904.904 0 0 0 0-1.262l-7.222-7.253a11.4 11.4 0 0 0 .54-6.014 11.318 11.318 0 0 0-3.135-6.02A11.236 11.236 0 0 0 14.134.18a11.26 11.26 0 0 0-6.556.775.904.904 0 0 0-.272 1.45l8.255 8.29-4.107 4.124L3.2 6.53a.896.896 0 0 0-1.442.272 11.398 11.398 0 0 0-.772 6.585 11.318 11.318 0 0 0 3.136 6.02z" fill="#000"/><path d="M29.972 33.954l18.846-18.845 5.213-2.606a.884.884 0 0 0 .351-.317l4.674-7.344a.885.885 0 0 0-.12-1.101L56.263 1.07a.886.886 0 0 0-1.1-.12l-7.346 4.673a.885.885 0 0 0-.316.35l-2.607 5.214-19.003 19.001h-7.646a.895.895 0 0 0-.626.26L1.595 46.47a.896.896 0 0 0-.214.346L.045 50.824a.886.886 0 0 0 .214.906l8.013 8.012a.894.894 0 0 0 .906.214l4.006-1.336a.893.893 0 0 0 .346-.214l16.026-16.024a.895.895 0 0 0 .259-.626v-7.678a.898.898 0 0 0 .157-.124zm-1.042-1.462l-1.42-1.419 18.113-18.11 1.419 1.419-18.112 18.11zM12.904 56.528l-2.754-2.754 9.024-9.023a.885.885 0 0 0-1.252-1.252l-9.024 9.023-1.419-1.418 14.773-14.772 1.42 1.418-2.838 2.838a.894.894 0 0 0-.047 1.2.894.894 0 0 0 1.299.052l2.837-2.838 2.755 2.754-14.774 14.772zm5.342-24.203L21 35.08 6.227 49.852l-2.754-2.755 14.773-14.772zm2.137-.366h5.509l2.152 2.152v5.508l-7.66-7.66zM48.976 6.985l6.539-4.16L57.18 4.49 53.02 11.03l-4.552 2.275-1.768-1.768 2.276-4.551zM9.137 58.103l-7.239-7.239.71-2.128 8.657 8.657-2.128.71z" fill="#000"/></g></svg>