<svg width="97" height="97" viewBox="0 0 97 97" xmlns="http://www.w3.org/2000/svg"><title>gyro</title><g fill="none" fill-rule="evenodd"><circle fill="#84DBFF" cx="48.5" cy="48.5" r="48.5"/><g fill-rule="nonzero"><g fill="#595A54"><path d="M18.31 58.907c-.497-.14-1.117-.728-1.07-1.017.028-.187.084-.215.545-.243.751-.028.939-.093.939-.29 0-.242-.178-.289-1.09-.289-.667 0-.817-.028-.986-.196a.527.527 0 0 1-.16-.438c.029-.243.057-.252.592-.27.986-.047 1.193-.103 1.156-.337-.029-.186-.094-.205-.921-.252-.874-.046-.892-.056-1.024-.317-.216-.448-.066-.569.799-.597 1.033-.028 1.183-.075 1.146-.327-.029-.196-.076-.205-1.006-.233-.544-.01-1.042-.075-1.108-.13-.169-.14-.16-.775.019-.915.197-.168 1.296-.056 1.963.187.733.28 1.108.727 1.418 1.717.33 1.045.705 1.595 1.362 1.987.555.327.61.467.395.915a1.87 1.87 0 0 1-1.334 1.026c-.545.112-1.296.121-1.634.019zM77.149 58.944a2.89 2.89 0 0 1-.62-.224c-.376-.196-.977-.858-.977-1.082 0-.122.207-.327.582-.588.714-.495.996-.933 1.353-2.1.207-.662.686-1.278 1.146-1.483a8.26 8.26 0 0 0 .488-.215c.076-.037.414-.084.752-.093.338-.01.686-.038.77-.066.094-.028.197.028.254.14.14.252.131.803-.02.924-.065.056-.563.121-1.107.13-.902.029-.977.038-.977.215 0 .168.075.187.883.215.488.01.948.075 1.014.13.178.14.15.58-.047.756-.131.122-.366.16-.996.16-.648 0-.826.027-.873.139-.085.233.028.28.892.327.79.046.817.056.846.289.018.13-.057.336-.17.485-.178.224-.253.243-1.014.27-.742.029-.817.047-.817.215 0 .168.075.196.751.234.63.037.752.074.78.214.047.224-.404.69-.827.877-.375.159-1.587.243-2.066.131zM64.233 53.99c-.77-.234-1.193-1.177-.826-1.858.263-.504.62-.709 1.202-.709.451 0 .545.037.845.327.48.457.583.923.33 1.446-.31.625-.968.961-1.55.793zM67.99 53.99c-.77-.234-1.192-1.177-.826-1.858.263-.504.62-.709 1.202-.709.451 0 .545.037.846.327.479.457.582.923.328 1.446-.31.625-.967.961-1.55.793zM71.983 53.99c-.64-.132-1.034-.654-1.034-1.354 0-.364.047-.485.357-.802.292-.308.432-.392.77-.43.527-.046.996.178 1.297.626.601.886-.329 2.192-1.39 1.96zM24.303 53.858c-.47-.205-.789-.7-.789-1.203 0-.383.047-.485.376-.812.329-.327.423-.373.827-.373.826 0 1.484.802 1.249 1.52-.122.365-.507.757-.883.896-.338.131-.423.122-.78-.028zM28.342 53.924c-.103-.019-.356-.205-.563-.41-.329-.337-.366-.42-.357-.84 0-.411.047-.504.366-.831.338-.345.404-.373.864-.373.451 0 .526.028.874.373.338.336.376.42.376.83 0 .392-.047.504-.348.83-.357.393-.742.523-1.212.42zM32.1 53.924c-.104-.019-.357-.205-.564-.41-.329-.337-.366-.42-.357-.84 0-.411.047-.504.367-.831.338-.345.403-.373.864-.373.45 0 .526.028.873.373.338.336.376.42.376.83 0 .392-.047.504-.348.83-.357.393-.742.523-1.211.42zM46.81 49.678a46.87 46.87 0 0 0-1.682-.121 25.515 25.515 0 0 1-1.155-.094c-.094-.018-.611-.065-1.137-.093a26.958 26.958 0 0 1-1.24-.093c-.15-.019-.789-.065-1.409-.103-.62-.028-1.146-.065-1.174-.084-.028-.018-.573-.056-1.212-.093-.638-.037-1.38-.093-1.643-.14-.263-.037-.564-.056-.667-.037-.104.018-.526 0-.94-.056a34.214 34.214 0 0 0-1.784-.14 22.5 22.5 0 0 1-1.268-.094c-.132-.028-.667-.065-1.193-.093a22.655 22.655 0 0 1-1.137-.093 27.761 27.761 0 0 0-1.296-.094c-.61-.028-1.137-.074-1.165-.093-.028-.019-.563-.056-1.202-.093a69.525 69.525 0 0 1-1.296-.084c-.254-.038-.32-.27-.16-.523.291-.457.338-.476 2-.42 1.842.047 4.584.122 7.186.187 1.034.028 2.743.065 3.804.093 1.062.028 2.621.075 3.476.094.855.018 2.649.065 3.992.093 2.705.056 3.4.103 3.485.252.112.168.075 1.754-.038 1.866-.14.14-.263.14-1.146.056zM49.214 49.426c-.188-.205-.216-1.577-.028-1.8.094-.14.441-.169 2.508-.206a1351.6 1351.6 0 0 0 4.414-.103c2.602-.065 5.824-.121 9.77-.186 1.727-.028 3.925-.075 4.884-.094L72.499 47l.3.29c.602.578.414.7-1.192.774-.695.028-1.39.074-1.55.093-.15.019-.723.056-1.268.084-.545.037-1.174.075-1.409.103a31.82 31.82 0 0 1-1.456.093c-.563.037-1.099.075-1.174.093-.075.019-.667.066-1.315.094-.648.028-1.296.074-1.456.093-.15.019-.723.056-1.268.084-.545.037-1.174.075-1.409.103-.235.028-.864.065-1.409.093-.545.028-1.052.075-1.127.093-.075.019-.686.056-1.362.094-.667.028-1.371.065-1.55.093-.178.028-.667.065-1.08.093-.413.019-1.071.065-1.456.093-1.85.131-1.954.131-2.104-.037z"/></g><path d="M18.306 60.981a3.174 3.174 0 0 1-2.132-1.172c-.413-.507-.995-1.633-1.155-2.233-.028-.132-.103-.385-.15-.563-.198-.732-.367-1.764-.367-2.214 0-.91-.065-1.051-.6-1.295-.855-.394-.846-.385-.893-2.44-.037-2.091.094-3.564.48-5.45.29-1.435.976-3.115 1.69-4.156.676-.985 1.85-1.867 2.892-2.167 1.155-.329 1.427-.357 2.14-.188.705.16 1.55.62 2.067 1.107.807.779 1.7 2.318 1.99 3.434.047.16.141.516.216.797.075.282.198.826.263 1.201l.122.676 1.747.01c.958.008 1.84.027 1.972.037.131.009 1.418.056 2.864.084 1.446.038 4.066.103 5.822.15 9.794.272 11.616.31 13.653.244 1.221-.037 3.719-.103 5.55-.15 4.62-.122 10.883-.281 13.569-.357l2.254-.065.028-.282c.037-.46.216-1.37.413-2.064.498-1.81 1.22-3.049 2.254-3.884.76-.619 1.127-.788 2.028-.957.995-.187 2.338.141 3.343.807.901.591 1.812 1.651 2.235 2.58.084.178.244.544.357.798.122.262.253.61.3.778.038.16.122.46.17.657.685 2.505.779 7.365.15 8.322-.076.112-.367.319-.648.46-.583.28-.63.375-.63 1.247 0 1.97-1.042 4.653-2.15 5.545-.695.553-1.155.694-2.263.694-1.878-.019-3.146-.723-3.71-2.055l-.13-.31-.733.076c-.404.037-3.644.065-7.212.065h-6.48l-.985-.319a47.344 47.344 0 0 1-1.22-.394 154.478 154.478 0 0 0-3.992-1.107 58.892 58.892 0 0 0-2.488-.553c-.282-.056-.742-.14-1.014-.197-.648-.132-2.395-.132-3.043 0-1.662.328-1.662.319-3.409.741-.666.16-1.324.328-1.455.375l-.657.188c-.235.066-.526.15-.658.188a25.56 25.56 0 0 0-.563.168c-.178.047-.902.282-1.596.507l-1.268.403H22.616l-.216.488c-.329.732-1.174 1.36-2.17 1.605-.478.112-1.511.197-1.924.14zm1.943-1.67c.423-.084.855-.366 1.043-.675.31-.535.281-.657-.17-.929-.76-.44-1.154-1.032-1.54-2.27-.112-.376-.319-.798-.44-.957-.301-.357-1.1-.648-1.973-.723l-.695-.056v.779h.958c1.005 0 1.296.103 1.296.478 0 .329-.366.46-1.24.46-.46 0-.826.028-.826.075 0 .037.028.16.057.281.056.197.112.207.882.207.686 0 .845.028.977.178.394.432-.038.76-.996.76-.554 0-.638.019-.638.169 0 .319.197.394 1.033.394.864 0 1.22.14 1.22.469 0 .29-.366.469-.957.469-.639 0-.714.14-.273.554.46.422 1.23.544 2.282.337zm59.187-.056c.357-.15.705-.46.705-.62 0-.093-.179-.121-.705-.121-.666 0-.713-.019-.817-.235-.084-.197-.075-.262.066-.422.14-.16.291-.187.949-.187.676 0 .798-.029.882-.179.216-.413.141-.478-.591-.478-.949 0-1.353-.3-.93-.685.122-.113.394-.16 1.005-.178l.845-.028.028-.3.028-.31h-.864c-.676 0-.901-.038-1.042-.16-.207-.187-.216-.29-.01-.516.132-.14.301-.169 1.127-.169h.977l-.028-.394-.028-.394-.62.028c-1.53.057-2.075.45-2.535 1.84-.16.459-.348.91-.423.994-.075.075-.131.187-.131.244 0 .122-.62.694-1.015.928-.366.207-.375.404-.056.788.282.329.686.563 1.164.667.46.103 1.681.037 2.02-.113zm-41.974-2.242c.028-.047.178-.094.328-.094.15 0 .3-.038.329-.094.028-.047.178-.094.329-.094.15 0 .3-.037.328-.093.029-.047.141-.094.244-.094a.943.943 0 0 0 .348-.085c.084-.047.347-.131.582-.197a9.58 9.58 0 0 0 .639-.197c.122-.047.338-.084.488-.084.15 0 .3-.038.329-.094.028-.047.178-.094.328-.094.15 0 .3-.037.329-.094.028-.047.197-.093.376-.093.178 0 .338-.038.366-.085.028-.047.188-.103.357-.131.169-.038.46-.085.638-.113a3.29 3.29 0 0 0 .517-.14c.197-.085.61-.17 1.22-.244a2.64 2.64 0 0 0 .564-.132c.197-.084.685-.169 1.577-.244l.536-.056v-2.965l-1.1-.056c-.61-.028-1.699-.103-2.422-.15-.723-.056-1.906-.14-2.629-.188-1.474-.103-3.305-.234-5.259-.375-.723-.056-1.887-.14-2.582-.188-.695-.046-1.86-.13-2.582-.187a211.76 211.76 0 0 0-2.677-.188c-1.286-.084-2.31-.16-5.183-.375-3.343-.244-3.09-.206-3.305-.497-.263-.347-.357-1.389-.357-4.006-.01-2.411.122-3.321.6-4.25.16-.32-.074-.441-.807-.441-1.634.01-2.836.872-3.709 2.683a25.71 25.71 0 0 1-.394.807.94.94 0 0 0-.085.347c0 .103-.037.216-.094.244-.047.028-.094.178-.094.328 0 .15-.037.3-.094.329-.046.028-.093.215-.093.412 0 .188-.038.385-.085.432-.047.056-.113.366-.14.704a84.67 84.67 0 0 0-.151 1.594c-.272 2.853-.216 3.603.263 3.828.15.066.685.113 1.465.113 1.23 0 1.559.056 2.291.403.798.385 1.615 1.323 1.615 1.858 0 .103.047.262.094.366.056.103.14.272.188.375a.839.839 0 0 1 .094.328c0 .244.807.985 1.07.985.132 0 .263.047.291.094.029.056.32.094.639.103.32.01.685.047.817.085.357.112 13.597.112 13.663 0zm36.058-.01c2.132-.168 2.677-.46 3.146-1.679.066-.178.16-.366.207-.422a.57.57 0 0 0 .075-.29c0-.282.366-.948.704-1.296.282-.281.789-.562 1.427-.806.179-.066.799-.113 1.55-.113 1.09.01 1.305-.019 1.7-.197l.45-.206-.047-1.83c-.047-1.792-.14-2.805-.328-3.846a25.172 25.172 0 0 1-.15-.845 3.282 3.282 0 0 0-.141-.516 4.866 4.866 0 0 1-.188-.563c-.348-1.2-1.183-2.589-1.906-3.161-.385-.3-.986-.572-1.597-.732-.713-.188-1.83.15-1.39.413.047.028.104.169.132.31.028.15.103.45.16.684.394 1.614.422 6.277.037 7.046-.235.469-.329.497-2.479.647-.695.057-1.455.113-1.69.141a21.15 21.15 0 0 1-1.268.084c-1.427.066-3.615.235-3.69.282-.047.028-.582.056-1.193.066-.61.009-1.22.046-1.352.093-.14.038-.789.094-1.465.122-.667.038-1.68.094-2.254.141-.563.047-1.52.113-2.112.14-.592.038-1.418.104-1.832.15-.413.057-1.173.113-1.69.142-.516.018-1.465.084-2.113.131-1.305.103-2.328.178-3.38.235-.385.028-.789.065-.892.093-.103.02-.216.047-.254.047-.131.019-.084 2.805.047 2.89.057.037.366.103.676.14.526.066.827.122 1.972.348.263.056.62.122.798.15.179.037.414.094.517.14.197.085.545.17 1.061.254.169.028.329.084.357.131.028.047.15.085.282.085.131 0 .516.084.863.187.958.291 1.775.535 2.555.76.385.103.779.235.864.282a.943.943 0 0 0 .347.084c.103 0 .216.047.244.094.085.131 11.653.122 13.24-.01zm-25.372-7.73c0-.807-.01-.835-.235-.9-.122-.029-1.493-.085-3.033-.123-1.55-.037-3.409-.084-4.132-.103-.723-.019-2.282-.066-3.474-.094-1.183-.028-2.902-.075-3.803-.094-.902-.028-2.554-.065-3.662-.093-1.108-.028-2.705-.075-3.54-.094l-1.512-.047-.207.253c-.15.188-.169.263-.075.32.066.037.648.093 1.296.13.648.038 1.192.076 1.22.094.029.02.555.066 1.165.094.62.038 1.192.075 1.296.094.094.019.6.056 1.136.094.526.028 1.061.066 1.193.094.131.018.704.065 1.267.093.573.029 1.371.094 1.784.141.414.056.836.075.94.056.103-.018.403 0 .666.038.263.047 1.005.103 1.643.14.639.038 1.184.076 1.212.095.028.018.554.056 1.174.084.62.038 1.258.084 1.408.103.16.019.714.066 1.24.094.526.028 1.042.075 1.136.094.103.019.62.056 1.155.094.535.028 1.296.084 1.68.122 1.146.112 1.062.178 1.062-.78zm3.446.563a63.446 63.446 0 0 1 1.456-.094c.413-.028.901-.066 1.08-.094.178-.028.882-.065 1.549-.094.676-.037 1.286-.075 1.361-.093.076-.02.583-.066 1.127-.094a31.389 31.389 0 0 0 1.409-.094c.235-.028.864-.066 1.408-.103a30.207 30.207 0 0 0 1.268-.085c.16-.018.789-.056 1.409-.094.62-.028 1.23-.075 1.361-.093.132-.02.639-.066 1.127-.094.488-.028 1.193-.066 1.55-.094.366-.028.957-.066 1.323-.094.357-.019.949-.065 1.315-.094a40.89 40.89 0 0 1 2.366-.131c.555-.01.62-.131.273-.46-.207-.197-.273-.197-1.944-.16-.958.02-3.174.067-4.93.095-3.606.056-6.63.112-9.719.187l-4.413.104c-1.259.028-2.33.075-2.367.093-.084.057-.103 1.576-.018 1.66.056.048.554.029 2.01-.074zm-28.622-2.233c.292-.375.536-.741.555-.816.037-.216-.104-1.407-.245-1.923-.432-1.68-1.202-3.275-1.436-3.003-.404.45-.564 6.108-.179 6.352.057.037.263.075.442.065.29 0 .385-.065.863-.675zm52.83.45c.197-.16.282-3.978.104-4.85-.245-1.22-.31-1.492-.376-1.539-.15-.093-.695.92-1.005 1.886-.253.779-.497 1.81-.629 2.749-.056.366-.038.44.291.844.751.948.873 1.042 1.25.985.187-.028.346-.065.365-.075z" fill="#353535"/><g fill="#EAFF00"><path d="M24.24 56.897c-.132-.037-.5-.075-.822-.084-.321-.01-.614-.047-.642-.103-.029-.046-.161-.093-.293-.093-.274 0-1.266-.916-1.266-1.16a.827.827 0 0 0-.095-.336 6.937 6.937 0 0 0-.189-.373 1.09 1.09 0 0 1-.094-.374c0-.505-.7-1.309-1.436-1.654-.737-.346-1.068-.402-2.324-.402-.69 0-1.323-.038-1.418-.084a1.478 1.478 0 0 0-.311-.131c-.085-.028-.199-.253-.265-.552-.123-.514-.104-1.345.085-3.345.047-.542.113-1.253.151-1.59.029-.336.095-.644.142-.7.047-.047.085-.243.085-.43 0-.196.047-.383.094-.411.057-.028.095-.178.095-.327 0-.15.047-.3.094-.327.057-.028.095-.14.095-.243a.93.93 0 0 1 .085-.346c.047-.084.18-.365.302-.626.917-1.972 2.315-3.028 4.016-3.038.585 0 .69.028.878.225.16.168.19.261.123.392-.482.935-.614 1.841-.605 4.243 0 2.215.104 3.58.284 3.897.094.178.217.206.982.253.482.028 1.465.093 2.183.15.708.046 1.88.14 2.598.186.709.056 1.908.14 2.664.187.756.047 1.965.13 2.693.187.727.056 1.899.14 2.598.187.7.046 1.87.13 2.598.187 1.965.14 3.808.27 5.29.374.728.046 1.919.13 2.646.186.728.047 1.824.122 2.428.15.728.037 1.143.093 1.21.178.066.074.094.654.075 1.644l-.028 1.533-.614.066c-1.087.121-1.465.177-1.654.261a2.678 2.678 0 0 1-.566.131c-.615.075-1.03.159-1.229.243-.104.047-.34.103-.52.14-.179.028-.472.075-.642.112-.17.028-.33.084-.359.131-.028.047-.189.084-.368.084-.18 0-.35.047-.378.094-.028.056-.18.093-.33.093-.152 0-.303.047-.331.094-.029.056-.18.093-.331.093-.151 0-.369.038-.491.084-.123.047-.407.131-.643.197-.236.065-.5.15-.586.196a.956.956 0 0 1-.35.084c-.103 0-.217.047-.245.093-.028.056-.18.094-.33.094-.152 0-.303.047-.331.093-.029.056-.18.094-.33.094-.152 0-.303.046-.332.093-.066.112-13.387.112-13.746 0zm1.87-3.047c.35-.233.53-.747.407-1.177-.142-.467-.539-.73-1.077-.73-.35 0-.482.048-.718.29-.236.234-.293.365-.293.702 0 .944.897 1.43 1.682.915zm4.11-.158c.378-.43.36-1.02-.047-1.44-.255-.261-.368-.308-.737-.308-.34 0-.5.056-.756.262-.283.233-.32.317-.32.747-.01.402.028.514.264.757.463.477 1.162.477 1.596-.018zm3.78 0c.377-.43.358-1.02-.048-1.44-.255-.261-.368-.308-.737-.308-.34 0-.5.056-.756.262-.283.233-.32.317-.32.747-.01.402.028.514.264.757.463.477 1.162.477 1.596-.018zM60.945 56.897c-.029-.047-.18-.093-.322-.093-.141 0-.293-.038-.34-.075-.056-.047-.416-.178-.803-.29-1.03-.299-1.852-.532-2.57-.757-.35-.103-.737-.187-.869-.187s-.255-.037-.283-.084c-.029-.047-.19-.103-.36-.13-.519-.085-.868-.169-1.067-.253a3.336 3.336 0 0 0-.52-.14c-.179-.028-.538-.094-.803-.15-1.162-.224-1.455-.28-2.003-.345-.944-.122-.973-.169-.973-1.795 0-1.71-.037-1.654 1.418-1.738.982-.056 2.021-.122 3.4-.234a75.972 75.972 0 0 1 2.126-.13 26.56 26.56 0 0 0 1.701-.14 47.53 47.53 0 0 1 1.842-.15 73.735 73.735 0 0 0 2.126-.14c.576-.047 1.597-.103 2.268-.14.68-.029 1.332-.085 1.473-.122.133-.047.747-.084 1.36-.094.615-.01 1.154-.037 1.2-.065.076-.047 2.278-.215 3.714-.28.472-.02 1.039-.057 1.275-.085a55.082 55.082 0 0 1 1.7-.13c.7-.057 1.361-.113 1.465-.14.104-.02.303-.047.444-.047.369-.01.51-.356.605-1.505.217-2.673-.028-5.729-.548-6.794-.151-.3.01-.44.624-.59.415-.093.604-.102.973 0 .67.169 1.379.515 1.766.842.785.691 1.607 2.037 1.947 3.224.056.206.141.458.189.56.047.104.104.337.141.515.029.178.095.56.151.841.208 1.159.303 2.29.312 3.963l.01 1.775-.492.253c-.463.233-.557.252-1.776.252-.774 0-1.407.047-1.587.112-.576.215-1.115.505-1.323.71-.264.253-.633.935-.633 1.15 0 .093-.056.29-.132.44-.076.149-.217.457-.321.69-.284.627-.841 1.076-1.578 1.281-.208.056-.926.15-1.606.206-1.597.13-13.236.14-13.321.01zm5.243-2.981c.132-.084.312-.318.406-.505.331-.645-.113-1.43-.85-1.532-.548-.075-1.04.168-1.219.598-.482 1.13.68 2.13 1.663 1.439zm3.78 0c.131-.084.311-.318.405-.505.331-.645-.113-1.43-.85-1.532-.548-.075-1.04.168-1.219.598-.481 1.13.68 2.13 1.663 1.439zm4.147-.14c.302-.318.359-1.047.113-1.43-.368-.589-1.389-.645-1.842-.112-.406.476-.321 1.327.17 1.673.444.317 1.2.252 1.559-.131z"/><path d="M21.982 48.047c-.18-.15-.208-.309-.274-1.337-.104-1.869.094-4.598.378-5.159.34-.682 1.2.748 1.823 3.056.133.505.293 1.692.246 1.916-.019.075-.302.486-.652.907-.576.72-.642.776-.973.776-.19 0-.435-.075-.548-.16zM75.655 47.944a16.077 16.077 0 0 1-.718-.841c-.52-.636-.548-.682-.482-1.066.312-2.093 1.01-4.102 1.625-4.673.359-.336.406-.233.775 1.59.122.607.132 3.392.01 4.214-.095.692-.19.804-.69.879-.265.037-.407.01-.52-.103z"/></g></g></g></svg>