<svg id="Слой_1" data-name="Слой 1" xmlns="http://www.w3.org/2000/svg" viewBox="0 0 101.01 33.99"><defs><style>.cls-1{fill:#4c5b93}</style></defs><title>samsung</title><path class="cls-1" d="M534.69-2153.07h6.21c0 .08.1 0 .15 0 1.3 0 2.61.1 3.91.2a50.79 50.79 0 0 1 7.7 1c.39.09.79.16 1.18.25a23.12 23.12 0 0 1 6.28 2.21 8.92 8.92 0 0 1 3.07 2.54 4.57 4.57 0 0 1 .78 3.4 7.88 7.88 0 0 1-1.87 3.68 18.15 18.15 0 0 1-2.31 2.28 32.71 32.71 0 0 1-3.38 2.45c-1.25.85-2.61 1.51-3.92 2.26-.93.53-1.92 1-2.9 1.41 0 0-.11.1-.16 0a2.13 2.13 0 0 0 .84-1.51 35.47 35.47 0 0 0 .08-3.66c0-.13 0-.17-.17-.17h-3.38c-.12 0-.16 0-.16.15v1.26c0 .15.06.16.18.16h.73c.12 0 .16 0 .16.16v1.67a.88.88 0 0 1-.65.84c-.74.19-1.52 0-1.52-1.1v-2.45-2.55c0-.67.28-1 .84-1.14a1 1 0 0 1 1.31.9v.68c0 .23 0 .15.14.15h2.35c.11 0 .15 0 .14-.14s0-.51 0-.76a2.58 2.58 0 0 0-2-2.54 5.87 5.87 0 0 0-3.4 0 2.51 2.51 0 0 0-2 2.49 53.93 53.93 0 0 0 0 5.78 2.42 2.42 0 0 0 1.34 2.13 4.41 4.41 0 0 0 2 .49 7.73 7.73 0 0 0 1.5-.07.57.57 0 0 1-.29.23c-2 .86-4 1.58-6 2.34-2.43.94-5 1.61-7.43 2.43-.82.27-1.66.47-2.5.7-2.14.61-4.32 1.09-6.48 1.65-1.48.38-3 .65-4.48 1-2.48.53-5 .9-7.47 1.38-1.06.21-2.14.33-3.22.49-1.68.24-3.37.46-5.06.63-1.51.15-3 .31-4.55.43-1.21.1-2.41.22-3.63.23h-14.84c-1.51-.12-3-.27-4.51-.48a37.34 37.34 0 0 1-7.27-1.65 15.11 15.11 0 0 1-5-2.62 5.36 5.36 0 0 1-1.94-3.18s0-.06-.05-.08v-1.11a.34.34 0 0 0 0-.09 6.56 6.56 0 0 1 .87-2.4 12.12 12.12 0 0 1 1.76-2.26 22.93 22.93 0 0 1 2.83-2.45 38.39 38.39 0 0 1 3.4-2.24c1.47-.93 3.07-1.64 4.61-2.47.42-.23.87-.41 1.3-.61l.19-.08.18-.07a2.7 2.7 0 0 0-.85 1.84 2.76 2.76 0 0 0 .73 2.39 3.62 3.62 0 0 0 .64.53l2.24 1.37a4.48 4.48 0 0 1 .9.68 1.28 1.28 0 0 1 .17 1.46 1 1 0 0 1-1.19.43.84.84 0 0 1-.75-.84v-1c0-.11 0-.19-.15-.19h-2.5c-.08 0-.15 0-.15.12a8 8 0 0 0 .08 1.56 2.8 2.8 0 0 0 2.35 2.12 5.35 5.35 0 0 0 3.26-.18 2.58 2.58 0 0 0 1.77-1.93 5.82 5.82 0 0 0 .08-1.51 2.59 2.59 0 0 0-.84-1.8 6 6 0 0 0-.93-.69c-.78-.49-1.64-.84-2.37-1.4a1.34 1.34 0 0 1-.65-.88.9.9 0 0 1 .77-1.08.93.93 0 0 1 1.15.75 3.23 3.23 0 0 1 0 .65c0 .13 0 .2.18.19h2.25c.15 0 .19-.06.18-.2v-1a2.16 2.16 0 0 0-1.1-1.76 3.52 3.52 0 0 0-1.13-.4 7.46 7.46 0 0 0-2.58 0c.72-.36 1.4-.62 2.07-.9 2.12-.9 4.31-1.61 6.48-2.38 2.57-.92 5.22-1.61 7.84-2.37 3.24-.94 6.55-1.6 9.83-2.36 1.72-.4 3.46-.69 5.2-1s3.77-.61 5.65-.9c1-.16 2.1-.24 3.13-.45.63-.13 1.29-.15 1.93-.23 1.85-.22 3.71-.39 5.58-.53 2.36-.18 4.72-.31 7.08-.37.06.16.13.16.16.09zm-31.79 19.9l-.15-.92-.54-3.4c-.19-1.21-.39-2.42-.57-3.63 0-.18-.1-.22-.27-.22h-3.79c-.19 0-.26 0-.26.25 0 1.14 0 2.29-.06 3.43q-.07 3.37-.15 6.74c0 .19 0 .24.23.23h2.15c.21 0 .25-.06.25-.25q0-4.52.05-9v-.26a.27.27 0 0 1 .09.16l.42 2.3c.42 2.3.84 4.6 1.25 6.9 0 .16.08.19.22.19h2.27c.16 0 .22-.05.24-.2.12-.69.24-1.39.37-2.08l1.15-6.28.18-1a.45.45 0 0 1 .06.27q0 4.51.05 9c0 .19 0 .26.24.25h2.1c.22 0 .29 0 .29-.28-.06-2.13-.1-4.26-.15-6.39q0-1.88-.08-3.76c0-.14 0-.23-.2-.22h-3.89c-.14 0-.19.06-.21.18-.05.33-.11.66-.16 1-.32 2.07-.64 4.14-1 6.21a3 3 0 0 1-.13.78zm34.8.12c-.2-.69-.41-1.38-.61-2.07q-.86-3-1.71-6c0-.15-.11-.18-.25-.18h-3.48c-.17 0-.21.05-.21.22v10.12c0 .17 0 .21.21.21h2.17c.18 0 .2-.06.2-.21q-.07-4.08-.13-8.15v-.21a1 1 0 0 1 .16.34l2.38 8c0 .12 0 .25.24.25h3.38c.15 0 .18 0 .18-.19v-10.15c0-.16 0-.22-.21-.21h-2.17c-.19 0-.22.07-.21.23 0 1.38.06 2.76.08 4.14s-.01 2.58-.01 3.91zm-11.83-4.12v4a.86.86 0 0 1-.65.88 1 1 0 0 1-1.37-1v-4.09-3.71c0-.2-.06-.25-.25-.25h-2.2c-.14 0-.21 0-.21.19v7.75a3.48 3.48 0 0 0 .24 1.38 2.94 2.94 0 0 0 2.43 1.62 5.05 5.05 0 0 0 2.57-.14 3.29 3.29 0 0 0 1.32-.71 2.71 2.71 0 0 0 .77-2v-7.85c0-.16-.05-.2-.2-.2h-2.2c-.21 0-.27.05-.27.27.03 1.25.02 2.56.02 3.86zm-35.1-3.18a.27.27 0 0 1 .08.19c.12.89.24 1.78.37 2.67q.47 3.3 1 6.6c0 .16.08.2.24.2h2.35c.27 0 .25-.09.22-.29q-.38-2-.74-4c-.37-2-.74-4.07-1.1-6.11 0-.21-.1-.26-.3-.25h-4.11c-.25 0-.31.09-.34.3q-.3 1.76-.62 3.51-.6 3.33-1.22 6.65c0 .18 0 .19.16.19H489c.35 0 .34 0 .39-.34.12-.85.24-1.69.37-2.54l.64-4.3zm21.91 6.17h-1.24c-.13 0-.18 0-.17.17s0 .52 0 .78a3.19 3.19 0 0 0 .36 1.42 3.07 3.07 0 0 0 2.19 1.4 5.29 5.29 0 0 0 3.1-.2 2.5 2.5 0 0 0 1.73-1.89 5.74 5.74 0 0 0 .08-1.51 2.57 2.57 0 0 0-.78-1.72 5.8 5.8 0 0 0-1-.73c-.75-.48-1.59-.81-2.31-1.35a1.4 1.4 0 0 1-.7-.93.89.89 0 0 1 .81-1c.67-.05 1.09.27 1.1.87a3.8 3.8 0 0 1 0 .48c0 .18.06.22.23.22h1.64c.24 0 .58.11.69-.05s.05-.48 0-.73a2.26 2.26 0 0 0-1.77-2.36 6 6 0 0 0-3.57 0 2.32 2.32 0 0 0-1.67 1.66 3 3 0 0 0 1.09 3.46c.67.48 1.41.86 2.11 1.31a10 10 0 0 1 .86.57 1.25 1.25 0 0 1 .58.91c0 .62-.13 1-.58 1.16a1.43 1.43 0 0 1-.84 0 .81.81 0 0 1-.63-.72 6.25 6.25 0 0 1 0-1c0-.19 0-.26-.24-.25-.31.04-.69.03-1.07.03z" transform="translate(-463.03 2153.07)"/><path class="cls-1" d="M549.45-2131.32h.05v-.05z" transform="translate(-463.03 2153.07)"/></svg>