<svg width="97" height="55" viewBox="0 0 97 55" xmlns="http://www.w3.org/2000/svg"><title>005-sofa</title><g fill-rule="nonzero" fill="none"><path d="M46.984 24.25V0H15.156a3.031 3.031 0 0 0-3.031 3.031v24.25h31.828a3.031 3.031 0 0 0 3.031-3.031zM81.844 0H50.016v24.25a3.031 3.031 0 0 0 3.03 3.031h31.829V3.031A3.031 3.031 0 0 0 81.844 0z" fill="#3CB44A"/><path d="M50.016 24.25V0h-3.032v24.25a3.031 3.031 0 0 1-3.03 3.031H12.124v7.578a3.031 3.031 0 0 0 3.031 3.032h66.688a3.031 3.031 0 0 0 3.031-3.032v-7.578H53.047a3.031 3.031 0 0 1-3.031-3.031z" fill="#0E9247"/><path d="M93.969 16.672h-6.063a3.031 3.031 0 0 0-3.031 3.031V34.86a3.031 3.031 0 0 1-3.031 3.032H15.156a3.031 3.031 0 0 1-3.031-3.032V19.703a3.031 3.031 0 0 0-3.031-3.031H3.03A3.031 3.031 0 0 0 0 19.703V48.5a3.031 3.031 0 0 0 3.031 3.031H93.97A3.031 3.031 0 0 0 97 48.5V19.703a3.031 3.031 0 0 0-3.031-3.031z" fill="#3F556B"/><path d="M87.228 53.207c.373.745 1.36 1.355 2.194 1.355h3.031a1.52 1.52 0 0 0 1.516-1.515V51.53H86.39l.837 1.676zM3.031 51.531v1.516a1.52 1.52 0 0 0 1.516 1.516h3.031c.834 0 1.82-.61 2.194-1.356l.837-1.676H3.031z" fill="#35495C"/><circle fill="#73AE43" cx="62.141" cy="9.094" r="1.516"/><circle fill="#73AE43" cx="74.266" cy="9.094" r="1.516"/><circle fill="#73AE43" cx="62.141" cy="18.188" r="1.516"/><circle fill="#73AE43" cx="74.266" cy="18.188" r="1.516"/><circle fill="#0E9247" cx="62.141" cy="9.094" r="1.516"/><circle fill="#0E9247" cx="74.266" cy="9.094" r="1.516"/><circle fill="#0E9247" cx="62.141" cy="18.188" r="1.516"/><circle fill="#0E9247" cx="74.266" cy="18.188" r="1.516"/><circle fill="#0E9247" cx="24.25" cy="9.094" r="1.516"/><circle fill="#0E9247" cx="36.375" cy="9.094" r="1.516"/><circle fill="#0E9247" cx="24.25" cy="18.188" r="1.516"/><circle fill="#0E9247" cx="36.375" cy="18.188" r="1.516"/><path d="M81.844 37.89H15.156a3.031 3.031 0 0 1-3.031-3.03V51.53h3.031v-7.578a3.031 3.031 0 0 1 3.031-3.031h60.626a3.031 3.031 0 0 1 3.03 3.031v7.578h3.032V34.86a3.031 3.031 0 0 1-3.031 3.032z" fill="#35495C"/><path d="M84.875 27.281a3.031 3.031 0 0 0-3.031 3.032v3.03c0 .838-.679 1.517-1.516 1.517H12.125a3.031 3.031 0 0 0 3.031 3.03h66.688a3.031 3.031 0 0 0 3.031-3.03V27.28z" fill="#04803D"/></g></svg>