<svg id="Слой_1" data-name="Слой 1" xmlns="http://www.w3.org/2000/svg" viewBox="0 0 108.58 19.51"><defs><style>.cls-1{fill:#0b0a0c}.cls-2{fill:#0a0a0b}.cls-3{fill:#09090a}.cls-4{fill:#0b0b0c}</style></defs><title>sony</title><path class="cls-1" d="M706.86-2138.64v8.54a6 6 0 0 0 0 .82.68.68 0 0 0 .75.69h2.34c.22 0 .28.06.27.27v1.63c0 .16 0 .24-.22.24h-9.37c-.18 0-.24 0-.23-.23v-1.69c0-.19.06-.23.24-.22h2a.74.74 0 0 0 .84-.81v-.73-9.81-.54a1 1 0 0 0-1.11-1.09h-1.93c-.17 0-.24 0-.23-.22v-1.77c0-.18.06-.21.22-.21h8c.23 0 .3.16.42.28l1.29 1.17c.45.41.92.8 1.35 1.22 1.1 1.08 2.29 2.06 3.4 3.13s2 1.81 3 2.76c.7.69 1.44 1.32 2.16 2l.17.16c.07-.07 0-.13 0-.19l-.12-7.14a2.91 2.91 0 0 0 0-.33.82.82 0 0 0-.91-.84h-2.21c-.19 0-.25 0-.25-.24v-1.74c0-.16 0-.22.21-.22h9.59c.15 0 .2 0 .2.2v1.8c0 .18-.07.2-.23.2h-2.13c-.71 0-.84.2-.87.83-.06 1 0 1.92 0 2.89l.14 11.17c0 .24-.06.31-.3.31h-2.81a.57.57 0 0 1-.41-.15c-1-.89-2-1.74-3-2.66s-2.05-1.81-3-2.76-2.19-1.93-3.24-2.94-1.93-1.73-2.88-2.61a14.1 14.1 0 0 0-1.14-1.17z" transform="translate(-646.25 2144.85)"/><path class="cls-2" d="M646.79-2129.47v-3.21c0-.18 0-.23.22-.23h2c.1 0 .19 0 .2.14a3.6 3.6 0 0 0 1.71 2.85 8.82 8.82 0 0 0 3.39 1.42 16.16 16.16 0 0 0 4.45.44 10.91 10.91 0 0 0 3.69-.82 1.91 1.91 0 0 0 1.17-2.19 1.57 1.57 0 0 0-.82-1 4.51 4.51 0 0 0-1.64-.49c-1.73-.27-3.48-.4-5.21-.62a38.21 38.21 0 0 1-5.46-.92 6.46 6.46 0 0 1-1-.34 5.1 5.1 0 0 1-3-3 4.45 4.45 0 0 1 1.83-5.42 10.87 10.87 0 0 1 1.38-.75 15.38 15.38 0 0 1 7.48-1.27 17.46 17.46 0 0 1 5.12 1c.55.2 1.08.48 1.61.73s.67.07.67-.42 0-.57.59-.57h1.61c.16 0 .22 0 .22.21v5.53c0 .17-.05.21-.22.21h-1.74c-.17 0-.21-.07-.25-.21a4.11 4.11 0 0 0-1.73-2.35 10.17 10.17 0 0 0-4.15-1.44 15 15 0 0 0-4.4-.06 8.1 8.1 0 0 0-2.61.7 2.14 2.14 0 0 0-1 .85 1.22 1.22 0 0 0 .56 1.83 5 5 0 0 0 1.32.32c1.45.23 2.93.28 4.38.52a51.9 51.9 0 0 1 6.3 1.07 10.1 10.1 0 0 1 1.77.68 5 5 0 0 1 2.91 4.41 4.35 4.35 0 0 1-1.58 3.71 9 9 0 0 1-2.41 1.39 16.71 16.71 0 0 1-7.59 1.07 16.58 16.58 0 0 1-4-.79 21.61 21.61 0 0 1-2.48-.91c-.48-.22-.68-.08-.69.46 0 .25.11.59-.05.73s-.47 0-.71 0h-1.66c-.2 0-.24-.06-.24-.24.06-.9.06-1.96.06-3.02z" transform="translate(-646.25 2144.85)"/><path class="cls-3" d="M685.44-2125.35a17.06 17.06 0 0 1-6.36-1 12.39 12.39 0 0 1-4.12-2.4 8.34 8.34 0 0 1-2.71-5.35 8.62 8.62 0 0 1 1.45-5.94 9.61 9.61 0 0 1 3.86-3.16 16.11 16.11 0 0 1 5.24-1.54 19.33 19.33 0 0 1 4.7 0 13.29 13.29 0 0 1 3.81.95 11.94 11.94 0 0 1 4 2.66 8.28 8.28 0 0 1 2.2 4.37 8.82 8.82 0 0 1-1.58 6.82 10.3 10.3 0 0 1-4.33 3.25 15.23 15.23 0 0 1-4.53 1.18c-.58.12-1.19.13-1.63.16zm-.15-2.59a7.14 7.14 0 0 0 4.38-1.56 6.62 6.62 0 0 0 1.87-2.27 7.93 7.93 0 0 0 .45-5.43 6.5 6.5 0 0 0-2.79-3.9 7 7 0 0 0-3.41-1.15 7.56 7.56 0 0 0-5.83 1.67 6.1 6.1 0 0 0-1.33 1.53 7.7 7.7 0 0 0-.85 5.71 6.56 6.56 0 0 0 3.14 4.36 8 8 0 0 0 4.37 1.04z" transform="translate(-646.25 2144.85)"/><path class="cls-4" d="M734.7-2143.79h5.59c.21 0 .27.05.27.27v1.72c0 .17 0 .22-.21.21h-1.09c-.18 0-.37 0-.47.2s0 .34.13.49c.7 1 1.53 1.82 2.25 2.76.51.66 1.06 1.29 1.57 1.94.13.16.2.17.34 0l3.69-4.39c.09-.1.15-.22.24-.33a.42.42 0 0 0 .06-.44.36.36 0 0 0-.37-.23h-1.25c-.16 0-.22 0-.22-.21v-1.8c0-.16 0-.2.2-.2h9.21c.16 0 .19.05.19.2v1.77c0 .18 0 .23-.22.23h-2.13a1.84 1.84 0 0 0-1.49.84c-.49.62-1 1.19-1.55 1.79-1.09 1.25-2.19 2.5-3.25 3.77-.51.61-1 1.21-1.56 1.81a.64.64 0 0 0-.17.44v3.41c0 .7.21.91.91.92s1.42 0 2.13 0c.21 0 .25.06.25.26v1.66c0 .15 0 .22-.2.22H736.3c-.14 0-.21 0-.21-.19v-1.74c0-.18.07-.2.23-.2h2.18c.5 0 .75-.22.76-.72v-3.57a.64.64 0 0 0-.21-.43c-.38-.44-.78-.87-1.14-1.32-.86-1.05-1.8-2-2.67-3.09s-1.7-1.91-2.51-2.89a2.53 2.53 0 0 0-1.41-.94 5 5 0 0 0-1 0h-1.23c-.21 0-.25-.07-.25-.26v-1.69c0-.21.06-.25.26-.25z" transform="translate(-646.25 2144.85)"/></svg>