<svg width="60" height="60" viewBox="0 0 60 60" xmlns="http://www.w3.org/2000/svg"><title>002-stopwatch</title><g fill-rule="nonzero" fill="none"><g><circle fill="#ECF0F1" cx="29.492" cy="29.69" r="29.492"/><path d="M29.492 4.266c14.018 0 25.423 11.405 25.423 25.424 0 14.018-11.405 25.424-25.423 25.424-14.02 0-25.424-11.406-25.424-25.424 0-14.019 11.405-25.424 25.424-25.424zm0-4.068C13.204.198 0 13.402 0 29.69 0 45.977 13.204 59.18 29.492 59.18c16.287 0 29.491-13.204 29.491-29.491C58.983 13.402 45.78.198 29.492.198z" fill="#545E73"/><g fill="#8697CB"><path d="M29.492 6.176c-.562 0-1.017.455-1.017 1.017V8.21a1.017 1.017 0 1 0 2.033 0V7.193c0-.561-.455-1.017-1.016-1.017zM29.492 49.905c-.562 0-1.017.454-1.017 1.017v1.017a1.017 1.017 0 1 0 2.033 0v-1.017c0-.562-.455-1.017-1.016-1.017zM51.864 28.549h-1.017a1.017 1.017 0 1 0 0 2.034h1.017a1.017 1.017 0 1 0 0-2.034zM8.136 28.549H7.119a1.017 1.017 0 1 0 0 2.034h1.017a1.017 1.017 0 1 0 0-2.034zM44.592 13.027l-.719.72a1.016 1.016 0 1 0 1.438 1.437l.72-.719a1.016 1.016 0 1 0-1.439-1.438zM13.672 43.948l-.72.72a1.016 1.016 0 1 0 1.439 1.437l.719-.719a1.016 1.016 0 1 0-1.438-1.438zM45.311 43.948a1.016 1.016 0 1 0-1.438 1.438l.72.72a1.014 1.014 0 0 0 1.437 0 1.016 1.016 0 0 0 0-1.439l-.719-.719zM14.39 13.027a1.016 1.016 0 1 0-1.437 1.438l.719.72a1.014 1.014 0 0 0 1.438 0 1.016 1.016 0 0 0 0-1.439l-.72-.719z"/></g><path d="M26.44 30.584h-8.135a1.016 1.016 0 1 1 0-2.034h8.136a1.016 1.016 0 1 1 0 2.034zM29.492 27.533a1.016 1.016 0 0 1-1.017-1.017V15.329a1.016 1.016 0 1 1 2.033 0v11.187c0 .561-.454 1.017-1.016 1.017z" fill="#545E73"/><path d="M29.492 33.635a4.072 4.072 0 0 1-4.068-4.068 4.072 4.072 0 0 1 4.068-4.068 4.072 4.072 0 0 1 4.067 4.068 4.072 4.072 0 0 1-4.067 4.068zm0-6.102a2.036 2.036 0 0 0-2.034 2.034c0 1.121.912 2.034 2.034 2.034a2.036 2.036 0 0 0 2.033-2.034 2.036 2.036 0 0 0-2.033-2.034z" fill="#545E73"/></g><path d="M59.38 45.804l-1.469-.282c-2.18-.42-3.178-2.966-1.866-4.755l.922-1.256-1.99-1.992-1.238.84c-1.837 1.244-4.345.15-4.682-2.043l-.237-1.54h-2.816l-.365 1.896c-.41 2.132-2.866 3.149-4.663 1.931l-1.599-1.083-1.99 1.992.921 1.256c1.312 1.79.314 4.336-1.866 4.755l-1.468.282v2.816l1.54.237c2.194.338 3.287 2.845 2.043 4.682l-.84 1.238 1.992 1.991 1.257-.922c1.79-1.312 4.335-.313 4.754 1.866l.283 1.468h2.816l.166-1.084c.345-2.241 2.946-3.318 4.774-1.977l.884.65 1.99-1.992-.838-1.238c-1.245-1.836-.15-4.344 2.042-4.682l1.54-.237v-2.817h.003z" fill="#BDC3C7"/><g transform="translate(41.695 41.695)"><circle fill="#FFF" cx="5.481" cy="5.283" r="4.068"/><path d="M5.481 10.368A5.09 5.09 0 0 1 .397 5.283 5.09 5.09 0 0 1 5.48.198a5.09 5.09 0 0 1 5.085 5.085 5.091 5.091 0 0 1-5.085 5.085zm0-8.136a3.055 3.055 0 0 0-3.05 3.051 3.055 3.055 0 0 0 3.05 3.05 3.055 3.055 0 0 0 3.051-3.05 3.055 3.055 0 0 0-3.05-3.05z" fill="#ECF0F1"/></g></g></svg>