<svg width="35" height="35" viewBox="0 0 35 35" xmlns="http://www.w3.org/2000/svg"><title>002-twitter</title><g fill="none"><circle fill="#55ACEE" cx="17.376" cy="17.375" r="17.375"/><path d="M28.019 12.487a8.286 8.286 0 0 1-2.386.653 4.165 4.165 0 0 0 1.827-2.297 8.314 8.314 0 0 1-2.638 1.008 4.154 4.154 0 0 0-7.077 3.789 11.79 11.79 0 0 1-8.56-4.34 4.153 4.153 0 0 0 1.285 5.545 4.124 4.124 0 0 1-1.882-.52v.052a4.156 4.156 0 0 0 3.332 4.072 4.139 4.139 0 0 1-1.876.072 4.158 4.158 0 0 0 3.88 2.884 8.333 8.333 0 0 1-6.149 1.72 11.748 11.748 0 0 0 6.366 1.866c7.64 0 11.817-6.328 11.817-11.817 0-.18-.004-.36-.012-.537a8.422 8.422 0 0 0 2.073-2.15z" fill="#F1F2F2"/></g></svg>