<svg width="97" height="97" viewBox="0 0 97 97" xmlns="http://www.w3.org/2000/svg"><title>003-stopwatch</title><g fill-rule="nonzero" fill="none"><g><circle fill="#ECF0F1" cx="48.5" cy="48.5" r="48.5"/><path d="M48.5 6.69c23.054 0 41.81 18.756 41.81 41.81 0 23.054-18.756 41.81-41.81 41.81-23.054 0-41.81-18.756-41.81-41.81 0-23.054 18.756-41.81 41.81-41.81zm0-6.69C21.715 0 0 21.715 0 48.5S21.715 97 48.5 97 97 75.285 97 48.5 75.285 0 48.5 0z" fill="#545E73"/><g fill="#8697CB"><path d="M48.5 9.832c-.923 0-1.672.748-1.672 1.673v1.672a1.672 1.672 0 1 0 3.344 0v-1.672c0-.925-.749-1.673-1.672-1.673zM48.5 81.746c-.923 0-1.672.747-1.672 1.672v1.673a1.672 1.672 0 1 0 3.344 0v-1.673c0-.925-.749-1.672-1.672-1.672zM85.293 46.625h-1.672a1.672 1.672 0 1 0 0 3.345h1.672a1.672 1.672 0 1 0 0-3.345zM13.38 46.625h-1.673a1.672 1.672 0 1 0 0 3.345h1.672a1.672 1.672 0 1 0 0-3.345zM73.334 21.098L72.15 22.28a1.67 1.67 0 0 0 1.183 2.855c.428 0 .856-.164 1.182-.49l1.182-1.183a1.67 1.67 0 0 0 0-2.364 1.67 1.67 0 0 0-2.364 0zM22.484 71.949l-1.182 1.182a1.67 1.67 0 0 0 1.182 2.855c.428 0 .856-.164 1.182-.49l1.183-1.182a1.672 1.672 0 1 0-2.365-2.365zM74.516 71.949a1.67 1.67 0 0 0-2.365 0 1.67 1.67 0 0 0 0 2.365l1.183 1.182a1.668 1.668 0 0 0 2.364 0 1.67 1.67 0 0 0 0-2.365l-1.182-1.182zM23.666 21.098a1.67 1.67 0 0 0-2.364 0 1.67 1.67 0 0 0 0 2.364l1.182 1.183a1.668 1.668 0 0 0 2.365 0 1.67 1.67 0 0 0 0-2.365l-1.183-1.182z"/></g><path d="M43.483 49.97h-13.38a1.67 1.67 0 0 1-1.672-1.672 1.67 1.67 0 0 1 1.672-1.673h13.38a1.67 1.67 0 0 1 1.672 1.673 1.67 1.67 0 0 1-1.672 1.672zM48.5 44.953a1.67 1.67 0 0 1-1.672-1.673V24.884A1.67 1.67 0 0 1 48.5 23.21a1.67 1.67 0 0 1 1.672 1.673V43.28a1.67 1.67 0 0 1-1.672 1.673z" fill="#545E73"/><path d="M48.5 54.987c-3.69 0-6.69-3-6.69-6.69 0-3.689 3-6.689 6.69-6.689 3.69 0 6.69 3 6.69 6.69 0 3.689-3 6.69-6.69 6.69zm0-10.034a3.348 3.348 0 0 0-3.345 3.345c0 1.844 1.5 3.344 3.345 3.344 1.845 0 3.345-1.5 3.345-3.344 0-1.845-1.5-3.345-3.345-3.345z" fill="#545E73"/></g><path d="M75 69c1.614-3.638 5.18-7 9.472-7 5.779 0 9.94 4.702 10.464 10.305 0 0 .283 1.392-.339 3.895-.846 3.41-2.835 6.44-5.518 8.752L74.999 97 60.921 84.952c-2.683-2.312-4.672-5.342-5.518-8.752-.622-2.503-.339-3.895-.339-3.895C55.586 66.702 59.748 62 65.526 62c4.29 0 7.858 3.362 9.473 7z" fill="#ED7161"/></g></svg>