<svg id="Слой_1" data-name="Слой 1" xmlns="http://www.w3.org/2000/svg" viewBox="0 0 64.07 64.05"><defs><style>.cls-1{fill:#d27b45}.cls-2{fill:#eec9a6}.cls-3{fill:#f9f8f4}.cls-4{fill:#f8f7f3}</style></defs><title>xiaomi</title><path class="cls-1" d="M846.08-2171.06h64v64h-63.53c-.45 0-.45 0-.45-.44v-63.15c-.01-.14-.02-.27-.02-.41zm6.41 32v16.15c0 .32.13.55.52.52h7.06a.38.38 0 0 0 .38-.37v-.28-24.93-.31a.37.37 0 0 1 .39-.4h15.33a5.3 5.3 0 0 1 .77 0 5.21 5.21 0 0 1 4.15 3 5.46 5.46 0 0 1 .49 2.44v20.15a2.65 2.65 0 0 0 0 .31.35.35 0 0 0 .35.34h7.14a.37.37 0 0 0 .34-.32 1.63 1.63 0 0 0 0-.23v-23a10.75 10.75 0 0 0-.24-2.29 9.58 9.58 0 0 0-9.29-7.49h-26.8c-.45 0-.59.12-.59.6v16.08zm43.25 0v16.28a.36.36 0 0 0 .33.34h7.29a.35.35 0 0 0 .32-.34v-.2-32.2a1.72 1.72 0 0 0 0-.23.36.36 0 0 0-.32-.31h-7c-.47 0-.61.11-.61.61q0 8.03-.01 16.05zm-20.85 6.5v-9.57a1.85 1.85 0 0 0 0-.28.38.38 0 0 0-.36-.33h-7.23a.38.38 0 0 0-.37.36 2.4 2.4 0 0 0 0 .28V-2122.89c0 .34.13.47.46.48h6.91c.51 0 .6-.2.6-.6q-.01-4.77-.01-9.54z" transform="translate(-846.02 2171.06)"/><path class="cls-2" d="M846.08-2171.06V-2107.5c0 .44 0 .44.45.44h63.53v.05H846v-.37-63.45c0-.07 0-.17.08-.23z" transform="translate(-846.02 2171.06)"/><path class="cls-3" d="M852.49-2139.09v-16c0-.48.15-.6.59-.6h26.82a9.58 9.58 0 0 1 9.29 7.49 10.75 10.75 0 0 1 .24 2.29v23a1.63 1.63 0 0 1 0 .23.37.37 0 0 1-.34.32h-7.14a.35.35 0 0 1-.35-.34 2.65 2.65 0 0 1 0-.31v-20.15a5.46 5.46 0 0 0-.49-2.44 5.21 5.21 0 0 0-4.15-3 5.3 5.3 0 0 0-.77 0h-15.34a.37.37 0 0 0-.39.4v25.52a.38.38 0 0 1-.38.37H853c-.39 0-.52-.2-.52-.52q.01-8.17.01-16.26zM895.74-2139.06v-16c0-.5.14-.61.61-.61h7a.36.36 0 0 1 .32.31 1.72 1.72 0 0 1 0 .23V-2122.73a.35.35 0 0 1-.32.34h-7.29a.36.36 0 0 1-.33-.34v-.28q.01-7.99.01-16.05z" transform="translate(-846.02 2171.06)"/><path class="cls-4" d="M874.89-2132.55v9.55c0 .4-.09.61-.6.6h-6.91c-.33 0-.45-.14-.46-.48v-.15-19.06a2.4 2.4 0 0 1 0-.28.38.38 0 0 1 .37-.36h7.22a.38.38 0 0 1 .36.33 1.85 1.85 0 0 1 0 .28q.02 4.78.02 9.57z" transform="translate(-846.02 2171.06)"/></svg>