<svg width="102" height="78" viewBox="0 0 102 78" xmlns="http://www.w3.org/2000/svg"><title>yik-yak-down</title><g fill-rule="nonzero" fill="none"><g fill="#010000"><path d="M41.066 57.963c-.53-.318-.71-.763-.636-1.59.19-2.31 1.907-4.354 4.63-5.52 3.519-1.505 8.033-1.187 11.074.805.88.573 2.056 1.791 2.458 2.565.626 1.165.848 2.564.51 3.221-.361.678-1.272.922-1.93.52-.423-.255-.614-.636-.699-1.346-.138-1.261-1.049-2.3-2.649-3.052-1.325-.625-2.352-.837-3.995-.837-1.642 0-2.67.212-3.995.837-1.6.752-2.511 1.79-2.649 3.052-.032.307-.127.688-.212.847-.19.392-.731.71-1.197.71-.202 0-.52-.095-.71-.212zM41.5 41.284c-.572-.572-.403-1.409.34-1.716.444-.18.73-.117 1.122.254.552.509.446 1.314-.233 1.664-.487.254-.826.201-1.229-.202zM56.865 41.284c-.583-.583-.455-1.324.286-1.716.414-.212.837-.117 1.177.254.37.392.434.678.254 1.123-.307.742-1.145.912-1.717.34zM41.193 26.979c-1.039-.477-1.579-1.378-1.515-2.511.063-1.24.88-2.194 2.098-2.448 1.568-.318 3.115.953 3.104 2.553-.01 1.908-1.981 3.2-3.687 2.406zM56.78 27c-.582-.159-1.589-1.155-1.748-1.727-.34-1.25.127-2.448 1.197-3.073a2.542 2.542 0 0 1 2.989.297c1.229 1.08 1.292 2.649.17 3.772-.764.763-1.6.996-2.608.731z"/></g><path d="M46.703 48.204c-4.705-.477-7.396-2.056-8.382-4.928-.254-.73-.297-1.006-.297-2.161-.01-1.134.022-1.43.244-2.056.859-2.5 3.328-4.058 7.428-4.673 1.548-.233 5.023-.318 6.888-.17 3.773.297 5.86.996 7.322 2.448 1.145 1.134 1.654 2.363 1.76 4.26.116 2.066-.318 3.306-1.611 4.599-1.272 1.272-3.264 2.098-6.093 2.533-1.314.211-5.807.296-7.259.148zm-4.037-6.888c.657-.307.572-1.324-.138-1.59-.848-.328-1.568.795-.911 1.442.275.286.636.339 1.049.148zm15.365 0c.37-.17.55-.731.36-1.123-.413-.858-1.674-.594-1.674.339 0 .7.646 1.08 1.314.784z" fill="#CC9A62"/><g stroke="#444" fill="#F7F9E4"><path d="M100.502 67.257c-.276-.329-.593-1.325-1.303-4.027-3.879-14.878-7.26-24.966-9.58-28.537-.593-.911-2.903-3.168-3.973-3.878-3.126-2.077-6.337-2.946-10.904-2.946-1.505 0-2.024-.032-2.11-.138-.063-.074-.169-.35-.243-.625-.116-.424-.106-.52.074-.826.456-.785 1.4-.933 2.332-.36.943.582.932.582 1.038.391.138-.243.01-1.801-.201-2.416-.35-1.017-1.388-2.3-2.84-3.497l-.509-.423-.106-1.675c-.106-1.748-.02-2.787.276-3.359.222-.424.943-1.028 1.388-1.155.445-.127 1.028-.021 3.274.572 6.985 1.832 12.597 5.266 16.259 9.866.999 1.255 1.853 2.596 2.55 4.016 2.279 4.641 3.836 13.087 4.61 24.955.37 5.796.583 13.415.381 13.913-.127.318-.243.36-.413.149zM1.074 66.79c-.127-.307-.074-3.624.117-8.403.53-12.885 1.95-22.93 4.005-28.41 2.957-7.873 10.11-13.51 20.41-16.085l1.695-.424.519.276c1.113.614 1.664 1.399 2.151 3.115.276.943.276.986.085 1.123-.106.075-.371.138-.583.138-1.102 0-3.423 1.208-4.366 2.278-.318.36-.816 1.463-.816 1.823v.329h1.304c.71 0 1.504.053 1.759.127.477.127.964.519.964.773 0 .085-.434 1.039-.954 2.12l-.953 1.96-.827.074c-3.857.307-6.538 1.155-9.081 2.85-1.494.997-2.946 2.353-3.953 3.71-2.193 2.977-5.955 14.093-9.812 29.002-.678 2.607-.943 3.444-1.198 3.72-.233.265-.339.243-.466-.096z"/></g><path d="M47.53 77.122a39.5 39.5 0 0 1-2.883-4.006c-1.155-1.801-1.79-2.67-1.907-2.606-.053.031-.17.572-.276 1.197-.106.625-.254 1.219-.328 1.303-.127.128-.201.096-.53-.211-.837-.795-2.67-3.222-5.404-7.153-.763-1.102-1.039-1.282-1.441-.975-.096.074-.477.752-.848 1.505-.858 1.738-.985 1.79-1.515.667-.7-1.473-.816-2.14-.89-5.277-.096-3.454-.223-3.92-1.124-3.92-.35 0-.773.222-1.102.572-.148.148-.318.275-.381.275-.233 0-.911-.826-1.113-1.356-.254-.678-.275-2.374-.063-4.642.137-1.345.127-2.055-.011-2.055-.265 0-1.717.932-2.278 1.473-.414.381-.784.646-.859.614-.339-.127-.381-2.13-.084-4.154.17-1.102.423-2.066 1.282-4.757.593-1.865 1.41-4.228 1.812-5.256.964-2.49 1.017-2.702.805-3.2-.17-.414-.35-.488-.72-.297-.255.138-1.007 1.26-2.332 3.444-1.557 2.575-1.632 2.553-1.62-.456 0-1.854.03-2.236.285-3.412.615-2.872 1.749-6.04 3.253-9.092.467-.954.848-1.801.848-1.876 0-.487-.795-.71-2.596-.73l-1.378-.011-.031-.403c-.043-.456.339-1.367.805-1.929.975-1.186 3.38-2.49 4.578-2.49.222 0 .434-.042.466-.095.085-.138-.424-1.833-.72-2.437-.34-.668-.827-1.124-1.622-1.516-.572-.275-.668-.37-.668-.604 0-.466.551-1.197 1.187-1.579.594-.35 2.342-.858 3.041-.88.859-.02.89-.052 1.039-1.101.212-1.526.646-2.278 2.14-3.762.679-.667 1.431-1.356 1.685-1.526.403-.275.477-.297.615-.159.138.138.127.212-.032.636-.254.668-.254 2.564 0 3.03.424.785 1.505 1.23 2.946 1.23 1.536 0 2.056-.435 2.183-1.833.148-1.59-.668-4.27-1.79-5.913-.393-.562-.488-1.092-.255-1.282.466-.382 1.992.222 3.613 1.43 1.261.943 4.207 3.9 5.5 5.532.572.71 1.091 1.292 1.144 1.292.053 0 .572-.35 1.145-.784 1.292-.975 2.469-1.579 3.115-1.59.403-.01.53.043.869.361.212.201.593.689.848 1.091.254.392.519.71.572.71.064 0 .434-.254.826-.561 1.389-1.102 3.307-2.512 4.176-3.073 1.6-1.039 2.341-1.325 2.606-.996.053.063.127 1.038.16 2.193.052 2.3.243 3.21.794 3.815.477.52 1.007.562 2.056.19.7-.254 1.07-.328 1.79-.338.848-.011.954.01 1.717.392 1.43.71 3.667 3.157 3.55 3.9-.021.148-.17.264-.434.36-1.208.413-1.526 1.409-1.346 4.26l.106 1.674.392.307c.689.54 1.981 1.897 2.384 2.5.52.795.731 1.484.795 2.544.053.773.032.932-.138 1.134-.222.265-.159.286-1.144-.318-.265-.17-.668-.329-.901-.36-.816-.106-1.515.508-1.346 1.197.043.159.307.837.594 1.515 1.409 3.36 1.886 5.839 1.981 10.395.043 2.11.021 2.766-.116 3.487-.085.498-.212.943-.276 1.006-.148.149-.466-.17-1.166-1.218-.55-.816-1.578-1.897-1.801-1.897-.053 0 .307.827.795 1.833 2.003 4.133 2.712 6.58 2.564 8.859-.074 1.144-.244 1.833-.636 2.702-.339.731-.498.752-1.197.16-.572-.478-1.208-.838-1.484-.838-.222 0-.17.445.17 1.642.212.71.244 1.113.254 2.49.01 1.59 0 1.675-.328 2.618-.647 1.833-1.558 3.38-2.957 4.96-1.515 1.705-1.674 1.663-1.907-.541-.297-2.872-.445-3.38-1.346-4.726-.604-.901-1.515-1.992-1.653-1.992-.042 0-.021.37.053.826.085.445.17 1.505.212 2.352.085 1.812-.01 2.173-.985 4.027-.732 1.388-2.406 3.963-2.777 4.25l-.275.222-.265-.34c-.149-.19-.392-.497-.551-.677l-.286-.329-.01.594c0 1.155-.88 2.352-3.159 4.312-.88.753-1.017.753-1.134-.01-.233-1.526-.943-3.402-1.61-4.281-.297-.403-.742-.466-1.017-.16-.223.245-1.728 3.381-2.236 4.663-.223.54-.583 1.823-.816 2.85-.223 1.029-.467 1.93-.53 2.004-.244.296-.509.137-1.123-.615zM42.4 57.804c.34-.17.499-.508.584-1.24.148-1.24 1.218-2.447 2.84-3.21 1.335-.625 2.363-.837 4.005-.837 1.643 0 2.67.212 4.006.837 1.62.763 2.691 1.97 2.84 3.21.116.997.455 1.4 1.197 1.4 1.049 0 1.42-.912 1.017-2.49-.71-2.714-3.581-4.738-7.47-5.257-1.622-.222-3.942-.01-5.468.488-.933.307-2.416 1.102-3.116 1.674-.794.646-1.663 1.876-1.939 2.723-.265.816-.35 1.823-.18 2.226.244.582 1.05.815 1.685.476zm11.562-9.96c4.46-.69 6.888-2.363 7.428-5.119.159-.847.064-2.712-.18-3.518-.911-3.02-3.317-4.355-8.626-4.779-1.865-.148-5.34-.063-6.888.17-3.21.487-5.52 1.59-6.538 3.115-.72 1.07-.932 1.844-.922 3.402 0 1.155.043 1.43.297 2.161.53 1.548 1.41 2.554 2.893 3.328 1.388.71 3.126 1.176 5.277 1.388 1.452.148 5.945.064 7.259-.148zM43.333 26.767c1.76-.827 1.802-3.465.064-4.313-1.144-.561-2.533-.212-3.158.795-.36.593-.487 1.632-.265 2.215.54 1.345 2.024 1.918 3.36 1.303zm15.026-.021c1.749-.604 2.173-2.967.731-4.154-1.102-.911-2.903-.625-3.613.583-.583 1.006-.434 2.214.392 3.01.72.71 1.526.879 2.49.56z" fill="#815700"/></g></svg>