<svg version="1" xmlns="http://www.w3.org/2000/svg" width="1600" height="1600" viewBox="0 0 16000 16000"><g fill="#010000"><path d="M6855 9972c-39-24-54-43-65-81-21-74 44-161 122-161 81 0 147 72 134 148-13 85-122 138-191 94zM8759 9967c-19-12-42-40-53-61-16-32-17-44-7-76 17-57 71-100 126-100s109 43 126 100c10 32 9 44-7 76-23 47-76 84-119 84-18 0-47-10-66-23zM6835 8187c-22-8-51-19-64-26-45-25-113-95-139-146-23-43-27-62-27-140s4-97 27-140c32-62 104-130 166-158 65-29 179-29 244 0 62 28 138 100 168 160 32 64 39 171 15 243-23 69-108 160-177 190-64 27-158 35-213 17zM8704 8159c-73-28-137-88-175-164-29-59-31-70-27-147 2-63 9-95 28-131 31-62 96-122 167-154 48-22 65-25 137-21 96 5 146 27 213 94s88 121 88 224c0 73-4 92-27 136-35 66-124 147-184 168-64 22-157 20-220-5z"/></g><g fill="#cb9961"><path d="M7568 10810c-684-51-1040-257-1149-666-32-118-32-329-1-439 41-140 107-241 229-345 253-216 768-321 1425-290 407 19 645 66 843 167 200 101 331 263 384 473 32 123 39 310 17 420-50 250-225 434-521 549-151 59-325 97-545 121-133 14-542 20-682 10zm-569-874c21-22 26-36 26-77 0-45-4-54-33-80-62-56-159-31-181 46-14 51 3 102 42 126 44 28 110 21 146-15zm1887 15c93-57 49-201-61-201-52 0-89 27-105 75-23 71 30 145 105 145 17 0 44-9 61-19zM10654 8146c-4-10-2-22 4-28 8-8 13-7 18 6 4 10 2 22-4 28-8 8-13 7-18-6zM11011 8086c-7-8-8-17-3-20 6-3 15 1 21 8 7 8 8 17 3 20-6 3-15-1-21-8zM5007 8073c-4-6 0-18 7-28 8-11 16-14 19-8 4 6 0 18-7 28-8 11-16 14-19 8zM11094 8066c-8-21 3-49 16-41 5 3 10 15 10 25 0 25-18 36-26 16zM10765 8011c-7-12 12-24 25-16 11 7 4 25-10 25-5 0-11-4-15-9zM10875 8011c-7-12 12-24 25-16 11 7 4 25-10 25-5 0-11-4-15-9zM11094 7946c-8-21 3-49 16-41 5 3 10 15 10 25 0 25-18 36-26 16zM5088 7661c-20-10-39-16-42-14-3 3-13 3-22-1-13-5-14-10-6-18 6-6 18-7 29-3 10 5 22 7 26 6 15-3 68 30 62 39-7 12-2 13-47-9zM4725 7631c-7-13 17-24 40-19 9 1 16 8 16 13 0 14-48 19-56 6zM4915 7630c-8-13 20-24 41-16 20 8 9 26-16 26-10 0-22-5-25-10zM10971 7616c-7-8-8-17-3-20 6-3 15 1 21 8 7 8 8 17 3 20-6 3-15-1-21-8zM10936 7571c-10-11-13-22-8-25s17 3 26 13c10 11 13 22 8 25s-17-3-26-13zM4664 7556c-4-10-2-22 4-28 8-8 13-7 18 6 4 10 2 22-4 28-8 8-13 7-18-6zM10891 7516c-13-13-18-26-13-30 5-3 19 5 31 18 13 13 18 26 13 30-5 3-19-5-31-18zM10801 7426c-13-13-18-26-13-30 5-3 19 5 31 18 13 13 18 26 13 30-5 3-19-5-31-18zM10746 7381c-10-11-13-22-8-25s17 3 26 13c10 11 13 22 8 25s-17-3-26-13zM4746 7382c-3-6 1-15 8-21 8-7 17-8 20-3 3 6-1 15-8 21-8 7-17 8-20 3zM10686 7331c-10-11-13-22-8-25s17 3 26 13c10 11 13 22 8 25s-17-3-26-13zM4846 7282c-3-5 3-17 13-26 11-10 22-13 25-8s-3 17-13 26c-11 10-22 13-25 8zM10644 7256c-4-10-2-22 4-28 8-8 13-7 18 6 4 10 2 22-4 28-8 8-13 7-18-6zM5006 7171c-6-8 5-20 31-35 23-13 22 12-2 28-13 9-26 12-29 7zM10634 7137c-7-20-2-47 11-50 14-3 19 43 6 56-7 7-12 6-17-6zM5275 7060c-8-12 20-24 35-15 6 3 8 11 5 16-8 12-32 12-40-1zM5387 7054c-3-3-2-18 3-34 5-17 4-32-2-38-12-12-1-35 13-26 6 3 8 12 5 20-3 7-1 16 4 19 14 9 12 41-3 54-8 6-16 8-20 5zM5365 6900c-4-6-3-16 3-22s12-6 17 2c4 6 3 16-3 22s-12 6-17-2zM10634 6786c-4-10-2-22 4-28 8-8 13-7 18 6 4 10 2 22-4 28-8 8-13 7-18-6zM5237 6635c-53-61-49-85 4-27 50 53 61 69 52 75-5 3-30-19-56-48zM10696 6632c-3-5 8-21 23-36 16-15 31-23 35-18 3 5-8 21-23 36-16 15-31 23-35 18zM5097 6534c-38-20-24-38 14-19 16 9 27 20 24 25-7 12-4 13-38-6z"/></g><g fill="#f6f8e3"><path d="M10689 8253c-12-26-24-74-27-106-4-57-4-58 40-101 34-35 53-46 90-51 68-10 122 2 176 40 65 47 110 70 119 61 16-15 15-154-1-232-36-175-148-334-345-494l-89-72-9-77c-4-42-8-164-8-271 0-183 2-199 24-253 27-65 109-149 163-165 18-6 125-13 238-16s257-12 320-21c413-56 774-209 1075-455 105-86 284-277 348-372 281-419 714-1705 1187-3523 97-374 132-484 165-523l22-26 18 28c17 26 18 52 11 429-6 381-12 560-36 1022-76 1447-253 2575-505 3200-421 1048-1455 1764-2917 2019-36 7-37 6-59-41zM4785 8159c-966-253-1731-750-2173-1412-152-227-240-409-332-687-259-780-410-1987-470-3745-16-454-13-696 6-723 15-22 17-22 35-6 23 21 71 142 99 254 474 1869 962 3350 1245 3775 203 306 572 592 935 725 117 43 324 96 450 115 58 8 188 21 290 27 182 11 186 11 253 46 132 68 214 186 266 386 34 129 28 146-50 146-50 0-200 45-271 81-83 42-213 137-266 193-64 68-122 185-122 246v42l98-7c109-7 265 8 320 31 49 20 82 52 82 79 0 12-45 116-101 231-124 258-113 239-130 241-8 1-81-16-164-38z"/></g><path d="M7538 14343c-150-193-213-281-273-378-67-110-217-332-253-375-17-19-33-33-36-29-3 3-18 74-33 159-33 181-42 194-99 140-104-100-322-386-573-750-195-285-192-280-230-280-51 0-81 38-166 211-85 174-101 192-139 150-25-28-90-184-110-264-33-132-38-185-45-502-8-352-13-379-73-430-52-44-129-25-208 51-20 19-40 34-46 34-21 0-94-87-119-142-50-110-54-234-19-588 23-237 19-278-28-267-48 12-200 114-279 185-83 77-108 85-110 35 0-15-4-66-8-113-16-162 26-465 95-685 100-323 267-814 338-1000 82-214 96-271 76-329-17-51-48-65-92-39-38 22-159 199-326 477-59 98-113 181-120 184-48 18-73-156-54-383 36-433 185-914 458-1473 52-106 94-204 94-217 0-28-37-60-89-76-20-6-115-13-213-14-97-2-182-6-188-10-19-12-3-101 30-172 43-93 173-218 303-292 20-11 53-30 73-41 59-34 177-69 253-76 41-4 71-11 71-18 0-6-9-42-19-81-39-142-80-239-128-303-30-40-122-100-188-124-48-16-50-18-48-52 5-79 73-161 180-215 68-34 235-78 348-90 115-14 111-11 118-94 8-99 30-178 77-274 32-64 62-104 142-188 103-108 288-265 312-265 33 0 35 25 10 105-27 89-33 214-14 298 30 136 144 205 355 215 126 5 206-11 242-50 48-51 67-116 67-228 1-212-83-479-212-675-60-90-73-136-47-165 49-54 226 11 419 153 246 182 470 410 791 805 28 34 56 64 63 67 7 2 41-19 76-49 157-133 380-256 464-256 16 0 48 13 73 29 45 29 68 56 142 171 23 36 50 66 59 68 10 2 96-57 203-140 428-329 669-478 725-448 27 15 29 26 34 280 5 253 16 327 68 430 58 114 146 138 290 81 202-81 371-61 534 63 104 78 278 267 314 340 18 35 30 72 28 81-1 9-20 23-41 30-76 26-117 62-150 133l-32 67v230c1 325-4 307 111 402 98 80 247 250 286 326 49 97 75 244 61 352-10 76-25 80-101 27-88-61-115-72-179-72-96 0-159 54-156 134 1 25 22 87 53 156 172 386 238 679 271 1220 20 318-7 645-54 674-22 13-37-3-136-149-85-125-217-253-238-231-3 2 38 92 90 198 175 356 281 641 319 862 36 212 14 438-57 595-26 55-51 91-66 91-4 0-34-22-66-48-92-76-152-114-185-116-51-2-55 20-25 121 59 195 79 382 58 534-32 220-175 519-346 725-101 121-208 224-232 224-32 0-42-25-53-142-23-219-41-356-56-418-28-114-111-250-264-433-60-72-85-85-76-39 44 215 55 554 22 657-66 202-413 765-472 765-7 0-38-34-70-75-31-42-61-74-68-72-6 2-9 20-8 41 5 53-15 131-51 201-49 94-391 425-440 425-22 0-24-4-51-137-31-153-66-256-123-365-53-100-99-150-138-150-58 0-103 74-273 457-97 218-118 283-172 535-23 107-48 205-56 218-31 48-54 31-176-125zm712-3563c528-57 863-220 988-481 58-120 76-222 69-379-23-489-287-723-909-805-273-36-742-38-1003-5-240 31-474 99-616 178-106 59-241 190-286 277-58 111-77 202-76 360 1 155 18 240 71 356 139 303 482 465 1080 509 140 10 549 4 682-10zM7048 8150c66-29 135-103 157-171 24-71 17-179-15-242-52-103-149-161-270-161s-214 55-268 158c-23 44-27 63-27 141s4 97 27 140c76 144 242 201 396 135zm1875-6c60-20 131-84 165-148 23-44 27-63 27-136 0-99-21-155-79-213s-109-80-202-85c-72-4-89-1-136 20-119 55-170 132-176 266-4 77-2 88 27 147 36 73 83 117 156 145 62 23 156 25 218 4z" fill="#805700"/></svg>