<svg width="53" height="50" viewBox="0 0 53 50" xmlns="http://www.w3.org/2000/svg"><title>linkedin</title><path d="M52.846 30.655V50H41.519V31.95c0-4.534-1.638-7.628-5.738-7.628-3.13 0-4.992 2.085-5.812 4.103-.298.72-.375 1.725-.375 2.734V50h-11.33s.152-30.57 0-33.737h11.329v4.782c-.023.036-.053.074-.075.109h.075v-.109c1.505-2.295 4.193-5.575 10.21-5.575 7.454 0 13.043 4.822 13.043 15.185zM6.41 0C2.535 0 0 2.517 0 5.828c0 3.238 2.462 5.832 6.261 5.832h.076c3.95 0 6.408-2.593 6.408-5.832C12.671 2.518 10.288 0 6.411 0zM.673 50h11.326V16.263H.673V50z" fill="#A6A8AA"/></svg>