<?xml version="1.0" encoding="UTF-8"?>
<svg width="300px" height="10px" viewBox="0 0 300 10" version="1.1" xmlns="http://www.w3.org/2000/svg" xmlns:xlink="http://www.w3.org/1999/xlink">
    <!-- Generator: Sketch 46 (44423) - http://www.bohemiancoding.com/sketch -->
    <title>frame_browser</title>
    <desc>Created with Sketch.</desc>
    <defs></defs>
    <g id="Page-1" stroke="none" stroke-width="1" fill="none" fill-rule="evenodd" fill-opacity="0.2">
        <g id="Main" transform="translate(-721.000000, -510.000000)" fill="#000000">
            <g id="Project" transform="translate(250.000000, 429.000000)">
                <g id="Slider" transform="translate(320.000000, 0.000000)">
                    <g id="frame_browser" transform="translate(151.000000, 81.000000)">
                        <path d="M0,3.33541667 C0,1.493125 1.494375,0 3.33375,0 L296.66625,0 C298.507292,0 300,1.493125 300,3.33541667 L300,9.16666667 L0,9.16666667 L0,3.33541667 Z M5.83333333,6.25 C6.75380792,6.25 7.5,5.50380792 7.5,4.58333333 C7.5,3.66285875 6.75380792,2.91666667 5.83333333,2.91666667 C4.91285875,2.91666667 4.16666667,3.66285875 4.16666667,4.58333333 C4.16666667,5.50380792 4.91285875,6.25 5.83333333,6.25 Z M12.5,6.25 C13.4204746,6.25 14.1666667,5.50380792 14.1666667,4.58333333 C14.1666667,3.66285875 13.4204746,2.91666667 12.5,2.91666667 C11.5795254,2.91666667 10.8333333,3.66285875 10.8333333,4.58333333 C10.8333333,5.50380792 11.5795254,6.25 12.5,6.25 Z M19.1666667,6.25 C20.0871412,6.25 20.8333333,5.50380792 20.8333333,4.58333333 C20.8333333,3.66285875 20.0871412,2.91666667 19.1666667,2.91666667 C18.2461921,2.91666667 17.5,3.66285875 17.5,4.58333333 C17.5,5.50380792 18.2461921,6.25 19.1666667,6.25 Z" id="Shape"></path>
                    </g>
                </g>
            </g>
        </g>
    </g>
</svg>