<?xml version="1.0" encoding="UTF-8"?>
<svg width="65px" height="50px" viewBox="0 0 65 50" version="1.1" xmlns="http://www.w3.org/2000/svg" xmlns:xlink="http://www.w3.org/1999/xlink">
    <!-- Generator: Sketch 46 (44423) - http://www.bohemiancoding.com/sketch -->
    <title>github</title>
    <desc>Created with Sketch.</desc>
    <defs></defs>
    <g id="Page-1" stroke="none" stroke-width="1" fill="none" fill-rule="evenodd">
        <g id="Main" transform="translate(-720.000000, -1043.000000)" fill-rule="nonzero" fill="#A6A8AA">
            <g id="github" transform="translate(720.000000, 1043.000000)">
                <path d="M46.935,0.357142857 C47.7707143,2.255 48.3121429,5.40714286 47.5042857,7.715 C50.8078571,10.5357143 51.9435714,17.3928571 50.3485714,22.9964286 C55.0571429,23.3557143 60.6657143,22.8235714 64.2857143,24.2685714 C60.9014286,23.8335714 56.2792857,22.98 51.9142857,23.2771429 C51.0871429,23.3335714 49.8621429,23.2457143 49.9221429,24.4092857 C54.975,24.8057143 59.9964286,25.2378571 64.145,26.5328571 C60.03,25.8607143 55.035,24.8364286 49.9221429,24.6942857 C47.81,28.8621429 43.5592857,30.9107143 37.6914286,31.3421429 C38.3221429,32.715 39.53,33.2371429 39.825,35.445 C40.265,38.7435714 39.1364286,43.5742857 40.25,45.7728571 C40.7842857,46.8264286 41.655,46.8542857 42.2421429,47.755 C40.805,49.4557143 37.2421429,47.5635714 36.8364286,45.7728571 C36.1414286,42.705 37.895,37.9492857 35.985,35.8692857 C36.1192857,39.2157143 35.1935714,43.915 36.1271429,46.9042857 C36.495,48.08 37.5571429,48.5335714 37.265,49.5942857 C30.585,50.2721429 33.3771429,40.9485714 32.285,35.4442857 C31.2771429,35.5164286 31.72,36.9535714 31.7164286,37.5671429 C31.6878571,42.9414286 32.8164286,50.3128571 27.0235714,49.5942857 C26.8542857,48.4642857 27.8007143,48.0807143 28.1614286,47.0492857 C29.2178571,44.0257143 27.9635714,39.5192857 28.4478571,35.87 C26.2371429,37.5371429 28.68,43.3557143 27.31,46.3392857 C26.5207143,48.0564286 23.9771429,48.8035714 22.0478571,48.0371429 C22.2992857,46.7585714 23.6192857,46.965 24.1792857,45.7735714 C24.9621429,44.1135714 24.185,41.7207143 24.4642857,39.2657143 C20.3721429,40.0828571 17.1978571,39.1471429 15.6442857,36.5771429 C14.9492857,35.4235714 14.7771429,34.0628571 13.9371429,33.0407143 C13.1014286,32.0178571 11.7657143,31.88 11.3785714,30.4957143 C16.4464286,29.2757143 16.6407143,35.7114286 21.1921429,35.87 C22.5878571,35.9207143 23.3135714,35.4678571 24.605,35.1642857 C24.9664286,33.5414286 25.74,32.3307143 26.8807143,31.4835714 C21.2171429,30.7085714 16.54,28.945 14.365,24.695 C9.21642857,24.9478571 4.505,25.6357143 0.141428571,26.6742857 C4.10214286,25.2357143 8.98714286,24.72 14.2235714,24.5507143 C13.915,22.6964286 11.21,23.2064286 9.53071429,23.2778571 C6.40928571,23.415 2.48071429,23.8028571 0,24.2685714 C3.59571429,22.9864286 8.64142857,23.1464286 13.5128571,23.1364286 C12.0228571,18.465 12.5392857,11.0442857 15.7885714,8.28071429 C14.8678571,5.96 15.1535714,2.16428571 16.3571429,0.357142857 C19.985,0.52 22.185,2.10214286 24.4642857,3.61214286 C27.2907143,2.80857143 30.2628571,2.40857143 34.1357143,2.62142857 C35.7642857,2.71142857 37.4578571,3.44357143 38.685,3.32785714 C39.8885714,3.215 41.215,1.86428571 42.3835714,1.34857143 C43.9057143,0.676428571 45.1935714,0.42 46.935,0.357142857 Z" id="Github__x28_alt_x29_"></path>
            </g>
        </g>
    </g>
</svg>