<?xml version="1.0" encoding="UTF-8"?>
<svg width="53px" height="50px" viewBox="0 0 53 50" version="1.1" xmlns="http://www.w3.org/2000/svg" xmlns:xlink="http://www.w3.org/1999/xlink">
    <!-- Generator: Sketch 46 (44423) - http://www.bohemiancoding.com/sketch -->
    <title>linkedin</title>
    <desc>Created with Sketch.</desc>
    <defs></defs>
    <g id="Page-1" stroke="none" stroke-width="1" fill="none" fill-rule="evenodd">
        <g id="Main" transform="translate(-902.000000, -1043.000000)" fill-rule="nonzero" fill="#A6A8AA">
            <g id="linkedin" transform="translate(902.000000, 1043.000000)">
                <path d="M52.8455285,30.6549603 L52.8455285,50 L41.5190206,50 L41.5190206,31.9505744 C41.5190206,27.4164116 39.8807634,24.3220228 35.780943,24.3220228 C32.6512501,24.3220228 30.7887676,26.4074141 29.9693933,28.4246792 C29.6705901,29.1458436 29.5936778,30.14961 29.5936778,31.1590941 L29.5936778,50 L18.2633612,50 C18.2633612,50 18.4159572,19.4301974 18.2633612,16.2629379 L29.592572,16.2629379 L29.592572,21.0450314 C29.5695966,21.0807977 29.5397409,21.1193619 29.5181169,21.1540333 L29.592572,21.1540333 L29.592572,21.0450314 C31.0977684,18.7495438 33.7858912,15.4703627 39.8027453,15.4703627 C47.257221,15.470241 52.8455285,20.292237 52.8455285,30.6549603 Z M6.41136763,0 C2.53528105,0 0,2.51738434 0,5.82783052 C0,9.06613593 2.46193175,11.6599189 6.26098314,11.6599189 L6.33666684,11.6599189 C10.2878228,11.6599189 12.7450858,9.06662255 12.7450858,5.82783052 C12.6706307,2.51738434 10.2878228,0 6.41136763,0 Z M0.672921459,50 L11.9989379,50 L11.9989379,16.2629379 L0.672921459,16.2629379 L0.672921459,50 Z" id="LinkedIn"></path>
            </g>
        </g>
    </g>
</svg>